<svg id="Layer_1" data-name="Layer 1" xmlns="http://www.w3.org/2000/svg" viewBox="0 0 495.21 495.21"><defs><style>.cls-1{fill:#1f67f8;}</style></defs><title>Artboard 33</title><circle class="cls-1" cx="247.6" cy="247.6" r="246.34"/><circle cx="247.6" cy="247.6" r="238.96" transform="translate(-102.56 247.6) rotate(-45)"/><path class="cls-1" d="M61.05,193.53l-.53,2.12-16.34,6.17,0,.18,13.91,3.48-.56,2.22-17.85-4.47.54-2.15,16.35-6.17,0-.17-13.93-3.5.55-2.19Z"/><path class="cls-1" d="M63,187.77,62.27,190l-17.54-5.58.69-2.18Z"/><path class="cls-1" d="M53.48,168.59a5.28,5.28,0,0,0-2.16,2.65,5.45,5.45,0,0,0-.31,3.08,5.81,5.81,0,0,0,1.55,2.88A9.42,9.42,0,0,0,56,179.38a9.13,9.13,0,0,0,4,.74,5.82,5.82,0,0,0,5.45-6.4,4.56,4.56,0,0,0-1-2.41A5.87,5.87,0,0,0,62,169.62l-1.78,4.47-1.86-.75,2.6-6.54,1.84.73a8,8,0,0,1,3.32,2.36,6.63,6.63,0,0,1,1.45,3.46,8.63,8.63,0,0,1-3.24,7.52,7.57,7.57,0,0,1-4.12,1.46,12.75,12.75,0,0,1-9.31-3.7,7.51,7.51,0,0,1-1.54-8.18,8.07,8.07,0,0,1,2-3,7.19,7.19,0,0,1,6.37-1.83l-.87,2.19A5.74,5.74,0,0,0,53.48,168.59Z"/><path class="cls-1" d="M54.21,159.24l1-2.05,7.33,3.64,4.34-8.72-7.33-3.64,1-2.07,16.48,8.19-1,2.07L68.7,153l-4.34,8.72,7.36,3.66-1,2.05Z"/><path class="cls-1" d="M62.62,142.74l7.23-11.85,1.74,1.05-3,4.93,14,8.52-1.2,2-14-8.52-3,5Z"/><path class="cls-1" d="M86.25,114.89a5.06,5.06,0,0,0-2.19.61A5.73,5.73,0,0,0,82.29,117a5.51,5.51,0,0,0-1.21,2.9,5.82,5.82,0,0,0,.66,3.22,9.49,9.49,0,0,0,2.64,3.06,9.35,9.35,0,0,0,3.6,1.84,5.81,5.81,0,0,0,3.27-.12,5.53,5.53,0,0,0,2.55-1.86A5.91,5.91,0,0,0,94.86,124a4.83,4.83,0,0,0-1-4.37l1.42-1.8A7.32,7.32,0,0,1,97,120.9a6.74,6.74,0,0,1,0,3.34,7.87,7.87,0,0,1-1.55,3.15A7.75,7.75,0,0,1,92,130a7.89,7.89,0,0,1-4.38.23A12.61,12.61,0,0,1,79.72,124a7.8,7.8,0,0,1-.8-4.31,7.64,7.64,0,0,1,1.69-4,8,8,0,0,1,2.68-2.25,7,7,0,0,1,3.27-.77,7.35,7.35,0,0,1,3.39.92l-1.41,1.8A4.62,4.62,0,0,0,86.25,114.89Z"/><path class="cls-1" d="M100.65,120.48,91.85,103l1.65-1.76,18,7.7-1.65,1.76-5-2.21-5.07,5.39,2.52,4.89Zm2.24-12.89-8-3.51-.11.11,4,7.77Z"/><path class="cls-1" d="M98.36,96.12l10.2-9.41,1.38,1.49-4.24,3.91,11.09,12-1.7,1.57L104,93.68l-4.26,3.93Z"/><path class="cls-1" d="M119.52,77.9l13.81,8.78.19-.13-3.69-16L132.07,69l10.64,15-1.77,1.25-8-11.36-.15.11,3.37,14.65-1.66,1.18-12.71-8.05-.12.09,8,11.35-1.77,1.25-10.64-15Z"/><path class="cls-1" d="M156.36,71.41a7.88,7.88,0,0,1-.9,4.29,7.76,7.76,0,0,1-3.1,3.07,7.67,7.67,0,0,1-4.23,1.06A7.75,7.75,0,0,1,144,78.37a11.28,11.28,0,0,1-3.37-3.84,11.47,11.47,0,0,1-1.55-4.87,7.88,7.88,0,0,1,.9-4.29,8.2,8.2,0,0,1,7.33-4.13,7.88,7.88,0,0,1,4.14,1.45,11.5,11.5,0,0,1,3.36,3.85A11.34,11.34,0,0,1,156.36,71.41Zm-6.1-6.86a5.78,5.78,0,0,0-3.07-1.14,5.44,5.44,0,0,0-3.06.75,5.54,5.54,0,0,0-2.23,2.22,5.81,5.81,0,0,0-.61,3.23,9.2,9.2,0,0,0,1.27,3.83,9.42,9.42,0,0,0,2.62,3.08,5.87,5.87,0,0,0,3.08,1.14,5.56,5.56,0,0,0,3.06-.75,5.48,5.48,0,0,0,2.22-2.23,5.68,5.68,0,0,0,.61-3.22,10.5,10.5,0,0,0-3.89-6.91Z"/><path class="cls-1" d="M162,73.29,154.44,56.5l5.43-2.44a9.16,9.16,0,0,1,4.63-.87,7.27,7.27,0,0,1,4,1.69,12.47,12.47,0,0,1,4,9A7.24,7.24,0,0,1,171.06,68,9.49,9.49,0,0,1,167.18,71Zm4.25-4.13A6.33,6.33,0,0,0,170,65.4a7.69,7.69,0,0,0-.64-5.54,7.77,7.77,0,0,0-3.65-4.14,6.09,6.09,0,0,0-5.16.26l-3.2,1.44,5.86,13.08Z"/><path class="cls-1" d="M171.83,49l10.52-3.72L183,47.2l-8.36,2.95L176.72,56l7.81-2.76.67,1.89-7.81,2.76,2.06,5.83,8.48-3,.68,1.91L178,66.36Z"/><path class="cls-1" d="M210.88,52.59a7.62,7.62,0,0,1-5.94,5.91,7.75,7.75,0,0,1-4.36-.2A7.84,7.84,0,0,1,197,55.72a11.34,11.34,0,0,1-2.12-4.65,11.36,11.36,0,0,1-.09-5.11,7.86,7.86,0,0,1,2.08-3.85,8.23,8.23,0,0,1,8.21-1.86,7.86,7.86,0,0,1,3.55,2.58,12.55,12.55,0,0,1,2.21,9.76ZM207,44.27a5.82,5.82,0,0,0-2.62-2,5.6,5.6,0,0,0-3.15-.16,5.54,5.54,0,0,0-2.76,1.5A5.73,5.73,0,0,0,197,46.54a9.3,9.3,0,0,0,.12,4,9.21,9.21,0,0,0,1.63,3.7,5.82,5.82,0,0,0,2.62,2,5.82,5.82,0,0,0,5.91-1.34A5.8,5.8,0,0,0,208.75,52a9.26,9.26,0,0,0-.12-4A9.21,9.21,0,0,0,207,44.27Z"/><path class="cls-1" d="M230.18,54.11l-2.16.28L216.3,41.45l-.18,0L218,55.69l-2.26.29-2.36-18.25,2.2-.29,11.72,13,.17,0-1.83-14.24,2.24-.29Z"/><path class="cls-1" d="M234.89,59.1l-1.88.12,1-7,2.47-.15Z"/><path class="cls-1" d="M261.29,53.81l-2.19-.08-9.49-14.66h-.17L249,53.4l-2.28-.08.6-18.39,2.21.07L259,49.69h.18l.47-14.36,2.26.08Z"/><path class="cls-1" d="M279.81,51.78a7.87,7.87,0,0,1-3.29,2.9A7.82,7.82,0,0,1,265.74,50a11.29,11.29,0,0,1-.4-5.09A11.44,11.44,0,0,1,267,40a7.82,7.82,0,0,1,14.07,1.81,11.34,11.34,0,0,1,.4,5.1A11.31,11.31,0,0,1,279.81,51.78ZM279,42.63a5.71,5.71,0,0,0-1.78-2.75,5.47,5.47,0,0,0-2.89-1.23,5.57,5.57,0,0,0-3.12.45,5.76,5.76,0,0,0-2.42,2.22,10.45,10.45,0,0,0-1,7.87,5.76,5.76,0,0,0,1.78,2.75,5.46,5.46,0,0,0,2.9,1.23,5.55,5.55,0,0,0,3.11-.46A5.73,5.73,0,0,0,278,50.5a10.47,10.47,0,0,0,1-7.87Z"/><path class="cls-1" d="M297.66,44.8a5,5,0,0,0-1.49-1.71,6,6,0,0,0-2.14-1,5.47,5.47,0,0,0-3.14.17,5.68,5.68,0,0,0-2.62,2A10.49,10.49,0,0,0,286.53,52,5.81,5.81,0,0,0,288,54.93a5.57,5.57,0,0,0,2.77,1.5,5.79,5.79,0,0,0,2.34.06,4.93,4.93,0,0,0,2.07-.9,4.73,4.73,0,0,0,1.46-1.83l2.23.5a7.32,7.32,0,0,1-2,2.83,6.8,6.8,0,0,1-3,1.47,8.06,8.06,0,0,1-3.52-.05,7.75,7.75,0,0,1-3.85-2,7.88,7.88,0,0,1-2.09-3.85,11.5,11.5,0,0,1,.08-5.11,11.34,11.34,0,0,1,2.12-4.65,7.58,7.58,0,0,1,7.9-2.79,8,8,0,0,1,3.18,1.46,6.83,6.83,0,0,1,2.1,2.61,7.33,7.33,0,0,1,.63,3.46l-2.23-.5A4.74,4.74,0,0,0,297.66,44.8Z"/><path class="cls-1" d="M304.87,42.84,318.1,47,317.49,49,312,47.22l-4.94,15.61-2.2-.69,4.93-15.62-5.53-1.74Z"/><path class="cls-1" d="M335.32,53.92l-4.64,11.26A6.5,6.5,0,0,1,328.57,68a6.22,6.22,0,0,1-3.22,1.2,8.78,8.78,0,0,1-7-2.87A6.2,6.2,0,0,1,317,63.17a6.43,6.43,0,0,1,.46-3.46l4.64-11.26,2.12.87-4.57,11.1a4.71,4.71,0,0,0-.36,2.42,4.19,4.19,0,0,0,.94,2.16,6.07,6.07,0,0,0,4.8,2,4.24,4.24,0,0,0,2.19-.87,4.72,4.72,0,0,0,1.45-2l4.58-11.09Z"/><path class="cls-1" d="M340.07,56.18l5.56,2.87a7.79,7.79,0,0,1,2.79,2.24,4.68,4.68,0,0,1,.94,2.74,6.23,6.23,0,0,1-.75,2.93,5.88,5.88,0,0,1-2.24,2.47,4.84,4.84,0,0,1-3.18.55l.21,8.63L341,77.39l-.14-8.13-.4-.2-3.55-1.83-3.28,6.35-2-1Zm1.28,11a4.58,4.58,0,0,0,3.18.62,3.36,3.36,0,0,0,2.07-1.86,3.53,3.53,0,0,0,.35-2.84,4.39,4.39,0,0,0-2.34-2.28L341.17,59l-3.28,6.35Z"/><path class="cls-1" d="M357.63,87.49l-1.85-1.17L355,68.88l-.16-.1-7.65,12.13-1.94-1.23,9.83-15.56L357,65.3l.76,17.47.15.09,7.67-12.14,1.91,1.21Z"/><path class="cls-1" d="M359.31,88.63,375.85,78.1l1.92,1.47-5.84,18.71L370,96.81l1.68-5.24-5.87-4.49-4.62,3Zm13.06.92,2.68-8.32-.12-.09-7.33,4.77Z"/><path class="cls-1" d="M385.79,86l1.7,1.53L376.56,99.75l6.37,5.7L381.57,107l-8.07-7.23Z"/><path class="cls-1" d="M389.56,115.18,388,113.51l13.4-12.62,1.57,1.66Z"/><path class="cls-1" d="M401.54,129.12l-1.39-1.68,4.67-16.83-.12-.13-11,9.15-1.46-1.76,14.16-11.75,1.42,1.7-4.69,16.84.11.14,11.05-9.17,1.45,1.74Z"/><path class="cls-1" d="M421.64,131.07a3.5,3.5,0,0,0,0-1.73,5.77,5.77,0,0,0-.86-1.84,5.65,5.65,0,0,0-1.53-1.52,3.31,3.31,0,0,0-1.69-.55,2.55,2.55,0,0,0-1.57.47,2.18,2.18,0,0,0-1,2,8.22,8.22,0,0,0,.57,2.68l.62,1.79a10.52,10.52,0,0,1,.71,4,4,4,0,0,1-1.92,3.2,4.77,4.77,0,0,1-2.69.9,5.29,5.29,0,0,1-2.88-.8,9.55,9.55,0,0,1-4.05-5.73,5.33,5.33,0,0,1,.17-2.9,5.12,5.12,0,0,1,1.68-2.29l1.33,1.93a2.91,2.91,0,0,0-1,1.52,3.71,3.71,0,0,0,0,1.84,6,6,0,0,0,.9,1.89,5.92,5.92,0,0,0,1.63,1.64,3.7,3.7,0,0,0,1.86.65,2.79,2.79,0,0,0,1.76-.51,2.13,2.13,0,0,0,.89-1.2,3.49,3.49,0,0,0,.05-1.55,14.63,14.63,0,0,0-.52-2l-.79-2.21a8.05,8.05,0,0,1-.47-3.89,4,4,0,0,1,1.75-2.69,4.58,4.58,0,0,1,2.69-.84,5.38,5.38,0,0,1,2.79.83,7.54,7.54,0,0,1,2.37,2.28,7.4,7.4,0,0,1,1.27,3,5.39,5.39,0,0,1-.17,2.81,4.44,4.44,0,0,1-1.56,2.14l-1.28-1.84A2.87,2.87,0,0,0,421.64,131.07Z"/><path class="cls-1" d="M427.76,134.68l7,12-1.75,1-2.91-5-14.15,8.23-1.16-2,14.15-8.23-2.91-5Z"/><path class="cls-1" d="M421,160.47l-1-2,16.4-8.35,1,2Z"/><path class="cls-1" d="M428.63,177.22l-.87-2,9.2-14.84-.07-.16-13.16,5.69-.91-2.09,16.89-7.32.88,2-9.22,14.86.07.16,13.18-5.71.9,2.08Z"/><path class="cls-1" d="M447.49,187a4.84,4.84,0,0,0,.7-2.16,5.8,5.8,0,0,0-.27-2.32,5.57,5.57,0,0,0-1.76-2.61,5.74,5.74,0,0,0-3-1.24,9.41,9.41,0,0,0-4,.5,9.29,9.29,0,0,0-3.53,2,5.85,5.85,0,0,0-1.72,2.79,5.54,5.54,0,0,0,.14,3.14,5.75,5.75,0,0,0,1.14,2,4.82,4.82,0,0,0,1.84,1.31,4.61,4.61,0,0,0,2.32.32l.71,2.18a7.34,7.34,0,0,1-3.48-.31,6.79,6.79,0,0,1-2.8-1.83,8.19,8.19,0,0,1-1.76-3,7.6,7.6,0,0,1,2-8.13,12.5,12.5,0,0,1,9.5-3.12,7.83,7.83,0,0,1,4,1.72,7.72,7.72,0,0,1,2.41,3.64,7.88,7.88,0,0,1,.38,3.48,6.86,6.86,0,0,1-1.17,3.14,7.37,7.37,0,0,1-2.64,2.32l-.72-2.18A4.57,4.57,0,0,0,447.49,187Z"/><path class="cls-1" d="M452.88,192.19l3.19,13.51-2,.47-1.33-5.62-15.93,3.76-.53-2.25,15.93-3.76-1.33-5.64Z"/><path class="cls-1" d="M434.16,301.68l.53-2.12L451,293.38l.05-.17-13.91-3.49.55-2.22L455.57,292l-.54,2.14-16.36,6.18,0,.17L452.56,304l-.55,2.2Z"/><path class="cls-1" d="M432.26,307.39l.7-2.17,17.54,5.58-.7,2.18Z"/><path class="cls-1" d="M441.73,326.62a5.21,5.21,0,0,0,2.15-2.65,5.41,5.41,0,0,0,.32-3.09,5.8,5.8,0,0,0-1.56-2.87,10.6,10.6,0,0,0-7.37-2.93,5.77,5.77,0,0,0-3.12,1.06,6,6,0,0,0-2.33,5.34,4.63,4.63,0,0,0,1.05,2.42,5.88,5.88,0,0,0,2.36,1.68l1.77-4.46,1.87.74-2.6,6.54-1.85-.73a7.78,7.78,0,0,1-3.31-2.36,6.63,6.63,0,0,1-1.45-3.45,8.68,8.68,0,0,1,3.23-7.53,7.6,7.6,0,0,1,4.13-1.46,11.43,11.43,0,0,1,5,.9,11.63,11.63,0,0,1,4.27,2.8,7.79,7.79,0,0,1,2,3.87,7.69,7.69,0,0,1-.47,4.31,8.19,8.19,0,0,1-2,3,7.22,7.22,0,0,1-2.95,1.68,7.34,7.34,0,0,1-3.43.15l.88-2.2A5.78,5.78,0,0,0,441.73,326.62Z"/><path class="cls-1" d="M441,336l-1,2-7.34-3.65-4.33,8.72,7.33,3.65-1,2.07-16.48-8.19,1-2.07,7.35,3.65,4.34-8.72-7.36-3.65,1-2.05Z"/><path class="cls-1" d="M432.58,352.46l-7.22,11.86-1.74-1.06,3-4.93-14-8.52,1.2-2,14,8.52,3-4.95Z"/><path class="cls-1" d="M409,380.31a4.87,4.87,0,0,0,2.19-.61,5.69,5.69,0,0,0,1.77-1.52,5.54,5.54,0,0,0,1.21-2.91,5.89,5.89,0,0,0-.66-3.21,10.53,10.53,0,0,0-6.24-4.9,5.76,5.76,0,0,0-3.28.11,5.57,5.57,0,0,0-2.54,1.86,5.79,5.79,0,0,0-1.06,2.08,4.93,4.93,0,0,0-.08,2.26,4.68,4.68,0,0,0,1,2.1l-1.41,1.8a7.36,7.36,0,0,1-1.68-3.06,7,7,0,0,1,0-3.35,8.17,8.17,0,0,1,1.56-3.15,7.61,7.61,0,0,1,7.89-2.82,11.14,11.14,0,0,1,4.57,2.27,11.27,11.27,0,0,1,3.29,3.91,7.6,7.6,0,0,1-.88,8.33,8.12,8.12,0,0,1-2.69,2.25,7,7,0,0,1-3.26.76,7.3,7.3,0,0,1-3.39-.91l1.41-1.8A4.69,4.69,0,0,0,409,380.31Z"/><path class="cls-1" d="M394.56,374.72l8.8,17.52L401.7,394l-18-7.7,1.66-1.76,5,2.21,5.07-5.39-2.52-4.9Zm-2.25,12.89,8,3.52.1-.11-4-7.78Z"/><path class="cls-1" d="M396.85,399.09l-10.21,9.41-1.37-1.5,4.24-3.91-11.1-12,1.71-1.57,11.09,12,4.26-3.93Z"/><path class="cls-1" d="M375.69,417.31l-13.82-8.79-.18.13,3.69,16-2.24,1.58-10.64-15,1.77-1.25,8,11.35.15-.1-3.37-14.66,1.66-1.17,12.71,8,.12-.09-8-11.35,1.77-1.24,10.63,15Z"/><path class="cls-1" d="M338.85,423.79a7.91,7.91,0,0,1,.9-4.29,7.81,7.81,0,0,1,11.46-2.67,12.47,12.47,0,0,1,4.91,8.72,7.82,7.82,0,0,1-12.36,7,12.57,12.57,0,0,1-4.91-8.72Zm6.1,6.86A5.77,5.77,0,0,0,348,431.8a5.86,5.86,0,0,0,5.29-3,5.86,5.86,0,0,0,.61-3.22,10.5,10.5,0,0,0-3.89-6.91,5.73,5.73,0,0,0-3.08-1.14,5.79,5.79,0,0,0-5.28,3,5.78,5.78,0,0,0-.62,3.22,9.26,9.26,0,0,0,1.28,3.84A9.16,9.16,0,0,0,345,430.65Z"/><path class="cls-1" d="M333.24,421.91l7.53,16.8-5.43,2.43a9,9,0,0,1-4.63.87,7.18,7.18,0,0,1-4-1.68,12.37,12.37,0,0,1-4-9,7.21,7.21,0,0,1,1.44-4.13,9.63,9.63,0,0,1,3.87-2.95ZM329,426a6.4,6.4,0,0,0-3.8,3.77,9.25,9.25,0,0,0,4.3,9.67,6,6,0,0,0,5.16-.26l3.2-1.43L332,424.7Z"/><path class="cls-1" d="M323.38,446.2l-10.53,3.72-.67-1.92,8.36-2.95-2.05-5.8L310.68,442l-.67-1.89,7.81-2.77-2.06-5.82-8.48,3-.68-1.92,10.64-3.76Z"/><path class="cls-1" d="M284.33,442.62a7.59,7.59,0,0,1,5.93-5.91,7.65,7.65,0,0,1,4.36.2,7.86,7.86,0,0,1,3.55,2.58,11.24,11.24,0,0,1,2.12,4.64,11.36,11.36,0,0,1,.09,5.11,7.91,7.91,0,0,1-2.09,3.86,7.8,7.8,0,0,1-3.85,2.06,7.66,7.66,0,0,1-7.9-2.78,12.55,12.55,0,0,1-2.21-9.76Zm3.88,8.32a5.8,5.8,0,0,0,2.62,2,5.47,5.47,0,0,0,3.14.16,5.57,5.57,0,0,0,2.77-1.5,5.73,5.73,0,0,0,1.51-2.91,10.56,10.56,0,0,0-1.75-7.74,5.87,5.87,0,0,0-2.62-2,5.48,5.48,0,0,0-3.14-.16,5.57,5.57,0,0,0-2.77,1.5,5.82,5.82,0,0,0-1.52,2.91,9.47,9.47,0,0,0,.13,4A9.27,9.27,0,0,0,288.21,450.94Z"/><path class="cls-1" d="M265,441.09l2.17-.28,11.72,12.95.18,0-1.84-14.22,2.27-.29,2.36,18.26-2.2.28-11.72-13-.17,0,1.83,14.25-2.24.29Z"/><path class="cls-1" d="M260.32,436.1l1.88-.12-1,7-2.46.16Z"/><path class="cls-1" d="M233.92,441.4l2.18.07,9.49,14.66h.18l.47-14.33,2.29.07-.61,18.4-2.21-.08-9.49-14.68h-.17l-.47,14.36-2.27-.07Z"/><path class="cls-1" d="M215.4,443.43a7.74,7.74,0,0,1,3.29-2.9,7.81,7.81,0,0,1,10.78,4.71,12.44,12.44,0,0,1-1.28,9.92,7.83,7.83,0,0,1-14.07-1.81,12.56,12.56,0,0,1,1.28-9.92Zm.79,9.14a5.8,5.8,0,0,0,1.77,2.76,5.66,5.66,0,0,0,2.9,1.23,5.57,5.57,0,0,0,3.12-.46,5.85,5.85,0,0,0,2.42-2.21,10.59,10.59,0,0,0,1-7.87,5.74,5.74,0,0,0-1.78-2.75,5.79,5.79,0,0,0-6-.78,5.79,5.79,0,0,0-2.42,2.21,9.26,9.26,0,0,0-1.28,3.84A9.09,9.09,0,0,0,216.19,452.57Z"/><path class="cls-1" d="M197.55,450.4a4.81,4.81,0,0,0,1.49,1.71,5.76,5.76,0,0,0,2.14.95,5.47,5.47,0,0,0,3.14-.16,5.82,5.82,0,0,0,2.62-2,10.49,10.49,0,0,0,1.74-7.74,5.74,5.74,0,0,0-1.52-2.91,5.44,5.44,0,0,0-2.77-1.49,5.92,5.92,0,0,0-2.33-.07,4.82,4.82,0,0,0-2.07.91,4.7,4.7,0,0,0-1.46,1.82l-2.23-.5a7.29,7.29,0,0,1,2-2.83,6.9,6.9,0,0,1,3-1.47,8.17,8.17,0,0,1,3.51.05,7.74,7.74,0,0,1,3.85,2.05,7.83,7.83,0,0,1,2.09,3.86,12.56,12.56,0,0,1-2.19,9.76,7.62,7.62,0,0,1-7.9,2.79,8.14,8.14,0,0,1-3.18-1.46,6.86,6.86,0,0,1-2.1-2.62,7.3,7.3,0,0,1-.63-3.46l2.23.51A4.59,4.59,0,0,0,197.55,450.4Z"/><path class="cls-1" d="M190.34,452.37l-13.23-4.19.61-1.94,5.5,1.74,4.93-15.61,2.21.7-4.93,15.61,5.52,1.75Z"/><path class="cls-1" d="M159.89,441.29,164.53,430a6.44,6.44,0,0,1,2.11-2.78,6.15,6.15,0,0,1,3.22-1.21,8.83,8.83,0,0,1,6.95,2.87,6.21,6.21,0,0,1,1.44,3.12,6.43,6.43,0,0,1-.47,3.46l-4.64,11.26-2.11-.87,4.57-11.09a4.75,4.75,0,0,0,.36-2.43,4.06,4.06,0,0,0-1-2.15,6,6,0,0,0-4.8-2,4.14,4.14,0,0,0-2.18.86,4.67,4.67,0,0,0-1.45,2L162,442.16Z"/><path class="cls-1" d="M155.13,439l-5.55-2.87a7.54,7.54,0,0,1-2.79-2.25,4.65,4.65,0,0,1-.94-2.73,6,6,0,0,1,.75-2.94,5.73,5.73,0,0,1,2.24-2.46,4.75,4.75,0,0,1,3.17-.55l-.2-8.63,2.37,1.22.14,8.13.4.19,3.55,1.83,3.27-6.35,2,1.05Zm-1.27-11a4.47,4.47,0,0,0-3.18-.62,3.33,3.33,0,0,0-2.07,1.86,3.51,3.51,0,0,0-.35,2.83,4.37,4.37,0,0,0,2.34,2.29l3.43,1.77,3.28-6.35Z"/><path class="cls-1" d="M137.58,407.72l1.84,1.16.77,17.45.15.09L148,414.3l1.94,1.22-9.83,15.57-1.87-1.19-.76-17.46-.15-.1-7.67,12.15-1.91-1.21Z"/><path class="cls-1" d="M135.89,406.58l-16.53,10.53-1.92-1.47,5.83-18.71,1.92,1.46-1.69,5.24,5.88,4.5,4.62-3Zm-13-.93L120.16,414l.12.09,7.33-4.76Z"/><path class="cls-1" d="M109.42,409.17l-1.71-1.52,10.93-12.2-6.36-5.7,1.36-1.51,8.06,7.23Z"/><path class="cls-1" d="M105.65,380l1.56,1.66L93.82,394.32l-1.57-1.67Z"/><path class="cls-1" d="M93.66,366.08l1.4,1.68-4.67,16.83.11.14,11-9.16,1.46,1.76L88.83,389.08l-1.41-1.7,4.69-16.84L92,370.4l-11.06,9.18-1.44-1.75Z"/><path class="cls-1" d="M73.57,364.14a3.5,3.5,0,0,0,0,1.73A6,6,0,0,0,76,369.22a3.21,3.21,0,0,0,1.69.56,2.56,2.56,0,0,0,1.57-.48,2.17,2.17,0,0,0,1-2,8.22,8.22,0,0,0-.57-2.67l-.62-1.8a10.25,10.25,0,0,1-.71-4,4,4,0,0,1,1.91-3.21,5,5,0,0,1,2.7-.9,5.38,5.38,0,0,1,2.88.8,9.62,9.62,0,0,1,4,5.73,5.42,5.42,0,0,1-.17,2.9A5.07,5.07,0,0,1,88,366.51l-1.33-1.92a3,3,0,0,0,1-1.53,3.71,3.71,0,0,0,0-1.84,6.6,6.6,0,0,0-2.54-3.53,3.62,3.62,0,0,0-1.86-.64,2.77,2.77,0,0,0-1.75.51,2.13,2.13,0,0,0-.89,1.2,3.49,3.49,0,0,0,0,1.55,13.18,13.18,0,0,0,.52,2l.79,2.21a8.2,8.2,0,0,1,.47,3.89,3.94,3.94,0,0,1-1.76,2.69,4.47,4.47,0,0,1-2.68.85,5.47,5.47,0,0,1-2.79-.83,7.77,7.77,0,0,1-2.37-2.28,7.63,7.63,0,0,1-1.28-2.95,5.54,5.54,0,0,1,.18-2.82,4.37,4.37,0,0,1,1.56-2.13l1.28,1.84A2.83,2.83,0,0,0,73.57,364.14Z"/><path class="cls-1" d="M67.45,360.53l-7-12,1.76-1,2.9,5,14.16-8.23,1.16,2-14.16,8.23,2.92,5Z"/><path class="cls-1" d="M74.17,334.73l1,2L58.8,345.13l-1-2Z"/><path class="cls-1" d="M66.58,318l.87,2-9.2,14.84.07.17,13.16-5.7.91,2.1-16.9,7.31-.88-2,9.23-14.85-.07-.16-13.19,5.7-.89-2.07Z"/><path class="cls-1" d="M47.72,308.21a4.85,4.85,0,0,0-.71,2.16,6,6,0,0,0,.28,2.32,5.58,5.58,0,0,0,1.76,2.62,5.82,5.82,0,0,0,3,1.23,10.52,10.52,0,0,0,7.54-2.47,5.79,5.79,0,0,0,1.72-2.79,5.56,5.56,0,0,0-.13-3.15,5.87,5.87,0,0,0-1.14-2,4.79,4.79,0,0,0-4.16-1.64l-.71-2.17a7.23,7.23,0,0,1,3.48.3,7,7,0,0,1,2.8,1.83,8.23,8.23,0,0,1,1.76,3.05,7.73,7.73,0,0,1,.21,4.35,7.81,7.81,0,0,1-2.24,3.77,12.5,12.5,0,0,1-9.5,3.12,7.94,7.94,0,0,1-4-1.71,7.79,7.79,0,0,1-2.41-3.64,8.22,8.22,0,0,1-.38-3.48,6.91,6.91,0,0,1,1.18-3.14,7.29,7.29,0,0,1,2.64-2.32l.71,2.17A4.7,4.7,0,0,0,47.72,308.21Z"/><path class="cls-1" d="M42.33,303,39.14,289.5l2-.47,1.32,5.62,15.94-3.76.53,2.25L43,296.9l1.33,5.64Z"/><polyline class="cls-1" points="148.88 184.05 148.88 141.1 187.69 156.1"/><polyline class="cls-1" points="346.33 184.05 346.33 141.1 307.52 156.1"/><path class="cls-1" d="M361.1,209.82v-6.58H133.92v6.58H146v11.64H133.92V228H146v35.45a47.58,47.58,0,0,0,.4,6.38,52.36,52.36,0,0,0,74.89,40.72,47.29,47.29,0,0,0,6-3.42l-4.73-4.49-.17-.16a2.64,2.64,0,0,1-.61-2.24,2.58,2.58,0,0,1,1.6-1.94l8.29-3.39,11.87-4.85a49.63,49.63,0,0,0,3.35-6.73c.24-.54.45-1.08.65-1.62A52.38,52.38,0,0,0,349,263.49V228h12.1v-6.58H349V209.82ZM220.87,292.24a9.19,9.19,0,0,0-4.37,13.32,45.76,45.76,0,0,1-58.76-21l0,0a26.7,26.7,0,0,0,45-19.42V209.83h41.48v53.66a45.48,45.48,0,0,1-5.33,21.4Zm121.55-28.75a45.81,45.81,0,0,1-86.52,21v0h0a26.7,26.7,0,0,0,45-19.41V209.83h41.48Z"/><path class="cls-1" d="M269.45,319.59a16.31,16.31,0,0,0-9.56-3.07h-.1l0,6.57a11.15,11.15,0,0,1,2.69.37,46.83,46.83,0,0,1-39.73-.6l-2.87,5.93a53.59,53.59,0,0,0,21.54,5.35l1.82,0A54.19,54.19,0,0,0,268.22,328a11.26,11.26,0,0,1,1.27,4.43l6.57-.33A16.85,16.85,0,0,0,269.45,319.59Z"/><path class="cls-1" d="M453.15,260.15a12.12,12.12,0,0,0-12.88-12.21,12.12,12.12,0,0,0,12.2-12.88,12.12,12.12,0,0,0,12.88,12.2,12.13,12.13,0,0,0-12.2,12.89Z"/><path class="cls-1" d="M42.05,260.15a12.13,12.13,0,0,1,12.89-12.21,12.1,12.1,0,0,1-12.2-12.88,12.12,12.12,0,0,1-12.89,12.2,12.12,12.12,0,0,1,12.2,12.89Z"/></svg>