<?xml version="1.0" encoding="UTF-8"?>
<svg id="Layer_1" data-name="Layer 1" xmlns="http://www.w3.org/2000/svg" xmlns:xlink="http://www.w3.org/1999/xlink" viewBox="0 0 1095.13 1252.87">
  <defs>
    <style>
      .cls-1 {
        fill: #fff;
        filter: url(#drop-shadow-1);
      }

      .cls-2 {
        fill: #0b0506;
      }

      .cls-3 {
        fill: #90908f;
      }

      .cls-4 {
        fill: #050303;
      }
    </style>
    <filter id="drop-shadow-1" x="24.94" y="32.73" width="1046" height="1194" filterUnits="userSpaceOnUse">
      <feOffset dx="0" dy="2.83"/>
      <feGaussianBlur result="blur" stdDeviation="2.27"/>
      <feFlood flood-color="#000" flood-opacity=".4"/>
      <feComposite in2="blur" operator="in"/>
      <feComposite in="SourceGraphic"/>
    </filter>
  </defs>
  <path class="cls-1" d="M977.84,332.04c46.97,0,85.04-38.07,85.04-85.04v-39.58c0-43.4-32.52-79.18-74.52-84.37-1.75-8.66-4.81-16.85-8.98-24.34-10.39-35.24-42.98-60.96-81.58-60.96h-7.17l-729.04-.87c-7.98,0-15.83,1.12-23.34,3.26-15.69,4.48-30.8,13.02-44.46,21.86-13.91,8.99-26.76,19.8-35.13,34.31l-14.34,24.84c-3.97,6.88-6.92,14.2-8.82,21.74-2.14,7.51-3.27,15.36-3.27,23.34v29c0,.35,0,.71,0,1.06,0,.35,0,.7,0,1.06v27.68c0,.35,0,.7,0,1.06,0,.35,0,.7,0,1.06v27.68c0,.35,0,.7,0,1.06,0,.35,0,.7,0,1.06v27.68c0,.35,0,.7,0,1.06,0,.35,0,.7,0,1.06v42.04c0,4.91.42,9.78,1.25,14.54.69,4.77,1.78,9.5,3.29,14.15l12.94,39.81c1.52,4.68,3.43,9.17,5.69,13.46,2.12,4.31,4.62,8.47,7.49,12.42l24.6,33.86c2.83,3.9,5.97,7.51,9.36,10.83,3.41,3.53,7.15,6.79,11.18,9.72l32.08,23.31c.28.21.57.41.86.61.28.21.57.42.86.63l22.38,16.26c.34.25.68.49,1.03.73.23.17.46.34.68.5l22.4,16.28c.3.22.61.44.91.65.26.2.53.39.8.58l22.4,16.28c.31.22.61.44.92.66.26.19.52.38.78.58l22.4,16.28c.29.21.58.42.88.63.28.21.56.41.84.62l22.39,16.27c.29.21.59.42.88.63.27.2.55.41.83.61l22.4,16.28c.27.2.55.4.83.59.29.22.58.43.87.64l22.42,16.29c.26.19.53.38.79.57.3.22.6.44.9.66l22.4,16.27c.26.19.53.38.8.57.3.23.61.45.92.68l22.38,16.26c.28.21.57.41.85.61.29.21.58.43.87.64l22.39,16.27c.26.19.52.38.78.56.31.23.62.46.93.69l22.39,16.26c.26.19.53.38.79.57.31.23.61.45.92.68l22.37,16.25c.32.23.64.46.96.69.25.19.51.38.77.56l22.39,16.27c.3.22.6.44.91.65.27.2.53.4.8.59l22.4,16.28c.3.22.6.43.9.65.27.2.53.39.8.59l22.4,16.28c.28.21.57.41.86.61.28.21.56.42.85.63l22.38,16.26c.35.25.7.5,1.05.75.22.16.44.33.66.49l22.4,16.28c.31.23.62.45.93.67.26.19.52.38.78.57l22.42,16.29c.26.19.53.38.79.57.3.22.59.44.89.66l22.42,16.28c.26.19.52.38.78.56.3.23.61.45.91.67l22.4,16.28c.28.2.56.41.85.61.28.21.57.42.85.63l22.41,16.28c.28.2.56.41.84.61.29.21.57.43.86.64l22.4,16.27c.28.2.55.4.83.6.29.21.58.43.87.64l21.04,15.29c6.02,4.37,11.31,9.66,15.68,15.68h0c4.37,6.02,7.77,12.69,10.07,19.77h0c2.3,7.08,3.47,14.47,3.47,21.91v.02c0,7.44-1.17,14.83-3.47,21.9h0c-2.3,7.09-5.7,13.75-10.07,19.77h0c-4.37,6.02-9.66,11.31-15.68,15.68h-.02c-6.02,4.39-12.69,7.78-19.76,10.08h0c-7.07,2.3-14.46,3.47-21.9,3.47h-.02c-7.44,0-14.83-1.17-21.9-3.47h0c-7.07-2.3-13.74-5.7-19.76-10.07l-21.05-15.29c-.29-.21-.59-.43-.88-.63-.28-.21-.55-.41-.83-.61l-22.4-16.27c-.26-.19-.53-.38-.79-.57-.3-.22-.6-.45-.91-.67l-22.4-16.27c-.28-.2-.56-.41-.85-.61-.28-.21-.56-.42-.85-.63l-22.42-16.29c-.26-.19-.53-.38-.8-.57-.3-.22-.6-.44-.9-.66l-22.4-16.27c-.27-.2-.54-.39-.81-.58-.3-.23-.61-.45-.91-.67l-22.37-16.25c-.28-.21-.57-.41-.86-.61-.29-.21-.58-.43-.87-.64l-22.4-16.27c-.26-.19-.53-.38-.79-.57-.3-.22-.6-.44-.9-.66l-22.41-16.28c-.28-.21-.57-.41-.86-.62-.28-.21-.56-.41-.84-.62l-22.41-16.28c-.3-.22-.6-.43-.9-.65-.27-.2-.53-.4-.8-.59l-22.39-16.27c-18.27-13.28-41.08-18.74-63.38-15.19l-1.35.21c-22.29,3.52-42.26,15.75-55.53,34l-7.52,10.34c-13.26,18.24-18.73,41.01-15.2,63.28l.31,1.91c3.62,22.11,15.81,41.9,33.94,55.07l22.4,16.27c.29.21.59.42.88.63.28.21.55.41.83.61l22.38,16.26c.31.23.62.45.94.67.26.19.52.38.78.57l22.4,16.28c.28.21.57.41.85.61.29.22.58.43.87.64l22.39,16.26c.28.21.57.41.85.61.28.21.56.42.85.62l22.39,16.27c.33.24.66.48.99.71.24.18.47.35.71.52l22.41,16.28c.27.19.53.38.8.58.3.22.6.45.91.67l22.4,16.27c.29.21.58.42.86.62.28.21.56.41.84.62l22.41,16.28c.25.18.51.37.76.55.31.23.62.46.93.69l22.42,16.29c.26.19.53.38.79.57.3.22.6.44.9.66l41.93,30.46c3.97,2.88,8.15,5.4,12.48,7.53,4.26,2.25,8.74,4.15,13.4,5.66l49.12,15.96c4.66,1.51,9.4,2.61,14.17,3.3,4.76.83,9.62,1.25,14.53,1.25h51.65c4.91,0,9.77-.42,14.53-1.25,4.77-.69,9.51-1.78,14.16-3.29l49.12-15.96c4.67-1.52,9.16-3.42,13.44-5.68,4.32-2.13,8.48-4.63,12.44-7.5l41.78-30.36c3.95-2.87,7.61-6.05,10.96-9.49,3.48-3.38,6.69-7.07,9.58-11.05l30.36-41.78c2.89-3.98,5.4-8.16,7.54-12.51,2.25-4.26,4.14-8.73,5.65-13.38l15.96-49.12c1.52-4.68,2.62-9.44,3.31-14.23.82-4.74,1.24-9.58,1.24-14.46v-51.65c0-4.88-.42-9.71-1.24-14.45-.69-4.8-1.79-9.56-3.31-14.24l-15.96-49.12c-1.51-4.66-3.42-9.15-5.67-13.42-2.13-4.33-4.64-8.5-7.52-12.47l-30.36-41.78c-2.89-3.98-6.1-7.67-9.57-11.04-3.36-3.45-7.02-6.63-10.98-9.51l-41.93-30.46c-.27-.2-.54-.39-.81-.58-.29-.22-.59-.44-.89-.66l-22.39-16.27c-.3-.22-.6-.43-.9-.65-.26-.19-.52-.39-.79-.58l-22.42-16.29c-.28-.2-.56-.4-.84-.6-.29-.21-.58-.43-.87-.64l-22.41-16.27c-.25-.18-.5-.36-.75-.54-.32-.24-.63-.47-.95-.7l-22.38-16.26c-.26-.19-.52-.38-.79-.56-.31-.23-.63-.47-.94-.7l-22.37-16.25c-.29-.21-.58-.42-.86-.62-.28-.21-.56-.42-.84-.62l-22.4-16.28c-.28-.21-.57-.41-.86-.61-.28-.21-.56-.42-.84-.62l-22.41-16.28c-.28-.21-.57-.41-.85-.61-.28-.21-.56-.42-.85-.62l-22.39-16.27c-.29-.21-.58-.42-.87-.62-.28-.21-.57-.42-.85-.63l-22.38-16.26c-.33-.24-.65-.47-.98-.7-.24-.18-.48-.36-.73-.54l-22.41-16.29c-.29-.21-.59-.43-.89-.64-.27-.2-.54-.4-.81-.6l-22.41-16.28c-.26-.19-.52-.38-.79-.57-.3-.22-.6-.45-.91-.67l-22.4-16.27c-.28-.2-.56-.4-.84-.6-.28-.21-.57-.42-.85-.63l-22.41-16.28c-.28-.2-.56-.4-.84-.6-.29-.21-.57-.43-.86-.64l-22.42-16.29c-.26-.19-.52-.37-.78-.56-.3-.23-.61-.45-.92-.68l-22.39-16.27c-.26-.19-.53-.38-.79-.57-.31-.23-.62-.46-.93-.68l-22.37-16.25c-.28-.21-.57-.41-.86-.61-.29-.21-.58-.43-.87-.64l-22.37-16.26c-.28-.21-.56-.41-.85-.61-.29-.22-.59-.44-.89-.65l-22.39-16.26c-.29-.21-.58-.42-.87-.62-.28-.21-.56-.41-.83-.61l-22.39-16.27c-.31-.22-.62-.44-.93-.66-.26-.2-.53-.39-.79-.58l-22.38-16.26c-.33-.24-.66-.48-.99-.71-.24-.18-.48-.35-.72-.53l-22.41-16.29c-.3-.22-.6-.43-.9-.64-.27-.2-.54-.4-.81-.59l-22.4-16.28c-.28-.21-.57-.41-.85-.61-.28-.21-.56-.42-.84-.62l-20.29-14.75-7.46-10.26-3.92-12.05v-27.45c0-.35,0-.7,0-1.06,0-.35,0-.7,0-1.06v-27.68c0-.35,0-.7,0-1.06,0-.35,0-.7,0-1.06v-27.68c0-.35,0-.7,0-1.06,0-.35,0-.7,0-1.06v-3.17h3.17c.35,0,.71,0,1.06,0,.35,0,.7,0,1.06,0h27.68c.35,0,.7,0,1.06,0,.35,0,.7,0,1.06,0h27.68c.35,0,.7,0,1.06,0,.35,0,.7,0,1.06,0h27.68c.35,0,.7,0,1.06,0,.35,0,.7,0,1.06,0h27.68c.35,0,.7,0,1.06,0,.35,0,.7,0,1.06,0h27.69c.35,0,.7,0,1.05,0,.35,0,.7,0,1.05,0h27.68c.35,0,.7,0,1.05,0,.35,0,.7,0,1.05,0h27.68c.35,0,.71,0,1.06,0,.35,0,.7,0,1.06,0h21.13c-1.88,8.86-2.37,18.02-1.36,27.13l.92,31.01c-.03.97-.04,1.94-.04,2.91,0,26.56,9.09,50.97,26.29,70.61,19.81,22.69,47.35,35.18,77.58,35.18,2.78,0,5.54-.11,8.28-.32,8.96-.69,17.94-1.11,26.93-1.08l119.08.39h7.4c36.3,0,67.28-22.76,79.48-54.78,1.85.09,3.72.14,5.6.14l175.48-1.01Z"/>
  <g>
    <path class="cls-2" d="M553.71,136.61v-9.42h-7.17v9.42c0,10.45-5.56,20.46-13.51,24.35l-.51.25,4.49,5.67.34-.17c5.68-2.92,10.21-8.64,12.84-16.16,2.57,7.06,7.02,12.44,12.65,15.26l.35.17,4.23-5.75-.51-.23c-7.89-3.66-13.2-13.06-13.2-23.39"/>
    <polygon class="cls-2" points="571.96 140.53 560.36 140.53 560.36 146.5 571.96 146.5 571.96 178.06 579.13 178.06 579.13 122.68 571.96 122.68 571.96 140.53"/>
    <path class="cls-2" d="M611.62,143.02c12.59,0,19.81-3.58,19.81-9.84s-7.22-9.83-19.81-9.83-19.81,3.59-19.81,9.83,7.22,9.84,19.81,9.84M611.62,128.89c8.04,0,12.46,1.52,12.46,4.29s-4.43,4.29-12.46,4.29-12.46-1.52-12.46-4.29,4.43-4.29,12.46-4.29"/>
    <polygon class="cls-2" points="586.58 150.89 607.97 150.89 607.97 154.36 592.41 154.36 592.41 159.97 623.48 159.97 623.48 162.95 592.53 162.95 592.53 177.51 632.03 177.51 632.03 171.84 599.57 171.84 599.57 168.26 630.47 168.26 630.47 154.36 615.14 154.36 615.14 150.89 636.6 150.89 636.6 145.04 586.58 145.04 586.58 150.89"/>
    <path class="cls-2" d="M661.07,136.67v-9.36h-7.11v9.36c0,10.6-5.77,20.61-14.03,24.34l-.51.23,4.22,5.94.35-.17c6.13-2.98,10.94-8.81,13.64-16.5,2.67,7.03,7.45,12.56,13.25,15.3l.34.16,4.17-5.69-.52-.23c-8.12-3.66-13.8-13.28-13.8-23.38"/>
    <rect class="cls-2" x="678.55" y="122.74" width="7.17" height="55.37"/>
    <rect class="cls-2" x="732.17" y="122.8" width="7.11" height="30.91"/>
    <path class="cls-2" d="M728.22,150.99l-.85-5.96-.46.08c-7.91,1.33-14.63,1.61-23.45,1.62v-5.09h18.57v-16.3h-25.74v5.97h18.75v4.73h-18.63v16.67h5.03c10.57,0,17.89-.26,26.34-1.63l.44-.07Z"/>
    <path class="cls-2" d="M732.23,160.91h-22.34v-5.59h-7.11v22.02h36.5v-22.02h-7.05v5.59ZM732.23,171.42h-22.34v-4.73h22.34v4.73Z"/>
    <path class="cls-2" d="M750.03,164.71h26.4v-36.8h-26.4v36.8ZM757.02,133.76h12.42v25.04h-12.42v-25.04Z"/>
    <rect class="cls-2" x="785.55" y="122.74" width="7.17" height="55.37"/>
    <path class="cls-2" d="M805.79,142.77c8.98-1.08,16.16-4.65,19.84-9.86,3.68,5.2,10.86,8.78,19.84,9.86l.34.04,2.5-5.64-.63-.06c-10.49-1.04-18.4-6.22-18.4-12.04v-2.02h-7.29v2.02c0,5.82-7.91,11-18.4,12.04l-.63.06,2.5,5.64.34-.04Z"/>
    <polygon class="cls-2" points="800.59 150.65 821.99 150.65 821.99 154.3 806.42 154.3 806.42 159.9 837.49 159.9 837.49 163.01 806.54 163.01 806.54 177.51 846.04 177.51 846.04 171.84 813.59 171.84 813.59 168.32 844.48 168.32 844.48 154.3 829.15 154.3 829.15 150.65 850.67 150.65 850.67 144.8 800.59 144.8 800.59 150.65"/>
    <polygon class="cls-2" points="897.8 139.99 897.8 122.8 890.64 122.8 890.64 164.47 897.8 164.47 897.8 146.02 905.02 146.02 905.02 139.99 897.8 139.99"/>
    <path class="cls-2" d="M876.76,145.78l-.09.49,6.98.76.08-.42c1.33-7.07,1.33-12.52,1.33-16.13v-3.58h-28.21v5.97h21.21c-.07,3.5-.3,7.51-1.3,12.92"/>
    <path class="cls-2" d="M888.71,154.11l-.51-5.42-.48.07c-5.39.85-11.23,1.2-16.29,1.42v-10.92h-7.05v11.13c-3.68.1-7.22.1-10.36.1h-.52l.78,5.97h.41c8.82,0,21.91-.24,33.61-2.29l.42-.07Z"/>
    <polygon class="cls-2" points="868.89 159.95 861.73 159.95 861.73 176.97 899.55 176.97 899.55 171 868.89 171 868.89 159.95"/>
    <path class="cls-3" d="M565.64,243.92c-4.77,4.04-11.15,4.09-12.95,4.09-2.35,0-9.92-.11-15.42-5.89-.67-.73-1.4-1.68-1.9-2.58l6.22-4.32c1.74,2.58,4.99,5.94,12.28,5.94.34,0,1.74,0,2.91-.28.84-.17,4.71-1.24,4.71-4.93,0-.39-.05-1.46-.73-2.35-1.35-1.79-4.93-2.3-6.89-2.75l-4.71-1.07c-2.02-.45-4.2-.9-6-1.85-1.85-.96-5.66-3.48-5.66-9.19,0-.9.11-3.48,1.51-5.83,1.79-3.03,6.11-6.5,14.13-6.5,3.53,0,10.48.56,15.97,8.02l-6.11,4.54c-1.23-1.96-4.03-5.89-10.26-5.89-.39,0-5.38-.05-7.01,3.03-.34.62-.45,1.17-.45,1.79,0,.67.17,1.23.51,1.79.95,1.62,3.14,2.13,6.78,2.91l4.09.9c3.76.84,7.91,1.96,10.54,5.05,1.12,1.23,2.3,3.02,2.3,6.67s-1.12,6.33-3.87,8.69"/>
    <polygon class="cls-3" points="575.94 247 575.94 207.43 604.08 207.43 604.08 214.04 583.23 214.04 583.23 223.35 602.35 223.35 602.35 229.74 583.23 229.74 583.23 240.33 605.48 240.33 605.48 247 575.94 247"/>
    <path class="cls-3" d="M641.86,242.35c-.9.95-3.19,3.25-6.73,4.54-1.23.45-3.53,1.12-6.89,1.12-5.6,0-9.87-1.85-13.57-6.11-3.7-4.2-5.27-9.14-5.27-14.63,0-1.29.05-4.32,1.18-7.68,2.58-7.91,9.36-13.17,17.83-13.17,7.62,0,12.16,4.14,14.01,6.27,2.07,2.36,4.99,6.95,4.94,14.52,0,2.47-.28,9.48-5.49,15.14M637.54,218.42c-2.07-3.36-5.21-5.21-9.19-5.21-2.47,0-4.26.79-5.05,1.18-2.8,1.51-6.28,5.21-6.28,12.61,0,1.51.06,8.8,5.61,12.44,2.41,1.57,4.82,1.68,5.83,1.68.79,0,2.58-.05,4.54-.95,2.91-1.35,6.72-4.71,6.89-12.17.06-3.25-.56-6.73-2.36-9.59"/>
    <path class="cls-3" d="M685.74,238.93c-1.29,3.98-5.83,9.08-15.53,9.08-4.65,0-9.3-1.12-12.56-4.71-.51-.5-1.85-2.13-2.52-4.26-.62-2.02-.62-3.87-.62-8.07v-23.54h7.45v24.33c0,2.35,0,3.19.39,4.37.73,2.36,2.86,4.71,8.13,4.71.95,0,6.39,0,8.02-4.48.45-1.29.5-2.36.5-4.99v-23.94h7.4v22.82c0,4.54.05,6.44-.67,8.69"/>
    <polygon class="cls-3" points="695.6 247 695.6 207.43 703.05 207.43 703.05 240.28 718.75 240.28 718.75 247 695.6 247"/>
    <polygon class="cls-3" points="770.42 247 771.15 214.49 762.58 247 755.91 247 747.33 214.49 748.06 247 740.83 247 740.83 207.43 751.59 207.43 759.32 236.8 766.95 207.43 777.65 207.43 777.65 247 770.42 247"/>
    <path class="cls-3" d="M817.89,238.93c-1.29,3.98-5.83,9.08-15.53,9.08-4.65,0-9.3-1.12-12.56-4.71-.51-.5-1.85-2.13-2.52-4.26-.62-2.02-.62-3.87-.62-8.07v-23.54h7.45v24.33c0,2.35,0,3.19.39,4.37.73,2.36,2.86,4.71,8.13,4.71.95,0,6.39,0,8.02-4.48.45-1.29.5-2.36.5-4.99v-23.94h7.4v22.82c0,4.54.05,6.44-.67,8.69"/>
    <path class="cls-3" d="M854.71,243.92c-4.76,4.04-11.15,4.09-12.95,4.09-2.35,0-9.92-.11-15.42-5.89-.67-.73-1.4-1.68-1.9-2.58l6.22-4.32c1.74,2.58,4.99,5.94,12.28,5.94.33,0,1.74,0,2.91-.28.84-.17,4.71-1.24,4.71-4.93,0-.39-.06-1.46-.73-2.35-1.34-1.79-4.93-2.3-6.89-2.75l-4.71-1.07c-2.02-.45-4.2-.9-6-1.85-1.85-.96-5.66-3.48-5.66-9.19,0-.9.11-3.48,1.51-5.83,1.8-3.03,6.11-6.5,14.13-6.5,3.53,0,10.48.56,15.98,8.02l-6.11,4.54c-1.23-1.96-4.03-5.89-10.26-5.89-.39,0-5.38-.05-7.01,3.03-.34.62-.45,1.17-.45,1.79,0,.67.17,1.23.5,1.79.95,1.62,3.14,2.13,6.78,2.91l4.1.9c3.76.84,7.9,1.96,10.54,5.05,1.12,1.23,2.3,3.02,2.3,6.67s-1.12,6.33-3.87,8.69"/>
    <polygon class="cls-3" points="865.02 247 865.02 207.43 893.16 207.43 893.16 214.04 872.31 214.04 872.31 223.35 891.42 223.35 891.42 229.74 872.31 229.74 872.31 240.33 894.56 240.33 894.56 247 865.02 247"/>
    <path class="cls-3" d="M931.5,238.93c-1.29,3.98-5.83,9.08-15.53,9.08-4.65,0-9.3-1.12-12.56-4.71-.51-.5-1.85-2.13-2.52-4.26-.62-2.02-.62-3.87-.62-8.07v-23.54h7.45v24.33c0,2.35,0,3.19.4,4.37.73,2.36,2.86,4.71,8.13,4.71.95,0,6.39,0,8.02-4.48.45-1.29.5-2.36.5-4.99v-23.94h7.4v22.82c0,4.54.05,6.44-.67,8.69"/>
    <polygon class="cls-3" points="970.61 247 971.34 214.49 962.76 247 956.09 247 947.52 214.49 948.24 247 941.01 247 941.01 207.43 951.78 207.43 959.51 236.8 967.14 207.43 977.84 207.43 977.84 247 970.61 247"/>
    <path class="cls-3" d="M569.22,298c-.9.95-3.19,3.25-6.73,4.54-1.23.45-3.53,1.12-6.89,1.12-5.6,0-9.87-1.85-13.57-6.11-3.7-4.2-5.27-9.14-5.27-14.63,0-1.29.05-4.32,1.18-7.68,2.58-7.9,9.36-13.17,17.83-13.17,7.62,0,12.16,4.14,14.01,6.27,2.07,2.36,4.99,6.95,4.93,14.52,0,2.47-.28,9.48-5.49,15.14M564.91,274.07c-2.07-3.36-5.21-5.21-9.19-5.21-2.47,0-4.26.79-5.04,1.18-2.8,1.51-6.28,5.21-6.28,12.61,0,1.51.06,8.8,5.61,12.44,2.41,1.57,4.82,1.68,5.83,1.68.79,0,2.58-.05,4.54-.95,2.91-1.35,6.72-4.71,6.89-12.16.06-3.25-.56-6.73-2.36-9.59"/>
    <polygon class="cls-3" points="589.28 269.69 589.28 279.56 605.82 279.56 605.82 285.89 589.28 285.89 589.28 302.65 581.94 302.65 581.94 263.08 608.12 263.08 608.12 269.69 589.28 269.69"/>
    <path class="cls-3" d="M653.01,302.65l-2.3-7.74h-14.85l-2.29,7.74h-7.96l13.39-39.58h8.41l13.51,39.58h-7.9ZM643.31,270.2l-5.49,18.22h10.93l-5.44-18.22Z"/>
    <path class="cls-3" d="M687.93,302.65l-7.79-14.69h-6.67v14.69h-7.35v-39.57h16.2c1.79,0,7.12.17,10.65,4.82,2.3,3.03,2.41,6.45,2.41,7.74,0,.62-.06,2.58-.73,4.43-.62,1.63-2.52,5.04-7.06,6.45l8.8,16.14h-8.46ZM685.41,270.64c-1.29-.84-2.81-1.18-5.95-1.18h-6v12.33h2.64c4.32,0,7.01,0,8.8-.95,1.12-.62,2.97-2.07,2.97-5.27,0-1.01-.11-3.36-2.46-4.93"/>
    <polygon class="cls-3" points="717.29 269.75 717.29 302.65 709.89 302.65 709.89 269.75 699.13 269.75 699.13 263.08 728.22 263.08 728.22 269.75 717.29 269.75"/>
    <path class="cls-4" d="M822.37,985.9v-51.65c-.49-.42-.73-.62-1.22-1.04l.84-1.37-15.96-49.12c-.6-.25-.88-.37-1.48-.62.15-.63.22-.93.38-1.56l-30.36-41.78c-.65-.05-.95-.08-1.6-.13l-.13-1.6-41.93-30.46c-.58.09-.9.14-1.47.23-.09-.57-.14-.9-.23-1.47l-11.2-8.14-11.2-8.13c-.58.09-.9.14-1.47.23-.09-.58-.14-.9-.24-1.47l-11.2-8.14-11.2-8.13c-.58.09-.9.14-1.47.23-.09-.57-.14-.9-.23-1.47l-11.2-8.13-11.2-8.14c-.57.09-.9.14-1.47.23-.09-.58-.14-.9-.23-1.47l-11.2-8.13-11.2-8.14c-.58.09-.9.14-1.47.23-.09-.58-.14-.9-.23-1.47l-11.2-8.13-11.2-8.14c-.58.09-.9.14-1.47.23-.09-.58-.14-.9-.23-1.47l-11.2-8.14-11.2-8.14c-.58.09-.9.14-1.47.24-.09-.58-.14-.9-.23-1.48l-11.2-8.14-11.2-8.14c-.58.09-.9.14-1.47.23-.09-.58-.14-.9-.23-1.47l-11.2-8.14-11.2-8.14c-.58.09-.9.14-1.47.23-.09-.58-.14-.9-.23-1.47l-11.2-8.14-11.2-8.14c-.58.09-.9.14-1.47.24-.09-.58-.14-.9-.23-1.47l-11.2-8.14-11.2-8.14c-.58.09-.9.14-1.47.23-.09-.58-.14-.9-.24-1.47l-11.2-8.14-11.2-8.13c-.58.09-.9.14-1.47.23-.09-.58-.14-.9-.23-1.47l-11.2-8.14-11.2-8.13c-.58.09-.9.14-1.47.23-.09-.58-.14-.9-.23-1.47l-11.2-8.14-11.2-8.13c-.58.09-.9.14-1.47.23-.09-.58-.14-.9-.23-1.48l-11.2-8.14-11.2-8.13c-.57.09-.9.14-1.47.23-.09-.58-.14-.9-.23-1.47l-11.2-8.13-11.2-8.14c-.58.09-.9.14-1.47.23-.09-.58-.14-.9-.23-1.47l-11.2-8.13-11.2-8.14c-.57.09-.9.14-1.47.23-.09-.58-.14-.9-.23-1.47l-11.2-8.13-11.2-8.14c-.58.09-.9.14-1.47.23-.09-.57-.14-.9-.23-1.47l-11.2-8.13-11.2-8.14c-.58.09-.9.14-1.47.23-.09-.58-.14-.9-.23-1.47l-11.2-8.14-11.2-8.14c-.58.09-.9.14-1.47.23-.09-.58-.14-.9-.23-1.47l-11.2-8.14-11.2-8.14c-.58.09-.9.14-1.47.24-.09-.58-.14-.9-.23-1.47l-11.2-8.14-11.2-8.14c-.58.09-.9.14-1.48.23-.09-.58-.14-.9-.23-1.47l-11.2-8.14-11.2-8.14c-.58.09-.9.14-1.47.23-.09-.58-.14-.9-.23-1.47l-15.17-11.02-15.29-11.11c-.52.04-.85.07-1.37.11.04-.52.07-.85.11-1.37l-22.23-30.59-1.33-.32.52-1.26-11.68-35.96c-.44-.27-.73-.44-1.17-.72.34-.4.56-.65.89-1.04v-40.02c-.41-.41-.64-.64-1.05-1.05.41-.41.64-.64,1.05-1.06v-27.68l-1.05-1.05c.41-.41.64-.64,1.05-1.06v-27.68c-.41-.41-.64-.64-1.05-1.05.41-.41.64-.65,1.05-1.06v-27.68c-.41-.41-.64-.64-1.05-1.06.41-.41.64-.64,1.05-1.05v-25.58c-.29-.38-.49-.64-.78-1.02.44-.18.75-.31,1.19-.49l10.92-18.9c-.06-.47-.11-.8-.17-1.27.47.06.8.1,1.27.17l18.91-10.91c.18-.44.31-.75.49-1.19.38.29.64.49,1.02.78h25.58c.41-.41.64-.64,1.05-1.06.41.41.64.64,1.06,1.06h27.68c.41-.41.64-.64,1.05-1.06.41.41.64.64,1.06,1.06h27.68c.41-.41.64-.64,1.05-1.06.41.41.65.64,1.06,1.06h27.68c.41-.41.64-.64,1.06-1.06.41.41.64.64,1.05,1.06h27.68c.41-.41.64-.64,1.06-1.06.41.41.64.64,1.05,1.06h27.68c.41-.41.65-.64,1.06-1.06.41.41.64.64,1.05,1.06h27.69c.41-.41.64-.64,1.05-1.06.41.41.64.64,1.05,1.06h27.68c.41-.41.64-.64,1.05-1.06.41.41.64.64,1.05,1.06h27.68c.41-.41.64-.64,1.05-1.06.41.41.64.64,1.06,1.06h27.68c.41-.41.64-.64,1.05-1.06.42.41.64.64,1.06,1.06h27.68c.41-.41.64-.64,1.05-1.06v-12.78c-.41-.41-.64-.64-1.05-1.06h-27.68c-.41.41-.64.64-1.06,1.06-.41-.41-.64-.64-1.05-1.06h-27.68l-1.06,1.06c-.41-.41-.64-.64-1.05-1.06h-27.68c-.41.41-.64.64-1.05,1.06-.41-.41-.64-.64-1.05-1.06h-27.68c-.41.41-.64.64-1.05,1.06-.41-.41-.64-.64-1.05-1.06h-27.69c-.41.41-.64.64-1.05,1.06-.41-.41-.64-.64-1.06-1.06h-27.68c-.41.41-.64.64-1.05,1.06-.41-.41-.64-.64-1.06-1.06h-27.68c-.41.41-.64.64-1.05,1.06-.41-.41-.64-.64-1.06-1.06h-27.68c-.41.41-.64.64-1.06,1.06-.41-.41-.64-.64-1.05-1.06h-27.68l-1.06,1.06c-.41-.41-.64-.64-1.05-1.06h-27.68c-.41.41-.64.64-1.06,1.06-.41-.41-.64-.64-1.05-1.06h-29.01c-.42.55-.6.78-1.02,1.33h0c-.64-.27-.91-.38-1.55-.64l-24.84,14.34c-.09.69-.13.97-.22,1.66-.69.09-.97.13-1.66.22l-14.34,24.84c.26.64.38.91.64,1.55-.55.42-.78.6-1.33,1.02v29c.42.41.64.64,1.06,1.05-.42.41-.64.64-1.06,1.06v27.68c.42.41.64.64,1.06,1.06-.42.41-.64.64-1.06,1.05v27.68c.42.42.64.64,1.06,1.06-.42.41-.64.64-1.06,1.05v27.68c.41.41.64.64,1.06,1.06l-1.06,1.05v42.04c.49.42.73.62,1.22,1.04-.34.55-.5.81-.84,1.37l12.94,39.81c.6.25.88.37,1.48.61l-.19.78c-.06.23-.11.46-.19.78l24.6,33.86c.64.05.95.08,1.6.13.05.65.08.96.13,1.6l16.94,12.31,15.16,11.02c.57-.09.9-.14,1.47-.23.09.57.14.9.23,1.47l11.2,8.14,11.2,8.14c.58-.09.9-.14,1.47-.24.09.58.14.9.24,1.47l11.2,8.14,11.2,8.14c.58-.09.9-.14,1.47-.23.09.58.14.9.23,1.47l11.2,8.14,11.2,8.14c.58-.09.9-.14,1.47-.23.09.58.14.9.23,1.47l11.2,8.14,11.2,8.14c.58-.09.9-.14,1.47-.23.09.58.14.9.23,1.47l11.2,8.14,11.2,8.14c.58-.09.9-.14,1.48-.23.09.58.14.9.23,1.48l11.2,8.14,11.2,8.13c.58-.09.9-.14,1.48-.23.09.58.14.9.23,1.47l11.2,8.14,11.2,8.13c.57-.09.9-.14,1.47-.23.09.58.14.9.23,1.47l11.2,8.14,11.2,8.13c.58-.09.9-.14,1.47-.23.09.58.14.9.23,1.47l11.2,8.13,11.2,8.14c.58-.09.9-.14,1.47-.23.09.57.14.9.23,1.47l11.2,8.13,11.2,8.14c.58-.09.9-.14,1.47-.23.09.58.14.9.23,1.47l11.2,8.13,11.2,8.14c.58-.09.9-.14,1.47-.23.09.58.14.9.23,1.47l11.2,8.13,11.2,8.14c.58-.09.9-.14,1.47-.23.09.58.14.9.23,1.47l11.2,8.14,11.2,8.14c.58-.09.9-.14,1.47-.23.09.58.14.9.23,1.47l11.2,8.14,11.2,8.14c.58-.09.9-.14,1.47-.23.09.58.14.9.24,1.47l11.2,8.14,11.2,8.14c.58-.09.9-.14,1.47-.23.09.58.14.9.23,1.47l11.2,8.14,11.2,8.14c.58-.09.9-.14,1.47-.24.09.58.14.9.24,1.47l11.2,8.14,11.2,8.14c.58-.09.9-.14,1.47-.23.09.58.14.9.23,1.47l11.2,8.14,11.2,8.13c.57-.09.9-.14,1.47-.23.09.58.14.9.23,1.47l11.2,8.14,11.2,8.13c.58-.09.9-.14,1.47-.23.09.58.14.9.23,1.47l11.2,8.14,11.2,8.13c.57-.09.9-.14,1.47-.23.09.57.14.9.23,1.47l11.2,8.14,11.2,8.13c.58-.09.9-.14,1.48-.23.09.58.14.9.23,1.47l11.2,8.13,11.2,8.14c.57-.09.9-.14,1.46-.23.09.57.14.9.24,1.47l40.29,29.27c.26-.02.47-.03.68-.05l.68-.05-.11,1.37,27.98,38.51c.5.12.83.2,1.33.32-.2.48-.32.79-.52,1.27l14.71,45.27c.44.27.73.44,1.17.72-.34.4-.56.65-.89,1.04v47.6c.34.4.55.65.89,1.04-.44.27-.73.44-1.17.72l-14.71,45.27c.2.48.33.79.52,1.27-.5.12-.83.2-1.33.32l-27.98,38.51c.04.51.07.85.11,1.36-.52-.04-.85-.06-1.37-.11l-38.51,27.98c-.12.51-.2.83-.32,1.33-.48-.2-.79-.33-1.27-.52l-45.27,14.71c-.27.44-.44.73-.72,1.17-.39-.34-.64-.55-1.04-.89h-47.6c-.4.34-.65.55-1.04.89-.27-.44-.45-.73-.72-1.17l-45.26-14.71c-.48.2-.79.32-1.27.52-.12-.5-.2-.83-.32-1.33l-40.29-29.28c-.58.09-.9.14-1.47.23h0c-.09-.57-.14-.9-.23-1.47l-11.2-8.14-11.2-8.13c-.57.09-.9.14-1.47.23-.09-.58-.14-.9-.23-1.47l-11.2-8.14-11.2-8.13c-.58.09-.9.14-1.47.23-.09-.58-.14-.9-.23-1.47l-11.2-8.14-11.2-8.13c-.58.09-.9.14-1.47.23-.09-.57-.14-.9-.23-1.47l-11.2-8.13-11.2-8.14c-.58.09-.9.14-1.47.23-.09-.58-.14-.9-.23-1.47l-11.2-8.13-11.2-8.14c-.58.09-.9.14-1.47.23-.09-.58-.14-.9-.23-1.47l-11.2-8.13-11.2-8.14c-.57.09-.9.14-1.47.23-.09-.58-.14-.9-.24-1.47l-11.2-8.14-11.2-8.14c-.58.09-.9.14-1.47.23-.09-.58-.14-.9-.23-1.47l-11.2-8.14-11.2-8.14c-.58.09-.9.14-1.48.23-.09-.58-.14-.9-.23-1.47l-11.2-8.14-11.2-8.14c-.58.09-.9.14-1.47.23l-7.52,10.34c.09.58.14.9.23,1.47l11.2,8.14,11.2,8.14c.58-.09.9-.14,1.47-.23.09.58.14.9.23,1.47l11.2,8.14,11.2,8.14c.58-.09.9-.14,1.47-.24.09.58.14.9.23,1.47l11.2,8.14,11.2,8.14c.58-.09.9-.14,1.47-.23.09.57.14.9.23,1.47l11.2,8.14,11.2,8.14c.58-.09.9-.14,1.47-.23.09.58.14.9.23,1.47l11.2,8.14,11.2,8.14c.58-.09.9-.14,1.47-.24.09.58.14.9.23,1.47l11.2,8.14,11.2,8.13c.58-.09.9-.14,1.47-.23.09.58.14.9.23,1.48l11.2,8.14,11.2,8.13c.58-.09.9-.14,1.47-.23.09.58.14.9.24,1.47l11.2,8.14,11.2,8.13c.58-.09.9-.14,1.47-.23.09.58.14.9.23,1.47l11.2,8.14,11.2,8.13c.57-.09.9-.14,1.47-.23.09.58.14.9.23,1.47l41.93,30.46c.63-.15.93-.22,1.56-.37h0c.25.6.37.88.62,1.48l49.12,15.96c.55-.34.82-.5,1.37-.84.42.49.62.73,1.04,1.22h51.65c.42-.49.62-.73,1.05-1.22.55.34.81.5,1.37.84l49.12-15.96c.25-.6.37-.88.61-1.48h0c.63.15.93.23,1.56.38l41.78-30.36c.05-.65.07-.95.13-1.6.65-.05.95-.07,1.6-.13l30.36-41.78c-.15-.63-.22-.93-.38-1.56.6-.25.89-.37,1.48-.62l15.96-49.12c-.34-.55-.5-.81-.84-1.37.49-.42.73-.62,1.22-1.04"/>
  </g>
</svg>