<svg xmlns="http://www.w3.org/2000/svg" viewBox="0 0 395.59 395.59"><defs><style>.cls-1{isolation:isolate;}.cls-2{fill:#fff;}.cls-3{fill:#0074e7;}.cls-4{mix-blend-mode:multiply;}</style></defs><title>Artboard 26</title><g class="cls-1"><g id="Layer_1" data-name="Layer 1"><circle class="cls-2" cx="197.79" cy="197.79" r="189.24"/><path class="cls-3" d="M171.75,25.31l-.63,3.43-1.4.19L171.84,18l1.62-.22,5,9.94-1.44.19-1.56-3.12ZM175,23.79l-1.43-2.86c-.32-.65-.56-1.25-.8-1.83h0c-.07.64-.15,1.29-.27,2l-.61,3.15Z"/><path class="cls-3" d="M178.8,22.18c-.07-.78-.14-1.42-.25-2l1.22-.1.19,1.24h0a2.77,2.77,0,0,1,2.36-1.63c1-.1,2.72.38,3,3l.39,4.5-1.37.12-.38-4.35c-.11-1.21-.65-2.18-1.94-2.07a2,2,0,0,0-1.71,1.57,1.87,1.87,0,0,0,0,.64l.4,4.53-1.37.12Z"/><path class="cls-3" d="M194,22.88a3.69,3.69,0,0,1-3.59,4.17,3.6,3.6,0,0,1-3.78-3.74,3.69,3.69,0,0,1,3.57-4.17A3.58,3.58,0,0,1,194,22.88Zm-6,.33c.07,1.65,1.08,2.86,2.42,2.8s2.24-1.33,2.17-3c-.05-1.28-.76-2.87-2.39-2.81S188,21.77,188,23.21Z"/><path class="cls-3" d="M196.83,17l0,2.17,2,0,0,1.05-2,0,.07,4.08c0,.93.29,1.46,1.05,1.45a3.24,3.24,0,0,0,.8-.11l.08,1a3.53,3.53,0,0,1-1.22.21,1.9,1.9,0,0,1-1.49-.56,2.74,2.74,0,0,1-.56-1.95l-.07-4.13-1.17,0,0-1,1.17,0,0-1.81Z"/><path class="cls-3" d="M200.23,15.62l1.38,0-.14,4.72h0a2.55,2.55,0,0,1,1-.94,2.9,2.9,0,0,1,1.42-.35c1,0,2.62.71,2.54,3.31l-.14,4.5-1.37,0,.13-4.34c0-1.22-.39-2.26-1.68-2.3a2,2,0,0,0-1.89,1.32,1.73,1.73,0,0,0-.11.65l-.14,4.56-1.37,0Z"/><path class="cls-3" d="M209,23.53a2.43,2.43,0,0,0,2.4,2.81,5,5,0,0,0,2.11-.24l.16,1a6.14,6.14,0,0,1-2.54.28,3.52,3.52,0,0,1-3.43-4.07c.17-2.28,1.64-4,3.84-3.81,2.46.18,2.95,2.4,2.85,3.78a4.62,4.62,0,0,1-.09.64Zm4.09-.69a2,2,0,0,0-1.73-2.36,2.27,2.27,0,0,0-2.27,2.07Z"/><path class="cls-3" d="M215.76,22.41c.09-.89.16-1.65.19-2.35l1.19.13L217,21.67h.06a2.27,2.27,0,0,1,2.26-1.42,1.77,1.77,0,0,1,.38.09l-.13,1.29a1.89,1.89,0,0,0-2.49,1.46,4.64,4.64,0,0,0-.13.63l-.43,4-1.35-.15Z"/><path class="cls-3" d="M222.51,27a3.57,3.57,0,0,0,1.7.82c1,.15,1.53-.27,1.63-.89s-.24-1.06-1.18-1.59c-1.27-.69-1.79-1.52-1.65-2.42a2.32,2.32,0,0,1,2.91-1.79,3.73,3.73,0,0,1,1.77.74l-.49.94a3,3,0,0,0-1.46-.67c-.81-.12-1.33.27-1.41.83s.31,1,1.22,1.48c1.22.7,1.79,1.45,1.62,2.56-.2,1.31-1.37,2.08-3.14,1.81a4.31,4.31,0,0,1-2-.84Z"/><path class="cls-3" d="M231.42,20.09l-.4,2.13,1.94.36-.19,1-1.94-.36-.74,4c-.17.92,0,1.49.75,1.63a3.53,3.53,0,0,0,.8.05l-.13,1a3.45,3.45,0,0,1-1.23,0,1.89,1.89,0,0,1-1.35-.84,2.81,2.81,0,0,1-.17-2l.75-4-1.15-.22.19-1,1.15.22L230,20.2Z"/><path class="cls-3" d="M240,27.9a3.68,3.68,0,0,1-4.54,3.1,3.59,3.59,0,0,1-2.69-4.58,3.69,3.69,0,0,1,4.52-3.11A3.59,3.59,0,0,1,240,27.9Zm-5.87-1.22c-.36,1.61.3,3,1.61,3.33s2.51-.71,2.88-2.37c.28-1.25,0-3-1.58-3.33S234.39,25.27,234.08,26.68Z"/><path class="cls-3" d="M241.56,26.93c.22-.86.4-1.6.53-2.29l1.17.3-.33,1.45H243a2.27,2.27,0,0,1,2.44-1.07,1.18,1.18,0,0,1,.36.15l-.32,1.25a1.62,1.62,0,0,0-.44-.16,1.92,1.92,0,0,0-2.23,1.24,3.42,3.42,0,0,0-.23.6l-1,3.9L240.24,32Z"/><path class="cls-3" d="M247.66,26.13l.31,4.75c0,.53,0,1.15,0,1.62h0c.27-.39.58-.9.92-1.37l2.7-3.82,1.4.41-3.52,4.58c-1.69,2.2-2.71,3.28-3.84,3.79a3.67,3.67,0,0,1-1.87.37V35.26a3.34,3.34,0,0,0,1.34-.3,4.07,4.07,0,0,0,1.55-1.13,1.06,1.06,0,0,0,.2-.28,1.4,1.4,0,0,0,0-.38l-.68-7.47Z"/><path class="cls-3" d="M258.94,27.48l-.73,2,1.86.66-.35,1-1.86-.66-1.35,3.84c-.32.89-.24,1.48.48,1.73a3.39,3.39,0,0,0,.78.18l-.28,1a3.38,3.38,0,0,1-1.21-.23,1.88,1.88,0,0,1-1.21-1,2.84,2.84,0,0,1,.15-2l1.38-3.89-1.11-.39.35-1,1.11.39.6-1.71Z"/><path class="cls-3" d="M262.52,27.31l1.28.5-1.74,4.39h0a2.55,2.55,0,0,1,1.27-.54,2.8,2.8,0,0,1,1.45.16c.95.37,2.23,1.55,1.27,4L264.42,40l-1.28-.51,1.6-4c.45-1.13.41-2.25-.8-2.73a2,2,0,0,0-2.22.6,1.71,1.71,0,0,0-.33.57l-1.68,4.25-1.27-.51Z"/><path class="cls-3" d="M269.75,42.35l.29-.92-.05,0a2.82,2.82,0,0,1-2.56.09,2.16,2.16,0,0,1-1.23-2.93c.75-1.67,2.64-1.92,5.3-.71l.06-.14a1.56,1.56,0,0,0-.85-2.3,3.71,3.71,0,0,0-2-.29l.09-1a4.64,4.64,0,0,1,2.54.4c2.11.94,2,2.61,1.36,4l-1.16,2.58a10.91,10.91,0,0,0-.62,1.71Zm1.39-3.61c-1.36-.64-3-1.09-3.62.25a1.23,1.23,0,0,0,.65,1.73,1.89,1.89,0,0,0,2.18-.41,1.51,1.51,0,0,0,.25-.37Z"/><path class="cls-3" d="M277.94,35.47l-.95,2,1.77.86-.46.94-1.76-.86L274.75,42c-.41.84-.4,1.43.29,1.77a3.19,3.19,0,0,0,.75.26l-.39.95a3.23,3.23,0,0,1-1.18-.36,1.89,1.89,0,0,1-1.08-1.17,2.8,2.8,0,0,1,.38-2l1.81-3.71-1.05-.51.45-.94,1.06.51.79-1.63Z"/><path class="cls-3" d="M279.33,45.5a3.56,3.56,0,0,0,1.33,1.35c.87.47,1.52.26,1.82-.29s.15-1.08-.57-1.89c-1-1.08-1.16-2-.73-2.83a2.34,2.34,0,0,1,3.36-.7,3.71,3.71,0,0,1,1.4,1.3l-.78.71A2.92,2.92,0,0,0,284,42a1.09,1.09,0,0,0-1.6.3c-.3.54,0,1,.65,1.81.91,1.06,1.19,2,.65,3-.64,1.16-2,1.49-3.57.63a4.3,4.3,0,0,1-1.61-1.47Z"/><path class="cls-3" d="M290.07,42,289,43.84l1.7,1-.53.9-1.7-1-2.06,3.52c-.47.81-.51,1.4.15,1.79a3.32,3.32,0,0,0,.74.32l-.47.92a3.43,3.43,0,0,1-1.15-.46,1.91,1.91,0,0,1-1-1.24,2.82,2.82,0,0,1,.54-2l2.08-3.56-1-.59.53-.91,1,.59.91-1.56Z"/><path class="cls-3" d="M291.25,54.11l.42-.87,0,0a2.83,2.83,0,0,1-2.56-.28,2.16,2.16,0,0,1-.8-3.07c1-1.55,2.89-1.53,5.35,0l.08-.13a1.55,1.55,0,0,0-.52-2.39,3.68,3.68,0,0,0-2-.58l.22-.93a4.71,4.71,0,0,1,2.46.76c2,1.23,1.59,2.86.78,4.14l-1.51,2.4a9.77,9.77,0,0,0-.86,1.6Zm1.89-3.37c-1.25-.83-2.84-1.51-3.62-.27a1.21,1.21,0,0,0,.4,1.8,1.79,1.79,0,0,0,2.52-.42Z"/><path class="cls-3" d="M296.47,51.31c.5-.73.92-1.37,1.27-2l1,.67-.8,1.26.06,0a2.26,2.26,0,0,1,2.66-.19,1.45,1.45,0,0,1,.29.25l-.73,1.08a1.64,1.64,0,0,0-.36-.31,1.92,1.92,0,0,0-2.51.43,3.66,3.66,0,0,0-.41.5l-2.26,3.33-1.13-.76Z"/><path class="cls-3" d="M304.63,51.47l-1.27,1.76,1.6,1.15-.61.85-1.6-1.15-2.38,3.31c-.55.76-.64,1.34,0,1.79a3.08,3.08,0,0,0,.7.39l-.55.87a3.18,3.18,0,0,1-1.1-.55,1.93,1.93,0,0,1-.87-1.34,2.85,2.85,0,0,1,.72-1.91l2.41-3.35-1-.68.61-.85.95.68L303.33,51Z"/><path class="cls-3" d="M302.05,59.89a3.61,3.61,0,0,0,1.11,1.53c.79.61,1.47.5,1.85,0s.3-1-.28-2c-.78-1.21-.83-2.2-.28-2.92a2.34,2.34,0,0,1,3.42-.17,3.9,3.9,0,0,1,1.19,1.5l-.88.58a3,3,0,0,0-1-1.28,1.1,1.1,0,0,0-1.63,0c-.38.49-.19,1,.37,1.88.73,1.2.87,2.13.18,3-.8,1-2.19,1.17-3.61.08a4.28,4.28,0,0,1-1.38-1.7Z"/><path class="cls-3" d="M313.35,60.93l-1.78,3.55c-.39.78-.75,1.5-1.15,2.18l0,0c.63-.46,1.36-.91,2.08-1.36L316,63.24l.88.76-1.61,3.61c-.38.87-.74,1.61-1.11,2.3l0,0a23.31,23.31,0,0,1,2.05-1.46l3.31-2.15,1,.89-6.81,4.09-.94-.82,1.5-3.48c.36-.81.69-1.51,1.13-2.31l0,0a21.75,21.75,0,0,1-2.16,1.43L310,68,309,67.2l3.25-7.2Z"/><path class="cls-3" d="M316.1,73.5,321.29,68l1,.94-5.19,5.5Zm7.76-6a.85.85,0,0,1-1.23-1.17.83.83,0,0,1,1.21,0A.81.81,0,0,1,323.86,67.52Z"/><path class="cls-3" d="M326.36,69.88l-1.53,1.55,1.4,1.38-.73.74-1.4-1.38-2.86,2.9c-.66.67-.85,1.23-.3,1.77a2.93,2.93,0,0,0,.63.49l-.68.78a3.4,3.4,0,0,1-1-.72,1.93,1.93,0,0,1-.65-1.46,2.8,2.8,0,0,1,1-1.77l2.89-2.93-.83-.82.74-.75.83.82,1.27-1.28Z"/><path class="cls-3" d="M329.69,71.29l.95,1-3.44,3.23,0,0a2.6,2.6,0,0,1,1.38,0,2.82,2.82,0,0,1,1.25.76c.7.74,1.35,2.35-.54,4.13L326,83.56l-.94-1,3.16-3c.89-.83,1.33-1.87.44-2.81a2,2,0,0,0-2.26-.4,1.62,1.62,0,0,0-.54.38l-3.33,3.12-.94-1Z"/><path class="cls-3" d="M337.44,81.88l-1.66,1.4,1.27,1.51-.79.67L335,84l-3.11,2.63c-.71.61-.94,1.15-.45,1.74a2.92,2.92,0,0,0,.59.54l-.75.72a3.46,3.46,0,0,1-.93-.81,1.94,1.94,0,0,1-.52-1.51A2.79,2.79,0,0,1,331,85.6l3.15-2.67-.76-.89.8-.67.76.89,1.38-1.17Z"/><path class="cls-3" d="M340.63,83.55l.85,1.08-3.71,2.91,0,0a2.62,2.62,0,0,1,1.37.17,2.88,2.88,0,0,1,1.17.87c.63.8,1.14,2.46-.91,4.07l-3.54,2.78L335,94.38l3.42-2.68c.95-.76,1.49-1.75.69-2.77a2,2,0,0,0-2.22-.6,1.82,1.82,0,0,0-.58.33l-3.58,2.82-.85-1.08Z"/><path class="cls-3" d="M340.18,95.35a2.43,2.43,0,0,0-.62,3.64,4.88,4.88,0,0,0,1.54,1.47l-.67.77a6.19,6.19,0,0,1-1.84-1.78,3.51,3.51,0,0,1,.93-5.24c1.85-1.32,4.1-1.28,5.38.51,1.44,2,.05,3.81-1.08,4.62a5.21,5.21,0,0,1-.55.33Zm3.15,2.71a2,2,0,0,0,.71-2.85,2.29,2.29,0,0,0-3.05-.42Z"/><path class="cls-3" d="M346.92,102.28c.82-.51,1.46-1,2.05-1.36l.66,1-1.06.74v0a3,3,0,0,1,2.68,1.49c1,1.55.39,3.54-1.55,4.76-2.3,1.45-4.32.76-5.27-.75a2.66,2.66,0,0,1-.24-2.6v0l-3.48,2.19-.73-1.15Zm-1,2.23a3.22,3.22,0,0,0-.44.35,2.11,2.11,0,0,0-.26,2.6c.77,1.23,2.22,1.31,3.69.39,1.29-.8,2-2.17,1.19-3.4a2.4,2.4,0,0,0-3.08-.63Z"/><path class="cls-3" d="M356.54,106.47l.69,1.19-9.57,5.59-.7-1.19Z"/><path class="cls-3" d="M350.55,118.45l.79-.55,0,0a2.85,2.85,0,0,1-2.09-1.49,2.15,2.15,0,0,1,.8-3.07c1.61-.88,3.26.07,4.65,2.64l.13-.07a1.56,1.56,0,0,0,.72-2.35,3.88,3.88,0,0,0-1.44-1.46l.65-.7a4.71,4.71,0,0,1,1.78,1.86c1.1,2,0,3.28-1.34,4l-2.49,1.35a11.6,11.6,0,0,0-1.53,1Zm3.29-2c-.69-1.33-1.73-2.7-3-2a1.22,1.22,0,0,0-.54,1.77,1.9,1.9,0,0,0,2,1,1.73,1.73,0,0,0,.42-.14Z"/><path class="cls-3" d="M358.77,117.85l-3.27,3.47c-.37.37-.82.8-1.17,1.12v0c.47-.08,1.06-.2,1.63-.27l4.64-.63.64,1.31-5.74.54c-2.76.27-4.25.26-5.39-.22a3.77,3.77,0,0,1-1.55-1.12l.89-.82a3.54,3.54,0,0,0,1.13.78,4.14,4.14,0,0,0,1.89.35,1,1,0,0,0,.34,0,1.3,1.3,0,0,0,.28-.25l5-5.59Z"/><path class="cls-3" d="M355.89,129.3c.48-.17,1.2-.44,1.82-.7l8.42-3.56.53,1.25-4.38,1.85v0a2.83,2.83,0,0,1,2.29,1.83c.73,1.73-.19,3.56-2.31,4.44-2.49,1.05-4.39,0-5-1.54a2.7,2.7,0,0,1,.32-2.89l0,0-1.17.43Zm3.34.13a4.6,4.6,0,0,0-.44.25,2.13,2.13,0,0,0-.67,2.53c.56,1.32,2,1.66,3.57,1,1.39-.59,2.28-1.81,1.71-3.16a2.18,2.18,0,0,0-2.37-1.27,3,3,0,0,0-.55.14Z"/><path class="cls-3" d="M363.21,142.24c-.73.27-1.37.52-1.91.77l-.42-1.14,1.13-.5v0a2.84,2.84,0,0,1-2.18-1.86c-.41-1.12-.29-2.68,2.21-3.59l4.15-1.53.47,1.29-3.93,1.45c-1.35.49-2.11,1.24-1.68,2.41a2,2,0,0,0,1.8,1.27,2.06,2.06,0,0,0,.71-.13l4.35-1.59.47,1.29Z"/><path class="cls-3" d="M371.57,143.1l-2.07.68.62,1.87-1,.32-.61-1.87-3.88,1.27c-.89.29-1.31.71-1.07,1.44a2.7,2.7,0,0,0,.34.72l-1,.38a3.26,3.26,0,0,1-.55-1.1,1.88,1.88,0,0,1,.09-1.59,2.83,2.83,0,0,1,1.7-1.11l3.92-1.28-.36-1.12,1-.32.37,1.11,1.72-.56Z"/><path class="cls-3" d="M373,147.76l-2.09.62.57,1.89-1,.3-.56-1.89L366,149.84c-.89.27-1.33.67-1.11,1.41a3.41,3.41,0,0,0,.32.74l-1,.35a3.34,3.34,0,0,1-.53-1.12,1.92,1.92,0,0,1,.13-1.58,2.79,2.79,0,0,1,1.74-1.07l3.95-1.18-.34-1.12,1-.3.33,1.12,1.74-.51Z"/><path class="cls-3" d="M369.93,158.93a3.7,3.7,0,0,1-4.83-2.64,3.59,3.59,0,0,1,2.86-4.48,3.7,3.7,0,0,1,4.83,2.62A3.59,3.59,0,0,1,369.93,158.93Zm-1.57-5.79c-1.61.42-2.58,1.65-2.24,3s1.77,1.92,3.42,1.49c1.23-.32,2.65-1.35,2.24-2.92S369.75,152.78,368.36,153.14Z"/><path class="cls-3" d="M371.85,159.87c.77-.16,1.39-.31,2-.48l.25,1.19-1.2.33v0a2.78,2.78,0,0,1,1.9,2.16c.22,1-.06,2.74-2.6,3.27l-4.42.92-.28-1.34,4.27-.89c1.19-.25,2.09-.9,1.83-2.17a2,2,0,0,0-1.76-1.52,2.06,2.06,0,0,0-.64,0l-4.45.93-.28-1.35Z"/><path class="cls-3" d="M372.07,172.91l-3.43-.62-.19-1.39L379.36,173l.23,1.62-9.91,5-.21-1.44,3.12-1.58Zm1.53,3.27,2.86-1.45c.65-.32,1.24-.56,1.82-.8v0c-.64-.06-1.3-.14-2-.25l-3.16-.6Z"/><path class="cls-3" d="M375.23,179.94c.78-.07,1.42-.15,2-.25l.12,1.21-1.24.19v0a2.81,2.81,0,0,1,1.65,2.36c.09,1-.38,2.72-3,3l-4.5.41-.12-1.37,4.34-.4c1.21-.11,2.18-.65,2.06-1.94a2,2,0,0,0-2.22-1.75l-4.52.42-.13-1.37Z"/><path class="cls-3" d="M374.6,195.14a3.69,3.69,0,0,1-4.18-3.57,3.59,3.59,0,0,1,3.71-3.8,3.69,3.69,0,0,1,4.18,3.56A3.57,3.57,0,0,1,374.6,195.14Zm-.36-6c-1.65.08-2.85,1.08-2.79,2.43s1.34,2.23,3,2.15c1.27-.06,2.87-.77,2.79-2.39S375.68,189.09,374.24,189.16Z"/><path class="cls-3" d="M380.5,198l-2.17,0,0,2h-1.05l0-2-4.07.07c-.94,0-1.47.28-1.45,1.05a2.81,2.81,0,0,0,.1.79l-1,.08a3.46,3.46,0,0,1-.2-1.21,1.89,1.89,0,0,1,.55-1.49,2.82,2.82,0,0,1,2-.57l4.12-.07,0-1.17h1l0,1.17,1.81,0Z"/><path class="cls-3" d="M381.88,201.33l0,1.37-4.72-.12v0a2.55,2.55,0,0,1,.95,1,2.93,2.93,0,0,1,.35,1.42c0,1-.69,2.62-3.3,2.55l-4.49-.11,0-1.37,4.34.11c1.22,0,2.26-.4,2.29-1.69a2,2,0,0,0-1.32-1.88,1.82,1.82,0,0,0-.66-.11l-4.55-.12,0-1.37Z"/><path class="cls-3" d="M374,210.16a2.41,2.41,0,0,0-2.79,2.4,5,5,0,0,0,.24,2.12l-1,.16a6.24,6.24,0,0,1-.29-2.54,3.5,3.5,0,0,1,4.06-3.44c2.27.16,4,1.62,3.82,3.82-.17,2.46-2.38,3-3.77,2.87-.28,0-.5-.07-.64-.09Zm.71,4.09a2,2,0,0,0,2.36-1.75,2.29,2.29,0,0,0-2.09-2.26Z"/><path class="cls-3" d="M375.16,216.9c.89.09,1.65.16,2.35.18l-.12,1.2-1.48-.11v.07a2.24,2.24,0,0,1,1.43,2.25,1.42,1.42,0,0,1-.08.38l-1.29-.13a2.68,2.68,0,0,0,.09-.46,1.93,1.93,0,0,0-1.56-2,5,5,0,0,0-.63-.13l-4-.41.14-1.36Z"/><path class="cls-3" d="M370.56,223.67a3.6,3.6,0,0,0-.81,1.71c-.15,1,.28,1.53.9,1.62s1.06-.23,1.58-1.18c.68-1.27,1.52-1.8,2.41-1.66a2.33,2.33,0,0,1,1.81,2.91,3.88,3.88,0,0,1-.74,1.77l-.94-.49a2.92,2.92,0,0,0,.66-1.47c.12-.8-.27-1.32-.83-1.4s-1,.31-1.48,1.23c-.69,1.22-1.44,1.79-2.55,1.62-1.31-.19-2.08-1.35-1.82-3.13a4.35,4.35,0,0,1,.83-2Z"/><path class="cls-3" d="M377.55,232.56l-2.13-.38-.35,1.93-1-.18.35-1.94-4-.72c-.92-.17-1.49,0-1.63.75a3.53,3.53,0,0,0-.05.8l-1-.12a3.23,3.23,0,0,1,0-1.23,1.9,1.9,0,0,1,.83-1.36,2.81,2.81,0,0,1,2-.17l4.06.73.21-1.15,1,.18-.21,1.16,1.78.32Z"/><path class="cls-3" d="M369.78,241.14a3.69,3.69,0,0,1-3.12-4.54,3.59,3.59,0,0,1,4.57-2.71,3.69,3.69,0,0,1,3.12,4.52A3.58,3.58,0,0,1,369.78,241.14Zm1.2-5.88c-1.62-.35-3,.31-3.33,1.63s.72,2.5,2.38,2.86c1.25.28,3,0,3.32-1.59S372.38,235.57,371,235.26Z"/><path class="cls-3" d="M370.75,242.73c.86.22,1.61.4,2.3.53l-.3,1.16-1.45-.32v.06a2.27,2.27,0,0,1,1.08,2.44,1.5,1.5,0,0,1-.14.36l-1.26-.32a1.62,1.62,0,0,0,.16-.44,1.92,1.92,0,0,0-1.25-2.22,3,3,0,0,0-.6-.22l-3.9-1,.33-1.32Z"/><path class="cls-3" d="M371.59,248.81l-4.75.33c-.53,0-1.16,0-1.62,0v0c.39.26.9.57,1.37.91l3.84,2.69-.41,1.39-4.59-3.5c-2.21-1.67-3.3-2.69-3.81-3.82a3.69,3.69,0,0,1-.38-1.87h1.21a3.77,3.77,0,0,0,.3,1.34,4.21,4.21,0,0,0,1.15,1.54.82.82,0,0,0,.28.2,1.32,1.32,0,0,0,.37,0l7.47-.72Z"/><path class="cls-3" d="M370.28,260.09l-2-.71-.64,1.86-1-.35.65-1.85-3.85-1.35c-.88-.31-1.47-.23-1.72.49a3,3,0,0,0-.18.79l-1-.29a3.37,3.37,0,0,1,.22-1.21,1.91,1.91,0,0,1,1-1.21,2.84,2.84,0,0,1,2,.15l3.89,1.36.38-1.11,1,.35-.38,1.1,1.71.6Z"/><path class="cls-3" d="M370.46,263.71,370,265l-4.4-1.72v0a2.56,2.56,0,0,1,.55,1.27A2.81,2.81,0,0,1,366,266c-.37,1-1.55,2.23-4,1.28l-4.19-1.64.5-1.28,4,1.58c1.14.45,2.26.4,2.73-.81a2,2,0,0,0-.61-2.21,1.62,1.62,0,0,0-.57-.33L359.63,261l.5-1.28Z"/><path class="cls-3" d="M355.45,271l.92.29,0,0a2.81,2.81,0,0,1-.1-2.57,2.16,2.16,0,0,1,2.92-1.24c1.67.74,1.93,2.63.74,5.3l.14.06a1.56,1.56,0,0,0,2.29-.86,3.73,3.73,0,0,0,.28-2l1,.08a4.73,4.73,0,0,1-.39,2.54c-.94,2.12-2.61,2-4,1.38l-2.59-1.14a9.9,9.9,0,0,0-1.7-.62Zm3.61,1.38c.64-1.36,1.08-3-.26-3.62a1.21,1.21,0,0,0-1.72.66,1.88,1.88,0,0,0,.41,2.18,1.51,1.51,0,0,0,.37.25Z"/><path class="cls-3" d="M362.36,279.18l-1.95-.94-.86,1.77-.94-.45.85-1.78L355.79,276c-.84-.41-1.44-.4-1.77.29a2.94,2.94,0,0,0-.26.76l-1-.39a3.44,3.44,0,0,1,.36-1.18,1.94,1.94,0,0,1,1.17-1.09,2.81,2.81,0,0,1,2,.38l3.72,1.79.51-1.05.94.45L361,277l1.63.79Z"/><path class="cls-3" d="M352.35,280.57a3.64,3.64,0,0,0-1.34,1.34c-.47.88-.25,1.53.3,1.82s1.07.14,1.89-.57c1.07-1,2-1.18,2.83-.75a2.34,2.34,0,0,1,.71,3.35,3.77,3.77,0,0,1-1.29,1.42l-.72-.78a2.92,2.92,0,0,0,1.12-1.15,1.1,1.1,0,0,0-.31-1.61c-.55-.29-1,0-1.81.66-1.06.92-2,1.2-3,.66-1.16-.63-1.5-2-.65-3.56a4.37,4.37,0,0,1,1.47-1.63Z"/><path class="cls-3" d="M355.91,291.32,354,290.24l-1,1.7-.91-.53,1-1.7-3.53-2c-.81-.47-1.4-.51-1.79.15a3.52,3.52,0,0,0-.32.74l-.92-.46A3.3,3.3,0,0,1,347,287a1.88,1.88,0,0,1,1.24-1,2.79,2.79,0,0,1,2,.52l3.57,2.07.59-1,.9.53-.58,1,1.57.91Z"/><path class="cls-3" d="M343.81,292.51l.87.41,0,0a2.83,2.83,0,0,1,.27-2.56,2.16,2.16,0,0,1,3.07-.81c1.55,1,1.53,2.88,0,5.34l.14.09a1.56,1.56,0,0,0,2.39-.53,3.72,3.72,0,0,0,.56-2l.94.21a4.7,4.7,0,0,1-.75,2.47c-1.22,2-2.86,1.6-4.14.8l-2.4-1.5a10.6,10.6,0,0,0-1.6-.86Zm3.38,1.87c.82-1.26,1.5-2.84.25-3.62a1.22,1.22,0,0,0-1.8.4,1.88,1.88,0,0,0,.11,2.22,1.17,1.17,0,0,0,.33.3Z"/><path class="cls-3" d="M346.61,297.75c.74.5,1.39.91,2,1.26l-.68,1-1.25-.79,0,0a2.29,2.29,0,0,1,.21,2.67,1.24,1.24,0,0,1-.26.29l-1.07-.72a3,3,0,0,0,.3-.36,1.94,1.94,0,0,0-.44-2.52,3.66,3.66,0,0,0-.5-.41L341.54,296l.75-1.13Z"/><path class="cls-3" d="M346.47,305.94l-1.77-1.26-1.14,1.6-.85-.61,1.14-1.6-3.32-2.37c-.76-.55-1.35-.64-1.79,0a3.09,3.09,0,0,0-.39.71l-.87-.55a3.18,3.18,0,0,1,.55-1.1,1.91,1.91,0,0,1,1.33-.87,2.73,2.73,0,0,1,1.91.71l3.36,2.39.68-1,.85.61-.68.95,1.48,1.06Z"/><path class="cls-3" d="M338.06,303.36a3.67,3.67,0,0,0-1.53,1.12c-.6.79-.49,1.47,0,1.84s1,.31,1.95-.27c1.21-.79,2.2-.85,2.92-.3a2.33,2.33,0,0,1,.19,3.42,3.78,3.78,0,0,1-1.5,1.19l-.59-.88a2.85,2.85,0,0,0,1.28-1,1.09,1.09,0,0,0-.05-1.63c-.5-.38-1-.19-1.89.37-1.19.74-2.12.88-3,.2s-1.18-2.19-.09-3.62a4.28,4.28,0,0,1,1.7-1.38Z"/><path class="cls-3" d="M337.09,314.63l-3.56-1.75c-.78-.39-1.5-.75-2.18-1.15l0,0c.46.63.91,1.35,1.36,2.07l2.12,3.45-.76.87-3.62-1.58c-.87-.38-1.62-.74-2.31-1.11l0,0a21.67,21.67,0,0,1,1.48,2l2.16,3.3-.88,1-4.13-6.78.82-.95,3.48,1.49c.81.35,1.52.67,2.32,1.11l0,0a22.4,22.4,0,0,1-1.44-2.15L330,311.3l.82-.95,7.2,3.22Z"/><path class="cls-3" d="M324.5,317.47l5.52,5.17-.94,1-5.52-5.17Zm6,7.74a.85.85,0,0,1,1.17-1.24.84.84,0,0,1,0,1.21A.82.82,0,0,1,330.52,325.21Z"/><path class="cls-3" d="M328.17,327.71l-1.55-1.51-1.38,1.4-.75-.73,1.38-1.41L323,322.61c-.67-.65-1.24-.84-1.77-.29a2.85,2.85,0,0,0-.49.64l-.78-.68a3.4,3.4,0,0,1,.72-1,1.91,1.91,0,0,1,1.45-.66,2.82,2.82,0,0,1,1.77,1l2.95,2.88.82-.83.75.73-.82.84,1.29,1.26Z"/><path class="cls-3" d="M326.81,331l-1,1-3.25-3.42,0,0a2.6,2.6,0,0,1-.05,1.38,2.8,2.8,0,0,1-.75,1.25c-.74.7-2.35,1.37-4.14-.52l-3.1-3.26,1-.95,3,3.15c.84.88,1.87,1.31,2.81.42a2,2,0,0,0,.39-2.26,1.62,1.62,0,0,0-.38-.54l-3.14-3.31,1-.95Z"/><path class="cls-3" d="M316.22,338.85l-1.41-1.65-1.49,1.27-.68-.79,1.5-1.28-2.65-3.1c-.61-.71-1.16-.94-1.74-.44a3.84,3.84,0,0,0-.55.58l-.71-.74a3.39,3.39,0,0,1,.8-.93,1.91,1.91,0,0,1,1.51-.53,2.85,2.85,0,0,1,1.68,1.15l2.68,3.14.89-.76.68.79-.89.76L317,337.7Z"/><path class="cls-3" d="M314.57,342l-1.08.85-2.93-3.69,0,0a2.62,2.62,0,0,1-.17,1.37,2.94,2.94,0,0,1-.86,1.17c-.8.64-2.46,1.16-4.08-.89l-2.79-3.52,1.07-.86,2.7,3.41c.76,1,1.75,1.48,2.77.67a2,2,0,0,0,.59-2.22,1.57,1.57,0,0,0-.34-.57l-2.83-3.58,1.08-.85Z"/><path class="cls-3" d="M302.76,341.65a2.42,2.42,0,0,0-3.64-.61,5.05,5.05,0,0,0-1.46,1.54l-.77-.66a6.18,6.18,0,0,1,1.76-1.85,3.52,3.52,0,0,1,5.25.91c1.33,1.84,1.3,4.09-.48,5.38-2,1.44-3.81.07-4.62-1.05a5,5,0,0,1-.34-.55Zm-2.69,3.16a2,2,0,0,0,2.86.69,2.29,2.29,0,0,0,.4-3.05Z"/><path class="cls-3" d="M295.89,348.39c.52.81,1,1.46,1.38,2.05l-1,.66-.74-1.06h0a3,3,0,0,1-1.48,2.68c-1.54,1-3.53.42-4.76-1.52-1.46-2.3-.78-4.32.72-5.27a2.64,2.64,0,0,1,2.6-.25l0,0-2.21-3.46,1.15-.73Zm-2.23-1a3.22,3.22,0,0,0-.35-.44,2.13,2.13,0,0,0-2.61-.25c-1.22.78-1.3,2.23-.37,3.7.81,1.28,2.18,1.94,3.41,1.16a2.19,2.19,0,0,0,.84-2.55,2.14,2.14,0,0,0-.22-.52Z"/><path class="cls-3" d="M291.71,358.05l-1.18.7-5.63-9.55,1.18-.7Z"/><path class="cls-3" d="M279.74,352.1l.55.78,0,0a2.82,2.82,0,0,1,1.49-2.1,2.15,2.15,0,0,1,3.07.78c.88,1.6-.06,3.26-2.63,4.66l.08.14a1.56,1.56,0,0,0,2.35.7,3.78,3.78,0,0,0,1.45-1.44l.71.64A4.63,4.63,0,0,1,285,358c-2,1.11-3.28,0-4-1.33l-1.36-2.47a11,11,0,0,0-1-1.53Zm2,3.28c1.32-.7,2.69-1.75,2-3a1.22,1.22,0,0,0-1.77-.52,1.87,1.87,0,0,0-1,2,1.73,1.73,0,0,0,.14.42Z"/><path class="cls-3" d="M280.35,360.32l-3.48-3.25c-.38-.37-.81-.82-1.13-1.17l0,0c.07.47.19,1.05.27,1.62l.64,4.64-1.3.65-.56-5.74c-.28-2.76-.28-4.24.2-5.39a3.68,3.68,0,0,1,1.11-1.55l.82.88a3.43,3.43,0,0,0-.77,1.14,4,4,0,0,0-.35,1.88.78.78,0,0,0,.05.35,1.17,1.17,0,0,0,.24.28l5.62,5Z"/><path class="cls-3" d="M268.88,357.49c.18.49.45,1.2.72,1.82l3.59,8.4-1.25.53-1.87-4.36h0a2.83,2.83,0,0,1-1.83,2.29c-1.72.74-3.55-.17-4.44-2.29-1.07-2.48,0-4.39,1.52-5.05a2.68,2.68,0,0,1,2.88.31l.05,0-.44-1.17Zm-.11,3.35a2.65,2.65,0,0,0-.25-.44,2.13,2.13,0,0,0-2.53-.67c-1.32.57-1.65,2-1,3.58.6,1.39,1.83,2.27,3.18,1.7a2.21,2.21,0,0,0,1.26-2.38,4.72,4.72,0,0,0-.15-.55Z"/><path class="cls-3" d="M256,364.88c-.27-.73-.53-1.37-.78-1.91l1.14-.43.5,1.13h0a2.87,2.87,0,0,1,1.85-2.19c1.12-.41,2.68-.3,3.61,2.19l1.54,4.14-1.29.48-1.46-3.92c-.5-1.35-1.25-2.1-2.42-1.66a1.92,1.92,0,0,0-1.13,2.5l1.62,4.35-1.29.48Z"/><path class="cls-3" d="M255.13,373.25l-.69-2.07-1.87.62-.32-1,1.86-.62-1.28-3.87c-.29-.89-.71-1.31-1.44-1.07a3,3,0,0,0-.73.34l-.38-1a3.35,3.35,0,0,1,1.1-.56,1.92,1.92,0,0,1,1.59.08,2.8,2.8,0,0,1,1.12,1.7l1.3,3.92,1.11-.37.33,1-1.11.37.57,1.72Z"/><path class="cls-3" d="M250.51,374.7l-.63-2.08-1.88.57-.31-1,1.89-.57-1.18-3.9c-.27-.9-.68-1.33-1.41-1.11a2.67,2.67,0,0,0-.74.32l-.36-1a3.44,3.44,0,0,1,1.12-.53,1.89,1.89,0,0,1,1.58.12,2.84,2.84,0,0,1,1.08,1.73l1.19,4,1.12-.34.31,1-1.12.34.52,1.74Z"/><path class="cls-3" d="M239.33,371.66a3.7,3.7,0,0,1,2.62-4.84,3.6,3.6,0,0,1,4.5,2.84,3.7,3.7,0,0,1-2.61,4.84A3.58,3.58,0,0,1,239.33,371.66Zm5.78-1.6c-.42-1.6-1.66-2.56-3-2.22s-1.9,1.77-1.47,3.42c.33,1.24,1.36,2.65,2.93,2.23S245.48,371.45,245.11,370.06Z"/><path class="cls-3" d="M238.38,373.6c.16.76.31,1.38.49,2l-1.19.25-.34-1.2h0a2.79,2.79,0,0,1-2.15,1.91c-1,.22-2.74-.05-3.28-2.58l-.95-4.42,1.35-.29.91,4.27c.25,1.19.91,2.09,2.18,1.81a2,2,0,0,0,1.51-1.76,2.09,2.09,0,0,0,0-.64l-1-4.45,1.35-.28Z"/><path class="cls-3" d="M225.34,373.87l.6-3.43,1.4-.21-2,10.94-1.63.24-5.07-9.9,1.44-.21,1.59,3.11Zm-3.26,1.55,1.46,2.85c.33.65.57,1.24.82,1.83h0c.06-.64.14-1.3.25-2l.58-3.17Z"/><path class="cls-3" d="M218.33,377.06c.08.78.15,1.42.26,2l-1.21.11-.2-1.24h0a2.78,2.78,0,0,1-2.35,1.65c-1,.1-2.72-.36-3-2.95l-.43-4.49,1.37-.13.41,4.34c.12,1.21.67,2.18,2,2.05a2,2,0,0,0,1.73-2.22l-.43-4.52,1.37-.13Z"/><path class="cls-3" d="M203.13,376.49a3.7,3.7,0,0,1,3.56-4.2,3.6,3.6,0,0,1,3.81,3.7,3.7,3.7,0,0,1-3.54,4.2A3.57,3.57,0,0,1,203.13,376.49Zm6-.38c-.08-1.65-1.09-2.85-2.43-2.79s-2.24,1.35-2.15,3.05c.06,1.28.78,2.87,2.4,2.79S209.18,377.55,209.11,376.11Z"/><path class="cls-3" d="M200.29,382.4l0-2.17-2,0,0-1,2,0-.07-4.08c0-.93-.29-1.46-1-1.45a3.24,3.24,0,0,0-.8.11l-.08-1a3.53,3.53,0,0,1,1.22-.21,1.93,1.93,0,0,1,1.49.55,2.77,2.77,0,0,1,.56,2l.07,4.12,1.17,0,0,1.05-1.17,0,0,1.81Z"/><path class="cls-3" d="M196.94,383.8l-1.37,0,.1-4.71h0a2.59,2.59,0,0,1-1,.94,2.73,2.73,0,0,1-1.42.36c-1,0-2.62-.68-2.57-3.28l.1-4.5,1.37,0L192,377c0,1.22.41,2.26,1.7,2.28a2,2,0,0,0,1.87-1.33,1.76,1.76,0,0,0,.11-.65l.1-4.56,1.37,0Z"/><path class="cls-3" d="M188.11,376a2.42,2.42,0,0,0-2.41-2.79,5.16,5.16,0,0,0-2.12.25l-.17-1a6.06,6.06,0,0,1,2.54-.3,3.51,3.51,0,0,1,3.46,4c-.15,2.27-1.6,4-3.8,3.83-2.46-.16-3-2.37-2.89-3.75,0-.28.07-.5.09-.64Zm-4.08.72a2,2,0,0,0,1.75,2.35A2.28,2.28,0,0,0,188,377Z"/><path class="cls-3" d="M181.37,377.15c-.08.88-.14,1.65-.17,2.35l-1.19-.12.1-1.48h-.06a2.28,2.28,0,0,1-2.25,1.45,1.93,1.93,0,0,1-.38-.09l.13-1.29a1.78,1.78,0,0,0,.46.09,1.91,1.91,0,0,0,2-1.57,3.49,3.49,0,0,0,.13-.63l.4-4,1.35.14Z"/><path class="cls-3" d="M174.57,372.58a3.59,3.59,0,0,0-1.71-.8c-1-.15-1.52.28-1.61.9s.24,1.06,1.19,1.58c1.27.67,1.8,1.5,1.67,2.4a2.33,2.33,0,0,1-2.9,1.82,3.73,3.73,0,0,1-1.77-.73l.48-.94a3,3,0,0,0,1.47.66,1.11,1.11,0,0,0,1.4-.84c.09-.62-.32-1-1.24-1.48-1.23-.68-1.8-1.43-1.64-2.54.19-1.31,1.35-2.09,3.13-1.83a4.23,4.23,0,0,1,2,.81Z"/><path class="cls-3" d="M165.75,379.62l.37-2.14-1.93-.34.18-1,1.93.34.71-4c.16-.93,0-1.5-.76-1.63a3,3,0,0,0-.8,0l.11-1a3.28,3.28,0,0,1,1.24,0,1.92,1.92,0,0,1,1.36.82,2.85,2.85,0,0,1,.18,2l-.71,4.06,1.15.21-.18,1-1.15-.21-.32,1.79Z"/><path class="cls-3" d="M157.14,371.88a3.69,3.69,0,0,1,4.51-3.15,3.61,3.61,0,0,1,2.74,4.56,3.7,3.7,0,0,1-4.51,3.15A3.57,3.57,0,0,1,157.14,371.88Zm5.88,1.17c.34-1.62-.33-3-1.64-3.32s-2.51.73-2.86,2.39c-.27,1.26,0,3,1.61,3.32S162.72,374.45,163,373.05Z"/><path class="cls-3" d="M155.54,372.86c-.22.86-.39,1.61-.52,2.3l-1.17-.29.32-1.45-.06,0a2.28,2.28,0,0,1-2.43,1.1,1.43,1.43,0,0,1-.37-.14l.32-1.26a2.43,2.43,0,0,0,.44.16,1.94,1.94,0,0,0,2.22-1.26,5.31,5.31,0,0,0,.22-.61l1-3.91,1.32.33Z"/><path class="cls-3" d="M149.46,373.72l-.35-4.75c0-.53,0-1.16,0-1.62h0c-.26.39-.58.9-.91,1.38l-2.67,3.84-1.4-.41,3.48-4.6c1.67-2.21,2.68-3.3,3.81-3.82a3.69,3.69,0,0,1,1.87-.38v1.2a3.64,3.64,0,0,0-1.35.31,4.11,4.11,0,0,0-1.53,1.15,1.06,1.06,0,0,0-.2.28,1.35,1.35,0,0,0,0,.37l.75,7.47Z"/><path class="cls-3" d="M138.16,372.47l.71-2.06-1.86-.64.34-1,1.86.64,1.33-3.85c.3-.89.22-1.48-.5-1.72a3.45,3.45,0,0,0-.79-.18l.28-1a3.33,3.33,0,0,1,1.21.22,1.92,1.92,0,0,1,1.22,1,2.78,2.78,0,0,1-.14,2l-1.34,3.9,1.11.38-.34,1-1.11-.38-.59,1.71Z"/><path class="cls-3" d="M134.56,372.66l-1.29-.5,1.7-4.4h0a2.62,2.62,0,0,1-1.27.55,2.91,2.91,0,0,1-1.45-.14c-.95-.37-2.24-1.53-1.3-4l1.62-4.19,1.28.49-1.56,4.05c-.44,1.14-.39,2.26.82,2.73a2,2,0,0,0,2.22-.62,1.76,1.76,0,0,0,.32-.58l1.64-4.26,1.28.5Z"/><path class="cls-3" d="M127.21,357.69l-.28.92,0,0a2.79,2.79,0,0,1,2.56-.11,2.15,2.15,0,0,1,1.25,2.92c-.73,1.67-2.62,1.94-5.29.75l-.06.15a1.56,1.56,0,0,0,.87,2.29,3.82,3.82,0,0,0,2,.27l-.07,1a4.63,4.63,0,0,1-2.55-.37c-2.12-.93-2-2.6-1.39-4l1.13-2.59a10.8,10.8,0,0,0,.61-1.71Zm-1.36,3.62c1.37.63,3,1.06,3.62-.28a1.21,1.21,0,0,0-.66-1.72,1.88,1.88,0,0,0-2.18.42,2,2,0,0,0-.25.37Z"/><path class="cls-3" d="M119.08,364.64l.93-2-1.78-.85.45-.94,1.78.84,1.75-3.67c.4-.85.39-1.44-.3-1.77a2.71,2.71,0,0,0-.76-.26l.39-1a3.44,3.44,0,0,1,1.18.36,1.87,1.87,0,0,1,1.09,1.16,2.75,2.75,0,0,1-.37,2l-1.77,3.72,1.06.51-.45.94-1.06-.5-.78,1.63Z"/><path class="cls-3" d="M117.6,354.62a3.64,3.64,0,0,0-1.34-1.34c-.88-.47-1.53-.25-1.83.31s-.13,1.07.59,1.88c1,1.07,1.18,2,.76,2.83a2.33,2.33,0,0,1-3.35.73,3.85,3.85,0,0,1-1.42-1.29l.77-.72a3,3,0,0,0,1.16,1.12,1.1,1.1,0,0,0,1.6-.32c.3-.55,0-1-.66-1.8-.92-1.06-1.21-2-.68-2.95.63-1.17,2-1.51,3.56-.67a4.39,4.39,0,0,1,1.64,1.46Z"/><path class="cls-3" d="M106.9,358.24l1.07-1.88-1.7-1,.52-.91,1.71,1,2-3.54c.47-.81.5-1.4-.16-1.78a2.9,2.9,0,0,0-.74-.32l.46-.92a3.12,3.12,0,0,1,1.15.44,1.93,1.93,0,0,1,1,1.24,2.8,2.8,0,0,1-.52,2l-2,3.58,1,.58-.52.91-1-.59-.9,1.58Z"/><path class="cls-3" d="M105.6,346.11l-.41.87,0,0a2.82,2.82,0,0,1,2.56.25,2.15,2.15,0,0,1,.82,3.06c-1,1.56-2.86,1.55-5.34,0l-.08.14a1.56,1.56,0,0,0,.54,2.39,3.7,3.7,0,0,0,2,.55l-.21.94a4.77,4.77,0,0,1-2.47-.74c-2-1.21-1.61-2.85-.81-4.13l1.48-2.41a10.53,10.53,0,0,0,.85-1.6Zm-1.85,3.39c1.25.81,2.84,1.48,3.61.23a1.21,1.21,0,0,0-.41-1.79,1.88,1.88,0,0,0-2.22.11,1.5,1.5,0,0,0-.29.33Z"/><path class="cls-3" d="M100.4,349c-.49.74-.91,1.39-1.26,2l-1-.67.79-1.26-.06,0a2.25,2.25,0,0,1-2.65.22,1.28,1.28,0,0,1-.3-.25l.71-1.08a2.51,2.51,0,0,0,.37.3,1.94,1.94,0,0,0,2.51-.45,3.66,3.66,0,0,0,.41-.5l2.23-3.35,1.13.75Z"/><path class="cls-3" d="M92.24,348.87l1.25-1.78L91.88,346l.61-.86,1.6,1.14,2.36-3.33c.54-.77.63-1.35,0-1.8a3.14,3.14,0,0,0-.7-.38l.54-.88a3.59,3.59,0,0,1,1.1.55,1.89,1.89,0,0,1,.88,1.33,2.75,2.75,0,0,1-.7,1.92L95.19,347l1,.68-.61.85-1-.67-1,1.48Z"/><path class="cls-3" d="M94.74,340.42a3.56,3.56,0,0,0-1.12-1.52c-.8-.6-1.47-.48-1.85,0s-.29,1,.29,2c.8,1.2.86,2.19.31,2.91A2.33,2.33,0,0,1,89,344a3.86,3.86,0,0,1-1.21-1.49l.88-.6a2.89,2.89,0,0,0,1,1.28,1.1,1.1,0,0,0,1.63-.06c.38-.5.18-1-.38-1.89-.74-1.19-.89-2.11-.21-3,.8-1.06,2.18-1.19,3.62-.11a4.28,4.28,0,0,1,1.39,1.68Z"/><path class="cls-3" d="M83.47,339.5l1.74-3.56c.38-.79.73-1.51,1.14-2.2l0,0c-.63.47-1.35.93-2.06,1.38l-3.45,2.13-.88-.76,1.57-3.63c.38-.87.73-1.61,1.1-2.31l0,0a23.35,23.35,0,0,1-2,1.49l-3.29,2.18-1-.89L83,329.12l1,.81-1.48,3.49a22.38,22.38,0,0,1-1.1,2.33l0,0a20.81,20.81,0,0,1,2.15-1.45l3.26-1.94,1,.81-3.19,7.23Z"/><path class="cls-3" d="M72.89,333a.85.85,0,0,1,1.24,1.16.84.84,0,0,1-1.21,0A.81.81,0,0,1,72.89,333ZM80.6,327l-5.15,5.54-1-.94L79.59,326Z"/><path class="cls-3" d="M70.35,330.63l1.51-1.55-1.41-1.38.73-.75,1.41,1.37,2.84-2.92c.65-.67.83-1.24.28-1.77a3.19,3.19,0,0,0-.63-.49l.67-.78a3.34,3.34,0,0,1,1,.71,2,2,0,0,1,.67,1.45,2.8,2.8,0,0,1-1,1.78l-2.88,3,.84.82-.73.75-.84-.82-1.26,1.3Z"/><path class="cls-3" d="M67,329.29l-1-1L69.48,325l0,0a2.59,2.59,0,0,1-1.38,0,2.86,2.86,0,0,1-1.26-.74c-.7-.74-1.37-2.34.51-4.14L70.58,317l1,1-3.13,3c-.88.84-1.31,1.88-.42,2.82a2,2,0,0,0,2.27.38,1.53,1.53,0,0,0,.54-.39l3.29-3.15,1,1Z"/><path class="cls-3" d="M59.17,318.74l1.64-1.42-1.28-1.49.79-.68,1.28,1.49L64.69,314c.71-.62.94-1.16.44-1.74a3,3,0,0,0-.59-.55l.74-.72a3.4,3.4,0,0,1,.94.8,2,2,0,0,1,.53,1.51A2.81,2.81,0,0,1,65.6,315l-3.12,2.69.77.89-.8.68-.76-.88-1.37,1.18Z"/><path class="cls-3" d="M56,317.09,55.11,316l3.69-2.95,0,0a2.59,2.59,0,0,1-1.37-.16,2.91,2.91,0,0,1-1.19-.86c-.63-.79-1.16-2.45.88-4.08l3.51-2.8.86,1.07-3.39,2.71c-.95.76-1.47,1.76-.66,2.77a2,2,0,0,0,2.22.58,1.75,1.75,0,0,0,.57-.34l3.56-2.84.86,1.07Z"/><path class="cls-3" d="M56.31,305.29a2.43,2.43,0,0,0,.59-3.65,5,5,0,0,0-1.55-1.46l.66-.76a6.11,6.11,0,0,1,1.86,1.75,3.51,3.51,0,0,1-.89,5.25c-1.84,1.34-4.08,1.32-5.38-.46-1.45-2-.08-3.81,1-4.63a5.79,5.79,0,0,1,.54-.34Zm-3.17-2.68a2,2,0,0,0-.68,2.85,2.27,2.27,0,0,0,3,.39Z"/><path class="cls-3" d="M49.52,298.42c-.81.52-1.46,1-2,1.38l-.67-1,1.06-.75,0,0a3,3,0,0,1-2.68-1.47c-1-1.54-.43-3.53,1.51-4.77C49,290.28,51,291,52,292.45a2.64,2.64,0,0,1,.25,2.6l0,0,3.46-2.21.73,1.14Zm1-2.24a2.33,2.33,0,0,0,.44-.35,2.13,2.13,0,0,0,.25-2.61c-.79-1.22-2.24-1.29-3.7-.35-1.28.81-1.94,2.18-1.16,3.41a2.21,2.21,0,0,0,2.56.83,2.66,2.66,0,0,0,.52-.23Z"/><path class="cls-3" d="M39.86,294.31l-.71-1.19,9.54-5.66.7,1.18Z"/><path class="cls-3" d="M45.75,282.28l-.78.56,0,0a2.82,2.82,0,0,1,2.11,1.48,2.15,2.15,0,0,1-.78,3.07c-1.6.89-3.26,0-4.66-2.61l-.14.08a1.55,1.55,0,0,0-.69,2.35,3.78,3.78,0,0,0,1.44,1.45l-.64.71a4.67,4.67,0,0,1-1.79-1.84c-1.12-2,0-3.28,1.31-4l2.47-1.37a10.83,10.83,0,0,0,1.52-1Zm-3.27,2.05c.7,1.33,1.75,2.69,3,2a1.22,1.22,0,0,0,.52-1.77,1.89,1.89,0,0,0-2-1,1.62,1.62,0,0,0-.42.15Z"/><path class="cls-3" d="M37.54,283l3.24-3.49c.37-.38.81-.82,1.16-1.13l0,0c-.46.08-1.05.2-1.62.28l-4.63.66L35,278l5.74-.6c2.75-.29,4.24-.29,5.39.18a3.68,3.68,0,0,1,1.55,1.1l-.87.83a3.71,3.71,0,0,0-1.14-.77,4.18,4.18,0,0,0-1.89-.34,1.22,1.22,0,0,0-.34.05,1.1,1.1,0,0,0-.28.25l-5,5.64Z"/><path class="cls-3" d="M40.32,271.49c-.48.18-1.2.45-1.81.72l-8.38,3.63-.54-1.24,4.35-1.89v0a2.8,2.8,0,0,1-2.3-1.81c-.75-1.72.16-3.56,2.27-4.46,2.48-1.07,4.39-.05,5.06,1.5a2.7,2.7,0,0,1-.3,2.89l0,0,1.17-.44Zm-3.34-.1a2.55,2.55,0,0,0,.43-.25,2.13,2.13,0,0,0,.66-2.54c-.57-1.31-2-1.64-3.58-1-1.39.61-2.27,1.84-1.68,3.18a2.18,2.18,0,0,0,2.38,1.25,2.35,2.35,0,0,0,.54-.15Z"/><path class="cls-3" d="M32.88,258.63c.73-.28,1.37-.53,1.91-.79l.43,1.14-1.13.51v0a2.83,2.83,0,0,1,2.2,1.84c.42,1.11.31,2.67-2.17,3.61L30,266.53l-.49-1.28,3.91-1.48c1.35-.51,2.1-1.26,1.65-2.43a2,2,0,0,0-1.8-1.25,2.06,2.06,0,0,0-.71.13l-4.33,1.64-.49-1.29Z"/><path class="cls-3" d="M24.52,257.81l2.05-.7L26,255.25l1-.33.63,1.86,3.86-1.3c.89-.3,1.31-.72,1.06-1.44a3,3,0,0,0-.34-.73l1-.38a3.48,3.48,0,0,1,.56,1.09,1.88,1.88,0,0,1-.07,1.59,2.8,2.8,0,0,1-1.7,1.13L28,258.05l.38,1.11-1,.34L27,258.39l-1.71.57Z"/><path class="cls-3" d="M23,253.16l2.08-.63-.58-1.88,1-.31.58,1.88L30,251c.9-.28,1.33-.69,1.1-1.42a2.72,2.72,0,0,0-.32-.73l1-.37a3.48,3.48,0,0,1,.53,1.11,1.91,1.91,0,0,1-.11,1.59,2.89,2.89,0,0,1-1.73,1.09l-3.94,1.2.34,1.12-1,.31-.34-1.12-1.73.53Z"/><path class="cls-3" d="M26,242a3.69,3.69,0,0,1,4.85,2.6A3.6,3.6,0,0,1,28,249.09a3.71,3.71,0,0,1-4.85-2.59A3.59,3.59,0,0,1,26,242Zm1.63,5.77c1.6-.42,2.56-1.67,2.21-3s-1.79-1.89-3.43-1.45c-1.24.33-2.64,1.37-2.22,2.94S26.25,248.13,27.64,247.75Z"/><path class="cls-3" d="M24.09,241.07c-.77.17-1.39.32-2,.5l-.26-1.19,1.21-.35v0a2.77,2.77,0,0,1-1.92-2.14c-.22-1,0-2.74,2.57-3.29l4.41-1,.3,1.34-4.26.93c-1.19.26-2.09.92-1.81,2.18a1.94,1.94,0,0,0,1.77,1.5,1.79,1.79,0,0,0,.64,0l4.44-1,.29,1.34Z"/><path class="cls-3" d="M23.76,228l3.43.59L27.4,230l-10.94-2-.24-1.62,9.87-5.12.22,1.44-3.11,1.6Zm-1.57-3.25-2.84,1.47c-.64.33-1.24.58-1.82.82v0c.64.07,1.3.14,2,.25l3.16.56Z"/><path class="cls-3" d="M20.53,221c-.78.08-1.41.16-2,.27l-.12-1.21,1.23-.2v0A2.77,2.77,0,0,1,18,217.5c-.11-1,.35-2.71,2.93-3l4.49-.45.13,1.37-4.33.44c-1.21.12-2.18.67-2,2a1.93,1.93,0,0,0,1.58,1.69,1.9,1.9,0,0,0,.64,0l4.53-.46.13,1.37Z"/><path class="cls-3" d="M21,205.82a3.71,3.71,0,0,1,4.22,3.54,3.6,3.6,0,0,1-3.69,3.83,3.68,3.68,0,0,1-4.21-3.52A3.58,3.58,0,0,1,21,205.82Zm.41,6c1.65-.09,2.85-1.11,2.77-2.46s-1.35-2.22-3.05-2.13c-1.28.07-2.87.8-2.78,2.42S20,211.88,21.44,211.81Z"/><path class="cls-3" d="M15.11,203l2.17,0,0-2,1,0,0,2,4.07-.07c.94,0,1.46-.3,1.45-1.06a3.24,3.24,0,0,0-.11-.8l1-.08a3.31,3.31,0,0,1,.21,1.22,1.9,1.9,0,0,1-.55,1.49,2.82,2.82,0,0,1-2,.57l-4.12.07,0,1.17-1,0,0-1.17-1.81,0Z"/><path class="cls-3" d="M13.7,199.67l0-1.38,4.72.09v0a2.54,2.54,0,0,1-1-1,2.81,2.81,0,0,1-.37-1.42c0-1,.67-2.62,3.28-2.58l4.49.08,0,1.38-4.34-.08c-1.22,0-2.26.41-2.28,1.71a2,2,0,0,0,1.34,1.86,1.63,1.63,0,0,0,.66.11l4.56.08,0,1.37Z"/><path class="cls-3" d="M21.49,190.8a2.43,2.43,0,0,0,2.78-2.43,5,5,0,0,0-.27-2.11l1-.18a6,6,0,0,1,.31,2.54,3.5,3.5,0,0,1-4,3.48c-2.27-.14-4-1.59-3.85-3.78.15-2.47,2.36-3,3.74-2.91a4.62,4.62,0,0,1,.64.09Zm-.74-4.08a2,2,0,0,0-2.35,1.76,2.28,2.28,0,0,0,2.11,2.24Z"/><path class="cls-3" d="M20.28,184.06c-.89-.08-1.65-.14-2.35-.16l.11-1.2,1.48.1v-.07a2.25,2.25,0,0,1-1.45-2.24,1.42,1.42,0,0,1,.08-.38l1.29.12a2.68,2.68,0,0,0-.09.46,1.93,1.93,0,0,0,1.58,2,3.65,3.65,0,0,0,.64.12l4,.38-.13,1.35Z"/><path class="cls-3" d="M24.83,177.23a3.58,3.58,0,0,0,.79-1.71c.14-1-.29-1.52-.91-1.61s-1.06.24-1.57,1.19c-.67,1.28-1.5,1.81-2.4,1.68a2.34,2.34,0,0,1-1.83-2.89,3.77,3.77,0,0,1,.73-1.77l.94.48a2.92,2.92,0,0,0-.65,1.47c-.11.8.29,1.32.84,1.39s1-.32,1.47-1.24c.68-1.23,1.42-1.8,2.53-1.64,1.32.18,2.1,1.33,1.85,3.11a4.18,4.18,0,0,1-.81,2Z"/><path class="cls-3" d="M17.75,168.43l2.14.37.33-1.94,1,.18L20.92,169l4,.68c.92.16,1.49,0,1.62-.76a3,3,0,0,0,0-.8l1,.11a3.41,3.41,0,0,1,0,1.23,1.94,1.94,0,0,1-.82,1.37,2.85,2.85,0,0,1-2,.19l-4.07-.7-.2,1.15-1-.17.2-1.16-1.79-.3Z"/><path class="cls-3" d="M25.45,159.78a3.7,3.7,0,0,1,3.16,4.51A3.58,3.58,0,0,1,24.07,167a3.69,3.69,0,0,1-3.17-4.49A3.59,3.59,0,0,1,25.45,159.78Zm-1.14,5.89c1.62.34,3-.34,3.31-1.65s-.74-2.5-2.41-2.85c-1.25-.26-3,0-3.3,1.62S22.9,165.38,24.31,165.67Z"/><path class="cls-3" d="M24.46,158.22c-.87-.21-1.61-.38-2.31-.5l.29-1.17,1.45.31,0-.06a2.26,2.26,0,0,1-1.11-2.43,1.5,1.5,0,0,1,.14-.36l1.26.31a2.75,2.75,0,0,0-.16.44A1.93,1.93,0,0,0,25.31,157a3.92,3.92,0,0,0,.61.22l3.91,1-.32,1.32Z"/><path class="cls-3" d="M23.58,152.12l4.75-.37c.53,0,1.15-.05,1.62-.05v0c-.4-.26-.91-.56-1.39-.89l-3.85-2.66.4-1.4,4.61,3.46c2.23,1.66,3.32,2.67,3.84,3.79a3.75,3.75,0,0,1,.4,1.86l-1.21,0a3.56,3.56,0,0,0-.31-1.34A4.26,4.26,0,0,0,31.29,153a1.38,1.38,0,0,0-.28-.2,1.4,1.4,0,0,0-.38,0l-7.46.79Z"/><path class="cls-3" d="M24.78,140.85l2,.69.63-1.86,1,.33-.63,1.87,3.86,1.3c.89.3,1.48.22,1.72-.5a2.88,2.88,0,0,0,.17-.79l1,.28a3.31,3.31,0,0,1-.21,1.21,1.9,1.9,0,0,1-1,1.22,2.79,2.79,0,0,1-2-.13l-3.9-1.32L27,144.26l-1-.34.38-1.11-1.72-.58Z"/><path class="cls-3" d="M24.57,137.23l.49-1.29,4.41,1.68v0a2.54,2.54,0,0,1-.56-1.27,2.8,2.8,0,0,1,.14-1.45c.36-1,1.52-2.24,4-1.32l4.2,1.6-.49,1.29-4.06-1.55c-1.13-.43-2.26-.37-2.72.84a2,2,0,0,0,.63,2.21,1.6,1.6,0,0,0,.58.32l4.26,1.63-.49,1.28Z"/><path class="cls-3" d="M39.52,129.79l-.92-.28,0,0a2.81,2.81,0,0,1,.11,2.57,2.14,2.14,0,0,1-2.91,1.26c-1.67-.72-2-2.61-.78-5.28l-.14-.07a1.57,1.57,0,0,0-2.29.89,3.69,3.69,0,0,0-.26,2l-1-.07a4.72,4.72,0,0,1,.37-2.55c.92-2.12,2.59-2,4-1.41L38.3,128a10.69,10.69,0,0,0,1.71.6Zm-3.63-1.35c-.62,1.37-1,3,.29,3.62a1.21,1.21,0,0,0,1.72-.67,1.88,1.88,0,0,0-.43-2.18,1.51,1.51,0,0,0-.37-.25Z"/><path class="cls-3" d="M32.54,121.67l2,.93.84-1.79.95.45L35.45,123l3.68,1.74c.85.4,1.45.39,1.77-.3a2.94,2.94,0,0,0,.26-.76l1,.38a3.62,3.62,0,0,1-.35,1.18,1.94,1.94,0,0,1-1.16,1.1,2.81,2.81,0,0,1-2-.36l-3.73-1.76-.5,1.06-.94-.45.5-1.06L32.29,123Z"/><path class="cls-3" d="M42.53,120.19a3.59,3.59,0,0,0,1.33-1.35c.47-.88.25-1.53-.31-1.82s-1.08-.13-1.88.59c-1.06,1-2,1.19-2.83.77A2.33,2.33,0,0,1,38.1,115a3.88,3.88,0,0,1,1.28-1.43l.73.77A3,3,0,0,0,39,115.55a1.1,1.1,0,0,0,.32,1.6c.55.29,1,0,1.8-.68,1.06-.92,2-1.21,2.94-.68,1.18.61,1.52,2,.69,3.55A4.37,4.37,0,0,1,43.3,121Z"/><path class="cls-3" d="M38.87,109.5l1.89,1.07,1-1.71.91.51-1,1.72,3.54,2c.82.46,1.41.49,1.79-.17a3.37,3.37,0,0,0,.31-.74l.93.45a3.45,3.45,0,0,1-.44,1.15,1.92,1.92,0,0,1-1.24,1,2.79,2.79,0,0,1-2-.51l-3.58-2-.58,1-.91-.51.58-1-1.58-.9Z"/><path class="cls-3" d="M51,108.18l-.87-.41,0,0a2.85,2.85,0,0,1-.25,2.56,2.16,2.16,0,0,1-3.06.84c-1.56-1-1.56-2.86,0-5.35l-.14-.08a1.57,1.57,0,0,0-2.39.56,3.78,3.78,0,0,0-.54,2l-.94-.21a4.72,4.72,0,0,1,.73-2.47c1.2-2,2.84-1.62,4.13-.83L50,106.27a11.43,11.43,0,0,0,1.61.84Zm-3.39-1.84c-.81,1.26-1.48,2.85-.22,3.61a1.2,1.2,0,0,0,1.79-.42,1.88,1.88,0,0,0-.12-2.22,1.54,1.54,0,0,0-.34-.29Z"/><path class="cls-3" d="M48.13,103c-.74-.49-1.39-.9-2-1.24l.67-1,1.26.78,0,0a2.28,2.28,0,0,1-.24-2.66,1.31,1.31,0,0,1,.26-.3l1.08.71a2.51,2.51,0,0,0-.3.37,1.94,1.94,0,0,0,.46,2.51,5.82,5.82,0,0,0,.5.4l3.37,2.22-.75,1.13Z"/><path class="cls-3" d="M48.18,94.8,50,96l1.13-1.61L52,95l-1.13,1.61L54.16,99c.76.54,1.35.63,1.79,0a3.4,3.4,0,0,0,.38-.71l.88.54a3.29,3.29,0,0,1-.55,1.11,1.89,1.89,0,0,1-1.32.88,2.79,2.79,0,0,1-1.92-.69l-3.37-2.37-.67,1-.86-.6.67-1-1.48-1Z"/><path class="cls-3" d="M56.62,97.29a3.68,3.68,0,0,0,1.52-1.13c.59-.8.47-1.47,0-1.85s-1-.29-2,.3c-1.2.8-2.19.86-2.91.32A2.33,2.33,0,0,1,53,91.51a3.65,3.65,0,0,1,1.48-1.2l.6.87a2.9,2.9,0,0,0-1.28,1,1.11,1.11,0,0,0,.07,1.63c.51.37,1,.18,1.89-.39,1.19-.75,2.11-.9,3-.23s1.2,2.18.12,3.63a4.28,4.28,0,0,1-1.68,1.39Z"/><path class="cls-3" d="M57.51,86l3.57,1.73c.78.38,1.51.73,2.2,1.13l0,0c-.47-.62-.93-1.34-1.39-2.06L59.78,83.3l.75-.88L64.17,84c.87.37,1.62.72,2.31,1.08l0,0A21.44,21.44,0,0,1,65,83l-2.19-3.28.88-1,4.18,6.76-.81,1-3.5-1.46c-.81-.34-1.53-.66-2.33-1.09l0,0A20.84,20.84,0,0,1,62.69,86l2,3.26-.81.95L56.6,87.05Z"/><path class="cls-3" d="M64,75.38a.85.85,0,0,1-1.15,1.25.83.83,0,0,1-.05-1.21A.81.81,0,0,1,64,75.38Zm6.09,7.68L64.49,78l.93-1L71,82.05Z"/><path class="cls-3" d="M66.3,72.85l1.56,1.5,1.37-1.41.75.72-1.36,1.42,2.93,2.83c.68.65,1.24.83,1.77.27a3.19,3.19,0,0,0,.49-.63l.78.67a3.28,3.28,0,0,1-.71,1,1.9,1.9,0,0,1-1.44.67,2.79,2.79,0,0,1-1.79-1l-3-2.86-.81.84-.75-.72.81-.85-1.3-1.25Z"/><path class="cls-3" d="M67.65,69.5l1-1,3.27,3.39,0,0a2.5,2.5,0,0,1,0-1.38,2.78,2.78,0,0,1,.74-1.25c.73-.71,2.33-1.39,4.14.49L80,73l-1,1-3-3.13c-.84-.87-1.88-1.3-2.82-.4a2,2,0,0,0-.37,2.27,1.83,1.83,0,0,0,.39.54l3.17,3.28-1,1Z"/><path class="cls-3" d="M78.17,61.59l1.43,1.64,1.48-1.29.69.79L80.28,64,83,67.1c.61.71,1.16.93,1.74.43a2.92,2.92,0,0,0,.54-.59l.72.74a3.55,3.55,0,0,1-.8.94,1.88,1.88,0,0,1-1.5.53A2.79,2.79,0,0,1,82,68l-2.7-3.11-.89.77-.68-.79.88-.77L77.4,62.74Z"/><path class="cls-3" d="M79.79,58.38l1.07-.86,3,3.67,0,0A2.51,2.51,0,0,1,84,59.8a2.88,2.88,0,0,1,.85-1.19c.79-.63,2.44-1.17,4.08.86L91.77,63l-1.07.86L88,60.46c-.76-1-1.76-1.47-2.77-.65A2,2,0,0,0,84.62,62a1.72,1.72,0,0,0,.34.57l2.87,3.55L86.76,67Z"/><path class="cls-3" d="M91.58,58.7a2.42,2.42,0,0,0,3.64.58,5,5,0,0,0,1.45-1.56l.78.65a6.14,6.14,0,0,1-1.75,1.87,3.5,3.5,0,0,1-5.25-.86c-1.36-1.84-1.34-4.08.43-5.38,2-1.47,3.8-.11,4.63,1a5.07,5.07,0,0,1,.34.54Zm2.66-3.18a2,2,0,0,0-2.86-.67,2.28,2.28,0,0,0-.37,3Z"/><path class="cls-3" d="M98.42,51.88c-.53-.81-1-1.45-1.4-2l1-.67.75,1,0,0a3,3,0,0,1,1.46-2.69c1.53-1,3.52-.44,4.77,1.49,1.48,2.28.82,4.3-.68,5.27a2.63,2.63,0,0,1-2.59.27l0,0L104,58l-1.14.74Zm2.23,1a2.64,2.64,0,0,0,.36.43,2.11,2.11,0,0,0,2.6.24c1.22-.79,1.28-2.25.34-3.7-.82-1.27-2.19-1.93-3.41-1.14a2.19,2.19,0,0,0-.82,2.56,1.84,1.84,0,0,0,.23.52Z"/><path class="cls-3" d="M102.51,42.19l1.17-.71,5.71,9.5-1.17.71Z"/><path class="cls-3" d="M114.53,48l-.57-.78,0,0a2.8,2.8,0,0,1-1.46,2.11,2.16,2.16,0,0,1-3.08-.76c-.89-1.6,0-3.26,2.59-4.68l-.08-.13a1.56,1.56,0,0,0-2.35-.69,3.73,3.73,0,0,0-1.44,1.46l-.72-.64a4.69,4.69,0,0,1,1.84-1.8c2-1.13,3.27,0,4,1.29l1.39,2.46a11.45,11.45,0,0,0,1,1.52Zm-2.07-3.26c-1.32.7-2.68,1.77-2,3a1.22,1.22,0,0,0,1.77.51,1.9,1.9,0,0,0,1-2,1.4,1.4,0,0,0-.15-.42Z"/><path class="cls-3" d="M113.84,39.82,117.35,43c.38.37.82.81,1.14,1.16l0,0c-.08-.46-.2-1-.28-1.62l-.69-4.63,1.3-.66.61,5.73c.31,2.76.31,4.24-.15,5.39A3.66,3.66,0,0,1,118.2,50l-.83-.87a3.59,3.59,0,0,0,.77-1.14,4.22,4.22,0,0,0,.33-1.89,1.1,1.1,0,0,0,0-.34,1.34,1.34,0,0,0-.25-.28l-5.66-4.93Z"/><path class="cls-3" d="M125.32,42.55c-.18-.48-.45-1.2-.72-1.81l-3.67-8.36,1.24-.55,1.91,4.35,0,0a2.8,2.8,0,0,1,1.8-2.3c1.71-.76,3.56.14,4.46,2.25,1.09,2.47.07,4.39-1.48,5.06a2.67,2.67,0,0,1-2.88-.28l0,0,.44,1.17Zm.09-3.34a2.34,2.34,0,0,0,.26.43,2.09,2.09,0,0,0,2.53.64c1.31-.57,1.63-2,.93-3.58-.6-1.38-1.84-2.26-3.18-1.67a2.19,2.19,0,0,0-1.24,2.39,2.35,2.35,0,0,0,.15.54Z"/><path class="cls-3" d="M138.18,35c.28.73.54,1.37.8,1.91l-1.14.43-.51-1.12h0a2.84,2.84,0,0,1-1.83,2.2c-1.11.43-2.68.33-3.62-2.16l-1.58-4.12,1.28-.49,1.5,3.9c.51,1.35,1.26,2.09,2.43,1.65a2,2,0,0,0,1.25-1.82,2.07,2.07,0,0,0-.14-.7l-1.66-4.33,1.29-.49Z"/><path class="cls-3" d="M138.93,26.68l.7,2.06,1.86-.64.34,1-1.86.64,1.31,3.86c.31.88.73,1.3,1.46,1a2.87,2.87,0,0,0,.72-.34l.39,1a3.27,3.27,0,0,1-1.09.57,1.89,1.89,0,0,1-1.59-.06,2.82,2.82,0,0,1-1.14-1.7l-1.34-3.9-1.1.38-.34-1,1.11-.38-.59-1.71Z"/><path class="cls-3" d="M143.56,25.18l.65,2.07,1.87-.59.32,1-1.88.59,1.21,3.89c.28.89.69,1.32,1.42,1.09a3,3,0,0,0,.74-.32l.36,1a3.11,3.11,0,0,1-1.1.54,2,2,0,0,1-1.59-.1,2.8,2.8,0,0,1-1.09-1.73l-1.23-3.93-1.12.35-.31-1,1.11-.35-.54-1.73Z"/><path class="cls-3" d="M154.75,28.12A3.69,3.69,0,0,1,152.18,33a3.61,3.61,0,0,1-4.52-2.8,3.7,3.7,0,0,1,2.56-4.86A3.57,3.57,0,0,1,154.75,28.12ZM149,29.77c.44,1.6,1.68,2.55,3,2.2s1.89-1.8,1.44-3.44c-.34-1.23-1.38-2.63-2.95-2.2S148.61,28.38,149,29.77Z"/><path class="cls-3" d="M155.69,26.18c-.17-.77-.33-1.39-.51-2l1.19-.26.35,1.2h0a2.78,2.78,0,0,1,2.13-1.93c1-.23,2.74,0,3.3,2.56l1,4.4-1.34.3-1-4.25c-.27-1.19-.93-2.08-2.2-1.8a2,2,0,0,0-1.49,1.78,2.09,2.09,0,0,0,.05.64l1,4.44-1.34.3Z"/><g class="cls-4"><path class="cls-3" d="M297.06,171.19l-.06-.05-10.62-8.34-.05,0-10-7.84-.15-.12,0,0L268.78,149l-5-3.88-12.61-9.81-10-7.79-1.74-1.34L218.53,110,216,108v4.68l2.27,1.78v.13l3.65,2.84,9.35,7.27,5.35,4.16.11.08,2.11,1.64,10,7.8,12.62,9.81,5,3.87,7.37,5.73,0,0,0,0h0l.13.1,10,7.84.06,0,.05,0L294.51,174h0l.18.14a13.25,13.25,0,0,1,.24,20.57,17,17,0,0,0-6-17.17l-.06-.05-10.62-8.34,0,0-10-7.84-.15-.13,0,0-7.38-5.74-5-3.87L243,141.74,233,134l-1.74-1.34L216,120.73v4.74l12.44,9.77.11.08,2.11,1.64,10,7.8,12.62,9.81,5,3.87,7.37,5.73,0,0h0l.13.1,10,7.84.06,0,.05,0,10.43,8.19h0l.18.14a13.27,13.27,0,0,1,3.37,16.8,12.35,12.35,0,0,1-2.71.43A17,17,0,0,0,280.72,184l-.06-.05L270,175.58l-.05,0-10-7.84-.15-.12,0,0-7.37-5.73-5-3.88-12.61-9.8-10-7.79L223.09,139l-7.1-5.53v4.81l4.27,3.35.11.09,2.11,1.64,10,7.79L245.12,161l5,3.88,7.37,5.73h0l0,0h0l.13.1,10,7.84.06.05.05,0,10.43,8.19h0l.17.14a13.16,13.16,0,0,1,5,10.48v0a13.27,13.27,0,0,1-4.94-2.33l-.12-.1-7.18-5.58-5-3.87-5.43-4.23-7.19-5.58-10-7.8-7.57-5.88-15.07-11.71L216,146.59v6.8H198.4V171H180.8v-17.6H163.2V171H145.6v17.6H128V297.37a15.18,15.18,0,0,0,24.45,12l13.11-10.09,45.11,13.27-18.61-33.69,3-2.31L198.4,274,216,260.46l1.92-1.48,15.68-12.08,7.16-5.52,7.88-6.07,2.56-2h0l12.4-9.55,5.19-4L278.93,212h0a17,17,0,0,0,1.61-1.1,18.22,18.22,0,0,0,1.47-1.28h0l4.36-3.36.06,0,0,0,1.07-.82a14.46,14.46,0,0,0,1.23-.87c.41-.31.8-.64,1.17-1v0l7-5.39A17.06,17.06,0,0,0,297.06,171.19Z"/><rect class="cls-3" x="128.01" y="118.2" width="17.59" height="17.6"/><polygon class="cls-3" points="145.6 83 145.56 83 128.01 83 128.01 100.6 145.6 100.6 145.6 83.04 145.6 83"/><rect class="cls-3" x="145.6" y="100.6" width="17.6" height="17.6"/><polygon class="cls-3" points="145.6 135.8 145.6 153.39 128 153.39 128 170.99 145.6 170.99 145.6 153.39 163.2 153.39 163.2 135.8 145.6 135.8"/><polygon class="cls-3" points="198.4 119.8 198.4 118.2 196.34 118.2 180.8 118.2 180.8 135.8 198.4 135.8 198.4 119.8"/></g></g></g></svg>