<svg id="Layer_1" data-name="Layer 1" xmlns="http://www.w3.org/2000/svg" viewBox="0 0 378.48 378.48"><defs><style>.cls-1{fill:#ddd;}.cls-2{fill:#1f67f8;}</style></defs><title>Artboard 24</title><circle class="cls-1" cx="189.24" cy="189.24" r="189.24"/><path class="cls-2" d="M163.2,16.76l-.64,3.43-1.39.19,2.11-10.92,1.63-.22,5,9.94-1.44.2-1.57-3.13Zm3.27-1.52L165,12.38c-.33-.65-.57-1.25-.8-1.83h0c-.07.64-.15,1.3-.26,2l-.61,3.16Z"/><path class="cls-2" d="M170.24,13.62c-.07-.77-.14-1.41-.24-2l1.21-.11.19,1.24h0a2.78,2.78,0,0,1,2.37-1.64c1-.09,2.71.39,2.94,3l.4,4.5-1.37.12-.38-4.34c-.11-1.21-.65-2.19-1.94-2.07a2,2,0,0,0-1.72,1.56,2.25,2.25,0,0,0,0,.65l.4,4.53-1.37.12Z"/><path class="cls-2" d="M185.46,14.32a3.69,3.69,0,0,1-3.59,4.17,3.59,3.59,0,0,1-3.79-3.73,3.7,3.7,0,0,1,3.58-4.17A3.58,3.58,0,0,1,185.46,14.32Zm-6,.33c.07,1.66,1.07,2.87,2.42,2.81s2.24-1.33,2.17-3c-.06-1.28-.77-2.88-2.39-2.81S179.41,13.22,179.47,14.65Z"/><path class="cls-2" d="M188.27,8.44l0,2.17,2,0v1.05l-2,0,.06,4.07c0,.94.29,1.47,1.06,1.45a2.73,2.73,0,0,0,.79-.11l.08,1a3.21,3.21,0,0,1-1.21.21,1.89,1.89,0,0,1-1.49-.55,2.82,2.82,0,0,1-.57-2L187,11.68l-1.17,0v-1l1.17,0,0-1.81Z"/><path class="cls-2" d="M191.68,7.07l1.37,0-.14,4.71h0a2.6,2.6,0,0,1,1-.93,2.85,2.85,0,0,1,1.42-.35c1,0,2.62.7,2.54,3.31l-.13,4.5-1.38-.05.13-4.33c0-1.22-.38-2.27-1.68-2.31A2,2,0,0,0,193,13a1.63,1.63,0,0,0-.11.66l-.14,4.55-1.38,0Z"/><path class="cls-2" d="M200.43,15a2.41,2.41,0,0,0,2.39,2.8,5,5,0,0,0,2.12-.23l.16,1a5.93,5.93,0,0,1-2.54.29,3.51,3.51,0,0,1-3.43-4.08c.17-2.27,1.64-4,3.83-3.8,2.46.18,3,2.39,2.86,3.78a4,4,0,0,1-.1.63Zm4.09-.69a2,2,0,0,0-1.74-2.37A2.27,2.27,0,0,0,200.52,14Z"/><path class="cls-2" d="M207.2,13.86c.1-.89.16-1.65.19-2.36l1.2.13-.11,1.48h.06a2.27,2.27,0,0,1,2.26-1.42,1.12,1.12,0,0,1,.38.09L211,13.08a1.75,1.75,0,0,0-.46-.1,1.92,1.92,0,0,0-2,1.56,3.32,3.32,0,0,0-.13.63l-.44,4L206.64,19Z"/><path class="cls-2" d="M214,18.49a3.6,3.6,0,0,0,1.71.81c1,.16,1.53-.27,1.62-.89s-.23-1.06-1.18-1.58c-1.27-.69-1.78-1.53-1.65-2.42a2.33,2.33,0,0,1,2.92-1.8,3.83,3.83,0,0,1,1.77.75l-.5.93a2.84,2.84,0,0,0-1.46-.66,1.11,1.11,0,0,0-1.41.82c-.09.62.31,1,1.23,1.49,1.22.69,1.78,1.44,1.61,2.55-.2,1.32-1.36,2.09-3.14,1.81a4.29,4.29,0,0,1-2-.83Z"/><path class="cls-2" d="M222.86,11.53l-.39,2.14,1.93.35-.19,1-1.93-.36-.74,4c-.17.92,0,1.49.74,1.63a2.67,2.67,0,0,0,.8.05l-.12,1a3.27,3.27,0,0,1-1.23,0,1.94,1.94,0,0,1-1.36-.84,2.81,2.81,0,0,1-.16-2l.75-4.05-1.15-.21.19-1,1.15.21.33-1.78Z"/><path class="cls-2" d="M231.4,19.35a3.71,3.71,0,0,1-4.55,3.1,3.6,3.6,0,0,1-2.69-4.59,3.7,3.7,0,0,1,4.53-3.1A3.58,3.58,0,0,1,231.4,19.35Zm-5.87-1.23c-.36,1.62.3,3,1.61,3.33s2.51-.7,2.88-2.36c.27-1.25,0-3-1.58-3.33S225.84,16.72,225.53,18.12Z"/><path class="cls-2" d="M233,18.38c.23-.86.41-1.61.54-2.3l1.16.31-.33,1.44.06,0a2.25,2.25,0,0,1,2.44-1.07,1.43,1.43,0,0,1,.37.14l-.33,1.26a2,2,0,0,0-.44-.17,1.93,1.93,0,0,0-2.23,1.24,3.92,3.92,0,0,0-.22.61l-1,3.89-1.31-.34Z"/><path class="cls-2" d="M239.11,17.57l.31,4.76c0,.53,0,1.15,0,1.62h0c.26-.4.58-.91.91-1.38l2.71-3.82,1.39.42L241,23.75c-1.68,2.2-2.71,3.28-3.84,3.8a3.89,3.89,0,0,1-1.87.37V26.71a3.77,3.77,0,0,0,1.35-.3,4.27,4.27,0,0,0,1.55-1.14.92.92,0,0,0,.19-.28,1,1,0,0,0,0-.37l-.69-7.48Z"/><path class="cls-2" d="M250.38,18.92l-.72,2,1.85.65-.34,1L249.31,22,248,25.8c-.31.88-.24,1.47.48,1.73a2.88,2.88,0,0,0,.79.17l-.29,1a3.67,3.67,0,0,1-1.21-.23,1.92,1.92,0,0,1-1.2-1,2.74,2.74,0,0,1,.15-2L248,21.51l-1.1-.39.35-1,1.1.39.61-1.71Z"/><path class="cls-2" d="M254,18.75l1.27.51-1.73,4.38,0,0a2.43,2.43,0,0,1,1.27-.54,2.81,2.81,0,0,1,1.45.15c.94.38,2.22,1.56,1.26,4l-1.65,4.19-1.28-.51,1.6-4c.45-1.13.4-2.26-.8-2.73a2,2,0,0,0-2.22.59,1.77,1.77,0,0,0-.33.58l-1.68,4.24-1.28-.5Z"/><path class="cls-2" d="M261.19,33.79l.29-.91,0,0a2.82,2.82,0,0,1-2.57.08A2.14,2.14,0,0,1,257.65,30c.74-1.67,2.63-1.92,5.29-.71l.07-.15a1.56,1.56,0,0,0-.86-2.29,3.69,3.69,0,0,0-2-.29l.08-1a4.73,4.73,0,0,1,2.54.4c2.11.95,2,2.62,1.36,4L263,32.6a10.94,10.94,0,0,0-.63,1.7Zm1.39-3.6c-1.35-.64-3-1.09-3.61.24a1.21,1.21,0,0,0,.64,1.73,1.88,1.88,0,0,0,2.19-.41,1.67,1.67,0,0,0,.25-.36Z"/><path class="cls-2" d="M269.39,26.91l-.95,2,1.77.86-.46.94L268,29.81l-1.78,3.66c-.41.84-.41,1.44.28,1.77a3.2,3.2,0,0,0,.76.27l-.4,1a3.4,3.4,0,0,1-1.17-.36,1.89,1.89,0,0,1-1.08-1.17,2.75,2.75,0,0,1,.38-2l1.8-3.71-1-.51.46-.94,1.05.51.8-1.63Z"/><path class="cls-2" d="M270.77,36.94a3.63,3.63,0,0,0,1.33,1.35c.88.48,1.53.27,1.83-.28s.14-1.08-.57-1.9c-1-1.07-1.16-2-.73-2.83a2.34,2.34,0,0,1,3.35-.7,3.83,3.83,0,0,1,1.41,1.3l-.78.72a2.93,2.93,0,0,0-1.15-1.13,1.1,1.1,0,0,0-1.6.3c-.3.55,0,1,.64,1.81.92,1.07,1.19,2,.65,3-.63,1.17-2,1.5-3.56.64A4.34,4.34,0,0,1,270,37.7Z"/><path class="cls-2" d="M281.51,33.41l-1.09,1.88,1.7,1-.53.91-1.7-1-2.06,3.52c-.47.81-.51,1.4.15,1.79a2.87,2.87,0,0,0,.73.32l-.46.92a3.3,3.3,0,0,1-1.15-.45,1.9,1.9,0,0,1-1-1.25,2.82,2.82,0,0,1,.54-2l2.08-3.56-1-.59.52-.9,1,.59.91-1.57Z"/><path class="cls-2" d="M282.7,45.55l.41-.86,0,0a2.78,2.78,0,0,1-2.55-.28,2.15,2.15,0,0,1-.8-3.07c1-1.54,2.88-1.52,5.35,0l.08-.13a1.56,1.56,0,0,0-.52-2.4,3.8,3.8,0,0,0-2-.57l.22-.94a4.69,4.69,0,0,1,2.46.76c2,1.23,1.59,2.87.78,4.15l-1.5,2.39a11.79,11.79,0,0,0-.87,1.6Zm1.88-3.37c-1.25-.82-2.83-1.51-3.61-.27a1.22,1.22,0,0,0,.39,1.81,1.88,1.88,0,0,0,2.22-.1,1.17,1.17,0,0,0,.3-.33Z"/><path class="cls-2" d="M287.92,42.76c.5-.74.91-1.38,1.27-2l1,.68-.79,1.25.05,0a2.26,2.26,0,0,1,2.66-.2,1.56,1.56,0,0,1,.3.26l-.73,1.07a2.28,2.28,0,0,0-.36-.3,1.94,1.94,0,0,0-2.52.43,4.4,4.4,0,0,0-.41.49l-2.26,3.34L285,47.06Z"/><path class="cls-2" d="M296.08,42.91l-1.27,1.76,1.6,1.15-.61.85-1.6-1.15-2.38,3.31c-.55.76-.65,1.35,0,1.8a3.27,3.27,0,0,0,.7.39l-.55.87a3.44,3.44,0,0,1-1.1-.56A1.91,1.91,0,0,1,290,50a2.79,2.79,0,0,1,.72-1.9l2.41-3.35-.95-.68.61-.85,1,.68,1.06-1.47Z"/><path class="cls-2" d="M293.5,51.33a3.63,3.63,0,0,0,1.1,1.54c.8.6,1.47.49,1.85,0s.31-1-.27-2c-.78-1.21-.84-2.19-.29-2.91a2.34,2.34,0,0,1,3.42-.18,3.78,3.78,0,0,1,1.19,1.5l-.88.59a2.92,2.92,0,0,0-1-1.29,1.11,1.11,0,0,0-1.63.05c-.38.5-.19,1,.36,1.89.74,1.19.87,2.12.19,3-.81,1.06-2.19,1.17-3.62.08a4.24,4.24,0,0,1-1.37-1.7Z"/><path class="cls-2" d="M304.79,52.37,303,55.92c-.39.78-.75,1.5-1.16,2.18l0,0c.63-.47,1.35-.92,2.07-1.36l3.47-2.1.87.76-1.6,3.62c-.39.87-.74,1.61-1.12,2.3l0,0a23.64,23.64,0,0,1,2-1.47L311,57.77l1,.9-6.8,4.09-.94-.82,1.5-3.48a22.37,22.37,0,0,1,1.13-2.31l0,0a21.2,21.2,0,0,1-2.16,1.43l-3.28,1.9-.94-.82,3.25-7.19Z"/><path class="cls-2" d="M307.55,65l5.19-5.5,1,.95-5.19,5.49Zm7.76-6a.85.85,0,0,1-1.24-1.17.84.84,0,0,1,1.22,0A.82.82,0,0,1,315.31,59Z"/><path class="cls-2" d="M317.8,61.33l-1.52,1.54,1.4,1.39-.74.74-1.4-1.38-2.86,2.9c-.66.66-.84,1.23-.3,1.76a3,3,0,0,0,.64.5l-.68.78a3.29,3.29,0,0,1-1-.73,1.88,1.88,0,0,1-.65-1.45,2.82,2.82,0,0,1,1-1.77l2.9-2.94-.83-.82.73-.74.83.82,1.28-1.29Z"/><path class="cls-2" d="M321.14,62.73l.94,1L318.65,67l0,0a2.5,2.5,0,0,1,1.38.05,2.86,2.86,0,0,1,1.25.75c.69.74,1.35,2.35-.55,4.14L317.48,75l-1-1,3.17-3c.88-.83,1.32-1.86.43-2.81a2,2,0,0,0-2.26-.4,1.62,1.62,0,0,0-.54.38L314,71.33l-.94-1Z"/><path class="cls-2" d="M328.89,73.33l-1.66,1.4,1.27,1.5-.8.68-1.27-1.5L323.32,78c-.71.6-.95,1.15-.45,1.73a3,3,0,0,0,.58.55l-.74.71a3.16,3.16,0,0,1-.93-.81,1.85,1.85,0,0,1-.52-1.5A2.83,2.83,0,0,1,322.42,77l3.14-2.66-.75-.89.8-.68.75.89,1.38-1.17Z"/><path class="cls-2" d="M332.07,75l.85,1.08L329.21,79l0,0a2.52,2.52,0,0,1,1.37.18,2.82,2.82,0,0,1,1.18.86c.62.8,1.13,2.47-.92,4.08l-3.53,2.77-.85-1.08,3.41-2.68c1-.75,1.49-1.74.69-2.76a2,2,0,0,0-2.22-.6,1.55,1.55,0,0,0-.57.33l-3.59,2.81-.85-1.08Z"/><path class="cls-2" d="M331.63,86.8a2.42,2.42,0,0,0-.62,3.63,4.92,4.92,0,0,0,1.53,1.48l-.66.76A6,6,0,0,1,330,90.9a3.51,3.51,0,0,1,.94-5.24c1.85-1.33,4.09-1.28,5.37.51,1.44,2,.06,3.8-1.07,4.61a4.57,4.57,0,0,1-.55.33Zm3.15,2.7a2,2,0,0,0,.7-2.85,2.27,2.27,0,0,0-3-.41Z"/><path class="cls-2" d="M338.36,93.73c.82-.52,1.47-1,2.06-1.37l.66,1-1.07.74,0,0a3,3,0,0,1,2.67,1.49c1,1.55.4,3.54-1.55,4.76-2.3,1.45-4.32.76-5.27-.75a2.66,2.66,0,0,1-.23-2.6l0,0-3.48,2.19-.72-1.15Zm-1,2.22a3.26,3.26,0,0,0-.44.36,2.11,2.11,0,0,0-.27,2.6c.78,1.23,2.23,1.31,3.7.39,1.28-.81,2-2.17,1.18-3.4A2.19,2.19,0,0,0,339,95a2.14,2.14,0,0,0-.52.22Z"/><path class="cls-2" d="M348,97.92l.69,1.19-9.58,5.59-.69-1.19Z"/><path class="cls-2" d="M342,109.9l.78-.55,0,0a2.82,2.82,0,0,1-2.09-1.5,2.15,2.15,0,0,1,.8-3.07c1.6-.87,3.26.08,4.64,2.65l.14-.07A1.56,1.56,0,0,0,347,105a3.72,3.72,0,0,0-1.43-1.46l.64-.71a4.71,4.71,0,0,1,1.78,1.86c1.11,2,0,3.28-1.34,4L344.13,110a9.65,9.65,0,0,0-1.53,1Zm3.29-2c-.69-1.33-1.74-2.7-3-2a1.21,1.21,0,0,0-.53,1.76,1.87,1.87,0,0,0,2,1,1.3,1.3,0,0,0,.42-.14Z"/><path class="cls-2" d="M350.21,109.3l-3.27,3.46c-.37.38-.82.81-1.17,1.12l0,0c.46-.07,1-.19,1.62-.27l4.64-.62.65,1.3-5.74.54c-2.76.27-4.25.26-5.39-.22a3.77,3.77,0,0,1-1.55-1.11l.88-.83a3.6,3.6,0,0,0,1.14.78,4.08,4.08,0,0,0,1.88.36.9.9,0,0,0,.34,0,1,1,0,0,0,.28-.24l5-5.59Z"/><path class="cls-2" d="M347.33,120.75c.49-.17,1.2-.44,1.82-.7l8.42-3.57.53,1.26-4.37,1.85v0a2.8,2.8,0,0,1,2.28,1.83c.73,1.72-.19,3.56-2.31,4.44-2.49,1-4.39,0-5-1.55a2.7,2.7,0,0,1,.33-2.88l0,0-1.18.43Zm3.35.13a2.65,2.65,0,0,0-.44.25,2.13,2.13,0,0,0-.68,2.53c.56,1.32,2,1.66,3.57,1,1.4-.59,2.29-1.82,1.72-3.17a2.2,2.2,0,0,0-2.37-1.27,2.28,2.28,0,0,0-.55.15Z"/><path class="cls-2" d="M354.66,133.69c-.73.27-1.37.52-1.92.77l-.42-1.15,1.14-.5v0a2.84,2.84,0,0,1-2.19-1.86c-.41-1.11-.28-2.67,2.21-3.59l4.15-1.52.48,1.29-3.93,1.44c-1.35.5-2.11,1.24-1.68,2.41a2,2,0,0,0,1.8,1.28,2,2,0,0,0,.7-.13l4.36-1.6.47,1.29Z"/><path class="cls-2" d="M363,134.55l-2.06.67.61,1.88-1,.32-.62-1.87-3.87,1.27c-.89.29-1.31.71-1.08,1.43a3.4,3.4,0,0,0,.34.73l-1,.38a3.35,3.35,0,0,1-.56-1.1,1.92,1.92,0,0,1,.09-1.59,2.82,2.82,0,0,1,1.71-1.12l3.92-1.28-.37-1.11,1-.33.36,1.12,1.72-.56Z"/><path class="cls-2" d="M364.46,139.21l-2.08.62.56,1.88-1,.3-.56-1.89-3.91,1.17c-.9.27-1.33.67-1.11,1.41a3.14,3.14,0,0,0,.31.73l-1,.35a3.29,3.29,0,0,1-.52-1.11,1.87,1.87,0,0,1,.13-1.59A2.83,2.83,0,0,1,357,140l3.95-1.17-.33-1.13,1-.29.34,1.12,1.73-.52Z"/><path class="cls-2" d="M361.38,150.37a3.7,3.7,0,0,1-4.83-2.64,3.6,3.6,0,0,1,2.86-4.48,3.69,3.69,0,0,1,4.82,2.63A3.56,3.56,0,0,1,361.38,150.37Zm-1.58-5.78c-1.6.41-2.57,1.65-2.24,2.95s1.77,1.91,3.42,1.49c1.24-.33,2.65-1.35,2.25-2.92S361.19,144.23,359.8,144.59Z"/><path class="cls-2" d="M363.3,151.31c.76-.15,1.39-.3,2-.47l.25,1.19-1.21.33v0a2.78,2.78,0,0,1,1.9,2.16c.21,1-.07,2.74-2.61,3.27l-4.41.92-.28-1.35,4.26-.89c1.19-.24,2.1-.9,1.83-2.16a1.94,1.94,0,0,0-1.75-1.52,1.85,1.85,0,0,0-.65,0l-4.45.93-.28-1.35Z"/><path class="cls-2" d="M363.52,164.36l-3.43-.62-.2-1.39,10.92,2.06L371,166l-9.92,5-.2-1.43,3.12-1.58Zm1.53,3.26,2.86-1.44c.64-.33,1.24-.57,1.82-.81v0c-.64-.07-1.3-.15-2-.26l-3.16-.59Z"/><path class="cls-2" d="M366.68,171.38c.78-.07,1.41-.14,2-.25l.11,1.22-1.24.19v0a2.77,2.77,0,0,1,1.64,2.36c.1,1-.37,2.71-3,2.95l-4.49.42-.13-1.37,4.34-.4c1.21-.11,2.18-.66,2.07-1.95a2,2,0,0,0-1.57-1.71,2.27,2.27,0,0,0-.65,0l-4.52.42-.13-1.37Z"/><path class="cls-2" d="M366,186.59a3.7,3.7,0,0,1-4.18-3.57,3.59,3.59,0,0,1,3.72-3.8,3.69,3.69,0,0,1,4.18,3.56A3.58,3.58,0,0,1,366,186.59Zm-.35-6c-1.65.07-2.86,1.08-2.8,2.42s1.34,2.24,3,2.16c1.28-.06,2.87-.77,2.8-2.4S367.12,180.54,365.69,180.61Z"/><path class="cls-2" d="M371.94,189.42l-2.17,0,0,2-1,0,0-2-4.08.07c-.93,0-1.46.29-1.45,1.06a3.22,3.22,0,0,0,.11.79l-1,.08a3.44,3.44,0,0,1-.21-1.22,1.94,1.94,0,0,1,.55-1.49,2.77,2.77,0,0,1,2-.56l4.12-.07,0-1.17,1.05,0,0,1.17,1.81,0Z"/><path class="cls-2" d="M373.33,192.78l0,1.37-4.71-.12v0a2.55,2.55,0,0,1,.94,1,2.9,2.9,0,0,1,.36,1.41c0,1-.7,2.63-3.3,2.56l-4.5-.11,0-1.38,4.34.11c1.21,0,2.26-.39,2.29-1.69a2,2,0,0,0-1.33-1.88,1.76,1.76,0,0,0-.65-.11l-4.56-.11,0-1.38Z"/><path class="cls-2" d="M365.46,201.61a2.42,2.42,0,0,0-2.8,2.4,4.79,4.79,0,0,0,.25,2.11l-1,.17a5.93,5.93,0,0,1-.29-2.54,3.5,3.5,0,0,1,4.05-3.44c2.28.15,4,1.62,3.82,3.81-.17,2.47-2.38,3-3.76,2.87a4.62,4.62,0,0,1-.64-.09Zm.7,4.08a2,2,0,0,0,2.36-1.74,2.27,2.27,0,0,0-2.08-2.26Z"/><path class="cls-2" d="M366.61,208.35c.88.09,1.65.15,2.35.18l-.12,1.2-1.48-.11v.06a2.29,2.29,0,0,1,1.43,2.25,1.4,1.4,0,0,1-.09.39l-1.29-.14a1.75,1.75,0,0,0,.1-.46,1.92,1.92,0,0,0-1.57-2,3.49,3.49,0,0,0-.63-.13l-4-.42.15-1.35Z"/><path class="cls-2" d="M362,215.12a3.51,3.51,0,0,0-.81,1.71c-.15,1,.27,1.52.89,1.62s1.06-.24,1.58-1.19c.68-1.27,1.52-1.79,2.42-1.66a2.34,2.34,0,0,1,1.8,2.91,3.73,3.73,0,0,1-.74,1.77l-.93-.49a3,3,0,0,0,.66-1.46,1.12,1.12,0,0,0-.83-1.41c-.62-.09-1,.32-1.48,1.24-.69,1.22-1.44,1.79-2.55,1.62-1.32-.2-2.09-1.36-1.82-3.13a4.38,4.38,0,0,1,.82-2Z"/><path class="cls-2" d="M369,224l-2.14-.39-.35,1.94-1-.19.34-1.93-4-.73c-.93-.16-1.5,0-1.63.76a2.65,2.65,0,0,0-.05.8l-1-.13a3.45,3.45,0,0,1,0-1.23,1.89,1.89,0,0,1,.84-1.35,2.74,2.74,0,0,1,2-.18l4.05.74.21-1.16,1,.19-.21,1.15,1.79.32Z"/><path class="cls-2" d="M361.22,232.58a3.69,3.69,0,0,1-3.12-4.53,3.59,3.59,0,0,1,4.57-2.71,3.69,3.69,0,0,1,3.13,4.52A3.59,3.59,0,0,1,361.22,232.58Zm1.2-5.87c-1.61-.36-3,.31-3.32,1.62s.71,2.51,2.38,2.87c1.25.27,3,0,3.32-1.59S363.83,227,362.42,226.71Z"/><path class="cls-2" d="M362.2,234.18c.86.22,1.6.39,2.29.52l-.29,1.17-1.45-.33,0,.06a2.29,2.29,0,0,1,1.09,2.44,1.79,1.79,0,0,1-.15.37l-1.25-.32a2.56,2.56,0,0,0,.16-.45,1.93,1.93,0,0,0-1.25-2.22,3.92,3.92,0,0,0-.61-.22l-3.9-1,.34-1.31Z"/><path class="cls-2" d="M363,240.26l-4.75.32c-.53,0-1.15,0-1.62,0v0c.4.27.91.58,1.38.91l3.83,2.69-.41,1.4-4.59-3.5c-2.21-1.68-3.29-2.7-3.8-3.83a3.69,3.69,0,0,1-.38-1.87h1.2a3.56,3.56,0,0,0,.31,1.34,4,4,0,0,0,1.14,1.54,1.06,1.06,0,0,0,.28.2,1.08,1.08,0,0,0,.38,0l7.47-.71Z"/><path class="cls-2" d="M361.73,251.54l-2.05-.72-.65,1.86-1-.34.65-1.86-3.84-1.34c-.89-.31-1.48-.23-1.73.49a2.83,2.83,0,0,0-.17.78l-1-.28a3.38,3.38,0,0,1,.23-1.21,1.9,1.9,0,0,1,1-1.21,2.74,2.74,0,0,1,2,.15l3.89,1.35.39-1.1,1,.34-.39,1.11,1.71.59Z"/><path class="cls-2" d="M361.9,255.16l-.5,1.28L357,254.72v0a2.52,2.52,0,0,1,.54,1.26,2.83,2.83,0,0,1-.15,1.46c-.37.94-1.54,2.23-4,1.27l-4.19-1.63.5-1.28,4,1.58c1.13.44,2.26.4,2.73-.81a2,2,0,0,0-.61-2.22,1.6,1.6,0,0,0-.58-.32l-4.24-1.67.5-1.28Z"/><path class="cls-2" d="M346.9,262.45l.91.29,0-.05a2.81,2.81,0,0,1-.09-2.57,2.15,2.15,0,0,1,2.92-1.23c1.67.74,1.93,2.63.73,5.29l.14.06a1.56,1.56,0,0,0,2.3-.86,3.8,3.8,0,0,0,.28-2l1,.09a4.74,4.74,0,0,1-.4,2.54c-.93,2.11-2.6,2-4,1.37l-2.58-1.14a12,12,0,0,0-1.71-.62Zm3.61,1.37c.63-1.35,1.08-3-.26-3.61a1.22,1.22,0,0,0-1.73.65,1.88,1.88,0,0,0,.42,2.19,1.24,1.24,0,0,0,.37.24Z"/><path class="cls-2" d="M353.81,270.63l-2-.95-.85,1.78-.95-.46.86-1.77-3.67-1.77c-.85-.41-1.44-.4-1.77.29a3.2,3.2,0,0,0-.27.76l-.95-.4a3.4,3.4,0,0,1,.36-1.17,1.88,1.88,0,0,1,1.17-1.09,2.76,2.76,0,0,1,2,.38l3.71,1.79L352,267l.94.46-.5,1.05,1.63.79Z"/><path class="cls-2" d="M343.8,272a3.54,3.54,0,0,0-1.34,1.33c-.48.88-.26,1.53.29,1.83s1.08.14,1.89-.58c1.07-1,2-1.17,2.83-.74a2.33,2.33,0,0,1,.72,3.35,3.75,3.75,0,0,1-1.3,1.41l-.71-.78a3,3,0,0,0,1.12-1.15,1.11,1.11,0,0,0-.31-1.6c-.55-.3-1,0-1.81.65-1.06.92-2,1.2-2.95.67-1.17-.63-1.5-2-.65-3.57a4.31,4.31,0,0,1,1.46-1.62Z"/><path class="cls-2" d="M347.36,282.77l-1.88-1.09-1,1.7-.9-.52,1-1.7-3.52-2.05c-.82-.47-1.41-.5-1.79.16a3.13,3.13,0,0,0-.32.74l-.92-.47a3.27,3.27,0,0,1,.44-1.14,1.94,1.94,0,0,1,1.25-1,2.81,2.81,0,0,1,2,.53l3.57,2.06.58-1,.91.52-.59,1,1.57.91Z"/><path class="cls-2" d="M335.26,284l.86.41,0,0a2.8,2.8,0,0,1,.27-2.55,2.15,2.15,0,0,1,3.06-.81c1.55,1,1.54,2.87,0,5.34l.13.08a1.57,1.57,0,0,0,2.4-.53,3.76,3.76,0,0,0,.56-2l.93.22a4.68,4.68,0,0,1-.74,2.46c-1.22,2-2.86,1.6-4.15.8l-2.39-1.5a11.5,11.5,0,0,0-1.6-.85Zm3.38,1.87c.82-1.25,1.49-2.84.25-3.62a1.22,1.22,0,0,0-1.8.41,1.9,1.9,0,0,0,.1,2.22,1.87,1.87,0,0,0,.33.3Z"/><path class="cls-2" d="M338.06,289.2c.74.49,1.38.91,2,1.26l-.67,1-1.26-.79,0,.05a2.26,2.26,0,0,1,.2,2.66,1.53,1.53,0,0,1-.25.3L337,293a1.66,1.66,0,0,0,.3-.37,1.91,1.91,0,0,0-.44-2.51,3.53,3.53,0,0,0-.49-.41L333,287.42l.76-1.13Z"/><path class="cls-2" d="M337.91,297.38l-1.76-1.26-1.15,1.6-.85-.6,1.14-1.61L332,293.14c-.77-.54-1.35-.63-1.8,0a3,3,0,0,0-.38.7l-.88-.55a3.54,3.54,0,0,1,.56-1.1,1.89,1.89,0,0,1,1.33-.87,2.83,2.83,0,0,1,1.91.71l3.36,2.4.68-.95.85.61-.68.95,1.47,1.05Z"/><path class="cls-2" d="M329.51,294.81a3.5,3.5,0,0,0-1.53,1.11c-.61.8-.49,1.47,0,1.85s1,.3,2-.28c1.21-.79,2.19-.84,2.91-.3a2.34,2.34,0,0,1,.19,3.42,3.77,3.77,0,0,1-1.5,1.2l-.58-.88a3,3,0,0,0,1.28-1,1.1,1.1,0,0,0-.06-1.63c-.49-.37-1-.18-1.88.37-1.2.75-2.12.88-3,.2-1.06-.8-1.18-2.19-.09-3.62a4.34,4.34,0,0,1,1.69-1.38Z"/><path class="cls-2" d="M328.54,306.08,325,304.32c-.78-.38-1.5-.74-2.19-1.14l0,0c.47.63.92,1.35,1.37,2.07l2.11,3.46-.75.87L321.86,308c-.87-.38-1.61-.74-2.3-1.11l0,0a23.39,23.39,0,0,1,1.47,2l2.17,3.3-.89,1-4.12-6.79.81-.94,3.49,1.48a24.5,24.5,0,0,1,2.31,1.12l0,0a23.83,23.83,0,0,1-1.44-2.16l-1.92-3.27.82-.94,7.21,3.22Z"/><path class="cls-2" d="M316,308.92l5.52,5.17-.94,1L315,309.92Zm6,7.74a.85.85,0,0,1,1.16-1.25.83.83,0,0,1,0,1.22A.82.82,0,0,1,322,316.66Z"/><path class="cls-2" d="M319.61,319.16l-1.55-1.52-1.37,1.41-.75-.73,1.37-1.41-2.91-2.85c-.67-.66-1.23-.84-1.77-.29a3.19,3.19,0,0,0-.49.63l-.78-.67a3.42,3.42,0,0,1,.72-1,1.93,1.93,0,0,1,1.45-.65,2.75,2.75,0,0,1,1.78,1l2.94,2.88.82-.84.75.74-.82.83,1.3,1.27Z"/><path class="cls-2" d="M318.26,322.48l-1,.94L314,320l0,0a2.5,2.5,0,0,1-.05,1.38,2.76,2.76,0,0,1-.75,1.25c-.73.7-2.34,1.36-4.14-.53L306,318.87l1-.95,3,3.15c.84.89,1.88,1.32,2.82.43a2,2,0,0,0,.39-2.27,1.62,1.62,0,0,0-.38-.54l-3.15-3.3,1-.95Z"/><path class="cls-2" d="M307.67,330.29l-1.41-1.65-1.5,1.28-.68-.8,1.5-1.27-2.65-3.1c-.61-.71-1.15-.95-1.73-.45a2.75,2.75,0,0,0-.55.59l-.72-.74a3.3,3.3,0,0,1,.81-.94,1.92,1.92,0,0,1,1.5-.52,2.76,2.76,0,0,1,1.68,1.15L306.6,327l.89-.76.68.8-.89.76,1.18,1.38Z"/><path class="cls-2" d="M306,333.48l-1.07.86-2.93-3.7,0,0a2.51,2.51,0,0,1-.17,1.37,2.73,2.73,0,0,1-.86,1.18c-.79.63-2.45,1.15-4.07-.89l-2.8-3.53,1.08-.85,2.7,3.4c.75,1,1.75,1.48,2.76.68a2,2,0,0,0,.59-2.23,1.55,1.55,0,0,0-.33-.57l-2.83-3.57,1.07-.86Z"/><path class="cls-2" d="M294.21,333.09a2.42,2.42,0,0,0-3.64-.6A4.88,4.88,0,0,0,289.1,334l-.76-.66a5.94,5.94,0,0,1,1.76-1.85,3.5,3.5,0,0,1,5.24.9c1.34,1.85,1.3,4.09-.48,5.38-2,1.45-3.8.08-4.62-1.05a5.21,5.21,0,0,1-.33-.55Zm-2.69,3.16a2,2,0,0,0,2.85.69,2.27,2.27,0,0,0,.4-3Z"/><path class="cls-2" d="M287.33,339.83c.52.82,1,1.46,1.38,2.05l-1,.66-.75-1.06,0,0a3,3,0,0,1-1.49,2.68c-1.54,1-3.53.41-4.76-1.53-1.46-2.29-.78-4.31.72-5.27a2.68,2.68,0,0,1,2.61-.24l0,0-2.2-3.47,1.15-.73Zm-2.22-1a3.26,3.26,0,0,0-.36-.44,2.11,2.11,0,0,0-2.6-.25c-1.23.78-1.3,2.23-.37,3.69.81,1.28,2.18,1.95,3.4,1.17a2.2,2.2,0,0,0,.85-2.55,2.74,2.74,0,0,0-.23-.53Z"/><path class="cls-2" d="M283.16,349.5l-1.18.7-5.64-9.56,1.19-.7Z"/><path class="cls-2" d="M271.18,343.54l.56.78,0,0a2.82,2.82,0,0,1,1.48-2.1,2.15,2.15,0,0,1,3.07.79c.89,1.6-.05,3.26-2.62,4.66l.07.13a1.57,1.57,0,0,0,2.35.71,3.77,3.77,0,0,0,1.46-1.45l.71.65a4.75,4.75,0,0,1-1.85,1.78c-2,1.12-3.28,0-4-1.32l-1.37-2.48a10.83,10.83,0,0,0-1-1.52Zm2,3.29c1.33-.7,2.69-1.76,2-3a1.23,1.23,0,0,0-1.77-.53,1.89,1.89,0,0,0-1,2,1.28,1.28,0,0,0,.14.43Z"/><path class="cls-2" d="M271.79,351.77l-3.48-3.25c-.37-.37-.81-.82-1.12-1.17h0c.08.47.2,1.06.27,1.63l.65,4.64-1.3.65-.57-5.74c-.28-2.76-.27-4.25.2-5.39a3.77,3.77,0,0,1,1.11-1.55l.83.88a3.54,3.54,0,0,0-.78,1.13,4.31,4.31,0,0,0-.35,1.89,1.22,1.22,0,0,0,0,.34,1.3,1.3,0,0,0,.25.28l5.61,5Z"/><path class="cls-2" d="M260.33,348.94c.17.48.45,1.2.71,1.82l3.6,8.4-1.25.53-1.87-4.37,0,0a2.81,2.81,0,0,1-1.82,2.29c-1.72.74-3.56-.18-4.45-2.29-1.06-2.49,0-4.39,1.52-5.06a2.72,2.72,0,0,1,2.89.31h0l-.43-1.18Zm-.11,3.34a2.58,2.58,0,0,0-.26-.43,2.1,2.1,0,0,0-2.53-.67c-1.32.56-1.65,2-1,3.57.59,1.4,1.82,2.28,3.17,1.7a2.19,2.19,0,0,0,1.26-2.37,2.28,2.28,0,0,0-.15-.55Z"/><path class="cls-2" d="M247.43,356.32c-.27-.73-.52-1.37-.77-1.91l1.14-.42.5,1.13h0a2.83,2.83,0,0,1,1.85-2.19c1.11-.42,2.67-.3,3.6,2.19l1.55,4.14-1.29.48-1.46-3.92c-.51-1.35-1.25-2.11-2.43-1.67a2,2,0,0,0-1.26,1.81,2.32,2.32,0,0,0,.13.7l1.62,4.34-1.28.49Z"/><path class="cls-2" d="M246.57,364.69l-.68-2.06-1.87.62-.33-1,1.87-.62-1.28-3.87c-.3-.89-.72-1.32-1.44-1.07a3.47,3.47,0,0,0-.73.33l-.38-.95a3.27,3.27,0,0,1,1.09-.57,1.88,1.88,0,0,1,1.59.09,2.77,2.77,0,0,1,1.13,1.7l1.3,3.91,1.11-.36.33,1-1.12.37.57,1.72Z"/><path class="cls-2" d="M242,366.15l-.62-2.08-1.89.57-.3-1,1.88-.57-1.18-3.9c-.27-.9-.68-1.33-1.41-1.11a3.56,3.56,0,0,0-.73.32l-.36-1a3.26,3.26,0,0,1,1.11-.54A1.91,1.91,0,0,1,240,357a2.81,2.81,0,0,1,1.08,1.73l1.19,3.95,1.12-.34.3,1-1.12.34.53,1.73Z"/><path class="cls-2" d="M230.78,363.11a3.69,3.69,0,0,1,2.62-4.84,3.59,3.59,0,0,1,4.49,2.84,3.69,3.69,0,0,1-2.6,4.83A3.58,3.58,0,0,1,230.78,363.11Zm5.78-1.6c-.42-1.6-1.66-2.57-3-2.23s-1.91,1.78-1.47,3.42c.32,1.24,1.35,2.65,2.92,2.24S236.92,362.9,236.56,361.51Z"/><path class="cls-2" d="M229.83,365c.16.77.31,1.39.48,2l-1.19.26-.33-1.21h0a2.76,2.76,0,0,1-2.14,1.91c-1,.22-2.74-.05-3.29-2.59l-.94-4.41,1.34-.29.92,4.26c.25,1.19.9,2.09,2.17,1.82a2,2,0,0,0,1.51-1.76,1.85,1.85,0,0,0,0-.65l-.95-4.44,1.34-.29Z"/><path class="cls-2" d="M216.79,365.32l.6-3.44,1.39-.2-2,10.94-1.62.23-5.08-9.9,1.44-.21,1.59,3.12Zm-3.27,1.55,1.46,2.85c.33.64.58,1.24.82,1.82h0c.07-.64.14-1.3.25-2l.58-3.16Z"/><path class="cls-2" d="M209.78,368.51c.07.78.15,1.41.26,2l-1.21.12-.2-1.24h0a2.8,2.8,0,0,1-2.36,1.66c-1,.1-2.71-.37-3-2.95l-.43-4.49,1.36-.13.42,4.33c.12,1.22.67,2.18,2,2.06a2,2,0,0,0,1.7-1.58,2.18,2.18,0,0,0,0-.64l-.44-4.53,1.37-.13Z"/><path class="cls-2" d="M194.57,367.93a3.69,3.69,0,0,1,3.56-4.19,3.58,3.58,0,0,1,3.81,3.7,3.68,3.68,0,0,1-3.54,4.19A3.58,3.58,0,0,1,194.57,367.93Zm6-.37c-.08-1.66-1.1-2.86-2.44-2.79s-2.23,1.35-2.14,3.05c.06,1.27.78,2.86,2.4,2.78S200.63,369,200.56,367.56Z"/><path class="cls-2" d="M191.74,373.85l0-2.17-2,0,0-1,2,0-.07-4.07c0-.94-.29-1.47-1.06-1.45a2.81,2.81,0,0,0-.79.1l-.08-1a3.21,3.21,0,0,1,1.21-.21,1.93,1.93,0,0,1,1.5.55,2.82,2.82,0,0,1,.56,2l.07,4.12,1.17,0,0,1.05-1.17,0,0,1.81Z"/><path class="cls-2" d="M188.39,375.25l-1.37,0,.1-4.72h0a2.57,2.57,0,0,1-1,.95,2.79,2.79,0,0,1-1.41.36c-1,0-2.63-.68-2.57-3.29l.1-4.49,1.37,0-.09,4.34c0,1.21.4,2.25,1.7,2.28a2,2,0,0,0,1.87-1.33,1.82,1.82,0,0,0,.11-.66l.09-4.55,1.38,0Z"/><path class="cls-2" d="M179.56,367.42a2.43,2.43,0,0,0-2.42-2.79,5,5,0,0,0-2.11.25l-.17-1a6.23,6.23,0,0,1,2.54-.3,3.51,3.51,0,0,1,3.46,4.05c-.15,2.27-1.61,4-3.81,3.83-2.46-.16-3-2.37-2.88-3.76,0-.28.07-.49.09-.63Zm-4.09.71a2,2,0,0,0,1.76,2.36,2.28,2.28,0,0,0,2.25-2.09Z"/><path class="cls-2" d="M172.82,368.59c-.09.89-.15,1.65-.17,2.36l-1.2-.12.1-1.48h-.06a2.26,2.26,0,0,1-2.24,1.44,1.41,1.41,0,0,1-.39-.08l.13-1.29a2.68,2.68,0,0,0,.46.09,1.94,1.94,0,0,0,2-1.57,3.65,3.65,0,0,0,.12-.64l.4-4,1.35.13Z"/><path class="cls-2" d="M166,364a3.59,3.59,0,0,0-1.71-.8c-1-.14-1.53.29-1.62.9s.24,1.07,1.19,1.58c1.28.68,1.8,1.51,1.67,2.41a2.33,2.33,0,0,1-2.9,1.82,3.88,3.88,0,0,1-1.77-.73l.49-.94a2.88,2.88,0,0,0,1.46.65c.81.12,1.32-.28,1.4-.84s-.32-1-1.24-1.47c-1.22-.68-1.79-1.43-1.63-2.54.19-1.32,1.34-2.1,3.12-1.84a4.28,4.28,0,0,1,2,.82Z"/><path class="cls-2" d="M157.19,371.06l.38-2.13-1.94-.34.18-1,1.94.34.7-4c.17-.92,0-1.49-.76-1.62a3.53,3.53,0,0,0-.8-.05l.12-1a3.19,3.19,0,0,1,1.23,0,1.88,1.88,0,0,1,1.36.83,2.79,2.79,0,0,1,.19,2l-.72,4.06,1.16.2-.18,1-1.16-.2-.31,1.78Z"/><path class="cls-2" d="M148.58,363.32a3.7,3.7,0,0,1,4.52-3.14,3.59,3.59,0,0,1,2.73,4.56,3.69,3.69,0,0,1-4.5,3.14A3.58,3.58,0,0,1,148.58,363.32Zm5.88,1.17c.35-1.61-.32-3-1.64-3.31s-2.5.73-2.85,2.39c-.27,1.25,0,3,1.61,3.31S154.16,365.9,154.46,364.49Z"/><path class="cls-2" d="M147,364.3c-.21.87-.39,1.61-.51,2.31l-1.17-.3.32-1.45h-.06a2.26,2.26,0,0,1-2.44,1.09,1.78,1.78,0,0,1-.37-.14l.32-1.26a1.62,1.62,0,0,0,.44.16,1.92,1.92,0,0,0,2.22-1.26,3.78,3.78,0,0,0,.22-.6l1-3.91,1.32.33Z"/><path class="cls-2" d="M140.9,365.16l-.34-4.75c0-.53,0-1.15,0-1.62h0c-.26.4-.57.91-.9,1.38L136.91,364l-1.39-.4L139,359c1.67-2.22,2.68-3.3,3.81-3.82a3.71,3.71,0,0,1,1.86-.39V356a3.6,3.6,0,0,0-1.34.31,4.28,4.28,0,0,0-1.54,1.14.87.87,0,0,0-.19.29,1.32,1.32,0,0,0,0,.37l.74,7.47Z"/><path class="cls-2" d="M129.61,363.91l.7-2.05-1.86-.64.34-1,1.87.64L132,357c.31-.88.23-1.47-.5-1.72a2.83,2.83,0,0,0-.78-.17l.28-1a3.6,3.6,0,0,1,1.21.22,1.94,1.94,0,0,1,1.22,1,2.85,2.85,0,0,1-.14,2l-1.34,3.9,1.1.38-.34,1-1.11-.38L131,364Z"/><path class="cls-2" d="M126,364.1l-1.28-.49,1.69-4.4h0a2.55,2.55,0,0,1-1.27.54,2.7,2.7,0,0,1-1.45-.14c-1-.36-2.24-1.53-1.3-4l1.61-4.2,1.29.5L123.71,356c-.44,1.13-.39,2.26.82,2.72a2,2,0,0,0,2.21-.62,1.71,1.71,0,0,0,.33-.57l1.64-4.26,1.28.49Z"/><path class="cls-2" d="M118.66,349.14l-.28.91,0,0A2.81,2.81,0,0,1,121,350a2.15,2.15,0,0,1,1.25,2.91c-.73,1.68-2.62,1.94-5.29.76l-.06.14a1.55,1.55,0,0,0,.87,2.29,3.8,3.8,0,0,0,2,.28l-.08.95a4.71,4.71,0,0,1-2.54-.38c-2.12-.92-2-2.6-1.4-4l1.13-2.59a11.29,11.29,0,0,0,.62-1.71Zm-1.36,3.61c1.36.63,3,1.07,3.62-.27a1.23,1.23,0,0,0-.67-1.73,1.89,1.89,0,0,0-2.18.43,1.24,1.24,0,0,0-.24.37Z"/><path class="cls-2" d="M110.52,356.08l.93-2-1.77-.84.45-.95,1.77.85,1.76-3.68c.4-.85.39-1.44-.3-1.77a4,4,0,0,0-.76-.26l.38-1a3.13,3.13,0,0,1,1.18.35,1.94,1.94,0,0,1,1.1,1.16,2.87,2.87,0,0,1-.37,2l-1.77,3.72,1,.5-.45.95-1-.51-.78,1.64Z"/><path class="cls-2" d="M109.05,346.07a3.61,3.61,0,0,0-1.35-1.34c-.88-.47-1.53-.25-1.82.3s-.13,1.08.58,1.89c1,1.07,1.19,2,.76,2.83a2.33,2.33,0,0,1-3.34.73,3.7,3.7,0,0,1-1.42-1.29l.77-.72a3,3,0,0,0,1.16,1.11,1.11,1.11,0,0,0,1.6-.31c.29-.55,0-1-.66-1.81-.93-1.06-1.21-1.95-.68-2.94.62-1.18,2-1.52,3.56-.67a4.34,4.34,0,0,1,1.63,1.45Z"/><path class="cls-2" d="M98.34,349.69l1.08-1.89-1.71-1,.52-.91,1.71,1,2-3.53c.46-.82.5-1.41-.17-1.79a2.76,2.76,0,0,0-.73-.31l.46-.93a3.49,3.49,0,0,1,1.14.44,1.89,1.89,0,0,1,1,1.24,2.78,2.78,0,0,1-.51,2l-2,3.58,1,.58-.52.91-1-.58-.9,1.57Z"/><path class="cls-2" d="M97.05,337.56l-.41.87,0,0a2.82,2.82,0,0,1,2.56.26,2.15,2.15,0,0,1,.82,3.06c-1,1.55-2.87,1.55-5.34,0l-.08.13a1.55,1.55,0,0,0,.54,2.39,3.76,3.76,0,0,0,2,.56l-.22.93a4.66,4.66,0,0,1-2.46-.73c-2-1.22-1.61-2.85-.82-4.14l1.49-2.4A12.11,12.11,0,0,0,96,336.9Zm-1.86,3.38c1.26.82,2.85,1.49,3.62.24a1.22,1.22,0,0,0-.41-1.8,1.89,1.89,0,0,0-2.22.12,1.34,1.34,0,0,0-.3.33Z"/><path class="cls-2" d="M91.84,340.39c-.49.75-.9,1.39-1.25,2l-1-.66.78-1.26-.05,0a2.28,2.28,0,0,1-2.66.22,1.56,1.56,0,0,1-.3-.26l.72-1.07a2.27,2.27,0,0,0,.36.29,1.93,1.93,0,0,0,2.52-.45,3.51,3.51,0,0,0,.4-.49l2.23-3.36,1.14.76Z"/><path class="cls-2" d="M83.68,340.31l1.25-1.77-1.6-1.14.6-.85,1.61,1.13,2.35-3.33c.54-.76.63-1.35,0-1.79a2.8,2.8,0,0,0-.71-.38l.55-.88a3.18,3.18,0,0,1,1.1.55,1.91,1.91,0,0,1,.88,1.33,2.85,2.85,0,0,1-.7,1.91l-2.38,3.37,1,.68L87,340l-1-.68-1,1.48Z"/><path class="cls-2" d="M86.19,331.87a3.67,3.67,0,0,0-1.12-1.53c-.8-.6-1.47-.48-1.85,0s-.3,1.05.29,2c.79,1.2.86,2.18.31,2.91a2.33,2.33,0,0,1-3.42.2,3.82,3.82,0,0,1-1.2-1.49l.88-.59a2.94,2.94,0,0,0,1,1.28,1.11,1.11,0,0,0,1.63-.07c.37-.5.18-1-.38-1.88-.75-1.19-.89-2.12-.22-3,.8-1.06,2.19-1.19,3.62-.11a4.2,4.2,0,0,1,1.39,1.69Z"/><path class="cls-2" d="M74.91,331l1.74-3.57c.39-.78.74-1.51,1.14-2.19l0,0c-.63.47-1.35.92-2.07,1.38l-3.45,2.12-.87-.75,1.57-3.63c.37-.87.73-1.62,1.09-2.31l0,0a21.67,21.67,0,0,1-2,1.48l-3.28,2.18-1-.88,6.77-4.15,1,.81-1.47,3.49c-.35.81-.67,1.52-1.11,2.32l0,0A24.59,24.59,0,0,1,75,325.76l3.26-1.93,1,.81L76,331.86Z"/><path class="cls-2" d="M64.33,324.45a.81.81,0,0,1,1.22,0,.85.85,0,0,1-1.18,1.23A.81.81,0,0,1,64.33,324.45Zm7.72-6.06-5.15,5.54-1-.93L71,317.46Z"/><path class="cls-2" d="M61.79,322.08l1.52-1.56-1.41-1.37.72-.75L64,319.77l2.84-2.92c.66-.67.84-1.24.29-1.77a2.85,2.85,0,0,0-.64-.49l.68-.78a3.28,3.28,0,0,1,1,.71,1.89,1.89,0,0,1,.66,1.45,2.8,2.8,0,0,1-1,1.78l-2.87,3,.84.81-.73.75-.84-.81L63,322.76Z"/><path class="cls-2" d="M58.47,320.74l-.95-1,3.41-3.26,0,0a2.6,2.6,0,0,1-1.38,0,2.86,2.86,0,0,1-1.25-.75c-.7-.73-1.37-2.34.51-4.14L62,308.42l.95,1-3.14,3c-.88.85-1.31,1.89-.41,2.82a2,2,0,0,0,2.27.38,1.7,1.7,0,0,0,.53-.38l3.3-3.16,1,1Z"/><path class="cls-2" d="M50.62,310.18l1.64-1.42L51,307.27l.8-.68,1.28,1.49,3.09-2.66c.71-.61.94-1.16.44-1.74a3.58,3.58,0,0,0-.59-.54l.74-.72a3.39,3.39,0,0,1,.93.8,1.9,1.9,0,0,1,.53,1.5,2.8,2.8,0,0,1-1.14,1.69l-3.12,2.69.76.89-.79.68-.77-.89L51.76,311Z"/><path class="cls-2" d="M47.42,308.54l-.86-1.08,3.68-2.94,0,0a2.62,2.62,0,0,1-1.37-.17,2.79,2.79,0,0,1-1.18-.85c-.64-.79-1.16-2.45.87-4.08l3.52-2.81.85,1.07-3.38,2.71c-1,.77-1.48,1.76-.67,2.77a2,2,0,0,0,2.22.59,1.86,1.86,0,0,0,.58-.34l3.56-2.85.85,1.07Z"/><path class="cls-2" d="M47.76,296.73a2.42,2.42,0,0,0,.59-3.64,5.06,5.06,0,0,0-1.55-1.46l.66-.77a6.05,6.05,0,0,1,1.86,1.76,3.5,3.5,0,0,1-.89,5.24c-1.84,1.35-4.09,1.32-5.38-.46-1.46-2-.09-3.8,1-4.62a5,5,0,0,1,.55-.34Zm-3.17-2.67a1.94,1.94,0,0,0-.68,2.85,2.28,2.28,0,0,0,3,.39Z"/><path class="cls-2" d="M41,289.86c-.82.52-1.46,1-2,1.38l-.66-1,1.05-.75v0A3,3,0,0,1,36.61,288c-1-1.54-.42-3.53,1.51-4.77,2.29-1.47,4.31-.8,5.27.7a2.64,2.64,0,0,1,.26,2.6l0,0,3.46-2.22.73,1.15Zm1-2.23a3.26,3.26,0,0,0,.44-.36,2.11,2.11,0,0,0,.24-2.6c-.78-1.22-2.24-1.29-3.7-.36-1.27.82-1.93,2.19-1.15,3.41a2.18,2.18,0,0,0,2.55.83,2.2,2.2,0,0,0,.53-.22Z"/><path class="cls-2" d="M31.3,285.75l-.7-1.18,9.53-5.67.7,1.18Z"/><path class="cls-2" d="M37.2,273.73l-.78.56,0,0a2.81,2.81,0,0,1,2.1,1.47,2.16,2.16,0,0,1-.77,3.08c-1.6.89-3.26-.05-4.67-2.61l-.13.08a1.56,1.56,0,0,0-.7,2.35,3.81,3.81,0,0,0,1.45,1.45l-.64.71a4.72,4.72,0,0,1-1.8-1.85c-1.12-2,0-3.28,1.31-4l2.48-1.37a11.45,11.45,0,0,0,1.52-1Zm-3.28,2c.7,1.33,1.76,2.69,3,2a1.22,1.22,0,0,0,.52-1.77,1.87,1.87,0,0,0-2-1,1.39,1.39,0,0,0-.42.14Z"/><path class="cls-2" d="M29,274.4l3.23-3.49c.37-.38.82-.81,1.16-1.13v0c-.47.08-1,.2-1.63.28l-4.63.67-.65-1.3,5.73-.59c2.76-.29,4.25-.29,5.39.18a3.66,3.66,0,0,1,1.56,1.1l-.88.83a3.43,3.43,0,0,0-1.14-.77,4.13,4.13,0,0,0-1.88-.34,1,1,0,0,0-.35.05,1,1,0,0,0-.27.24l-5,5.64Z"/><path class="cls-2" d="M31.77,262.94c-.49.17-1.2.45-1.82.72l-8.38,3.63L21,266l4.36-1.89,0,0a2.78,2.78,0,0,1-2.29-1.81c-.75-1.72.15-3.55,2.27-4.45,2.48-1.08,4.39-.05,5.06,1.5a2.7,2.7,0,0,1-.3,2.88l0,.05,1.17-.44Zm-3.35-.1a2.69,2.69,0,0,0,.44-.26,2.11,2.11,0,0,0,.65-2.53c-.57-1.32-2-1.64-3.57-.95-1.39.6-2.27,1.83-1.69,3.18a2.19,2.19,0,0,0,2.38,1.25,2.87,2.87,0,0,0,.55-.15Z"/><path class="cls-2" d="M24.33,250.08c.73-.28,1.36-.54,1.9-.79l.43,1.14-1.12.51v0a2.85,2.85,0,0,1,2.2,1.84c.42,1.1.31,2.67-2.18,3.6L21.44,258,21,256.69l3.92-1.48c1.34-.51,2.09-1.26,1.65-2.43a2,2,0,0,0-1.81-1.25,2.21,2.21,0,0,0-.7.13l-4.34,1.65L19.19,252Z"/><path class="cls-2" d="M16,249.25l2.06-.69-.63-1.86,1-.34.63,1.87,3.86-1.3c.89-.3,1.31-.72,1.07-1.45a3.81,3.81,0,0,0-.34-.72l.95-.39a3.34,3.34,0,0,1,.57,1.1,1.92,1.92,0,0,1-.08,1.59,2.82,2.82,0,0,1-1.69,1.13l-3.91,1.31.37,1.11-1,.33-.37-1.11-1.72.58Z"/><path class="cls-2" d="M14.48,244.61l2.07-.64L16,242.09l1-.3.57,1.88,3.9-1.2c.89-.27,1.32-.68,1.1-1.41a3.45,3.45,0,0,0-.32-.74l1-.36a3.45,3.45,0,0,1,.54,1.11,1.91,1.91,0,0,1-.12,1.59,2.78,2.78,0,0,1-1.72,1.08L18,245l.34,1.12-1,.31L17,245.26l-1.73.53Z"/><path class="cls-2" d="M17.46,233.43A3.69,3.69,0,0,1,22.31,236a3.6,3.6,0,0,1-2.82,4.51A3.69,3.69,0,0,1,14.64,238,3.57,3.57,0,0,1,17.46,233.43Zm1.62,5.77c1.6-.43,2.56-1.67,2.22-3s-1.79-1.9-3.43-1.46c-1.24.33-2.65,1.37-2.23,2.94S17.7,239.57,19.08,239.2Z"/><path class="cls-2" d="M15.53,232.52c-.76.16-1.38.31-2,.49l-.26-1.19,1.2-.34v0a2.78,2.78,0,0,1-1.93-2.14c-.22-1,0-2.74,2.58-3.29l4.41-1,.29,1.35-4.26.92c-1.19.26-2.08.92-1.81,2.19a2,2,0,0,0,1.77,1.5,1.85,1.85,0,0,0,.65,0l4.44-1,.29,1.34Z"/><path class="cls-2" d="M15.2,219.49l3.44.59.21,1.39-10.94-2-.25-1.62,9.88-5.11.21,1.43-3.1,1.61Zm-1.56-3.26L10.8,217.7c-.65.34-1.24.58-1.82.83v0c.64.06,1.3.14,2,.24l3.16.57Z"/><path class="cls-2" d="M12,212.47c-.78.08-1.42.16-2,.27l-.12-1.21,1.23-.21v0A2.78,2.78,0,0,1,9.39,209c-.1-1,.35-2.72,2.93-3l4.49-.45.14,1.36-4.33.44c-1.21.12-2.18.68-2,2A2,2,0,0,0,12.15,211a2.27,2.27,0,0,0,.65,0l4.52-.46.14,1.37Z"/><path class="cls-2" d="M12.48,197.27a3.69,3.69,0,0,1,4.21,3.54A3.6,3.6,0,0,1,13,204.64a3.7,3.7,0,0,1-4.22-3.53A3.58,3.58,0,0,1,12.48,197.27Zm.4,6c1.66-.09,2.85-1.11,2.78-2.45s-1.36-2.23-3.06-2.13c-1.28.07-2.86.8-2.77,2.42S11.45,203.33,12.88,203.25Z"/><path class="cls-2" d="M6.56,194.41l2.17,0,0-2,1.05,0,0,2,4.08-.08c.93,0,1.46-.29,1.45-1.06a3.22,3.22,0,0,0-.11-.79l1-.08a3.42,3.42,0,0,1,.21,1.21,2,2,0,0,1-.55,1.5,2.82,2.82,0,0,1-2,.56l-4.12.08,0,1.17-1.05,0,0-1.17-1.81,0Z"/><path class="cls-2" d="M5.14,191.11l0-1.37,4.71.08v0a2.55,2.55,0,0,1-1-1,2.79,2.79,0,0,1-.36-1.41c0-1,.67-2.63,3.27-2.58l4.5.08,0,1.37L12,186.17c-1.22,0-2.26.42-2.28,1.71A2,2,0,0,0,11,189.75a1.62,1.62,0,0,0,.65.1l4.56.09,0,1.37Z"/><path class="cls-2" d="M12.93,182.25a2.42,2.42,0,0,0,2.78-2.43,5.11,5.11,0,0,0-.26-2.12l1-.17a6.16,6.16,0,0,1,.32,2.54,3.51,3.51,0,0,1-4,3.48c-2.28-.14-4-1.59-3.86-3.79.15-2.46,2.36-3,3.75-2.9a5,5,0,0,1,.64.08Zm-.73-4.09a2,2,0,0,0-2.35,1.77,2.28,2.28,0,0,0,2.1,2.24Z"/><path class="cls-2" d="M11.73,175.51c-.89-.09-1.65-.15-2.36-.16l.12-1.2,1.48.09v-.06a2.29,2.29,0,0,1-1.45-2.24,1.33,1.33,0,0,1,.09-.38l1.29.12a1.87,1.87,0,0,0-.09.46,1.92,1.92,0,0,0,1.58,2,3.53,3.53,0,0,0,.63.12l4,.39L16.9,176Z"/><path class="cls-2" d="M16.27,168.68a3.63,3.63,0,0,0,.8-1.72c.14-1-.29-1.52-.91-1.61s-1.06.25-1.57,1.2c-.67,1.28-1.5,1.81-2.4,1.68a2.32,2.32,0,0,1-1.83-2.89,3.83,3.83,0,0,1,.72-1.77l.94.48a3,3,0,0,0-.65,1.46c-.11.81.29,1.32.85,1.4s1-.32,1.47-1.24c.67-1.23,1.42-1.8,2.53-1.65,1.31.19,2.1,1.34,1.85,3.12a4.38,4.38,0,0,1-.81,2Z"/><path class="cls-2" d="M9.19,159.88l2.14.36.33-1.94,1,.18-.34,1.94,4,.69c.93.16,1.49,0,1.62-.77a3.53,3.53,0,0,0,.05-.8l1,.11a3.24,3.24,0,0,1,0,1.24,1.89,1.89,0,0,1-.82,1.36,2.79,2.79,0,0,1-2,.19l-4.06-.69-.2,1.15-1-.18.2-1.15-1.79-.31Z"/><path class="cls-2" d="M16.9,151.23a3.7,3.7,0,0,1,3.16,4.51,3.6,3.6,0,0,1-4.55,2.75A3.69,3.69,0,0,1,12.35,154,3.58,3.58,0,0,1,16.9,151.23Zm-1.15,5.89c1.62.34,3-.34,3.31-1.66s-.74-2.5-2.4-2.84c-1.26-.27-3,0-3.31,1.62S14.34,156.82,15.75,157.12Z"/><path class="cls-2" d="M15.9,149.67c-.86-.21-1.61-.38-2.3-.5l.29-1.17,1.45.31v-.06a2.28,2.28,0,0,1-1.1-2.43,1.35,1.35,0,0,1,.14-.37l1.25.31a2,2,0,0,0-.15.45,1.91,1.91,0,0,0,1.27,2.21,3.6,3.6,0,0,0,.61.21l3.91,1L21,150.92Z"/><path class="cls-2" d="M15,143.56l4.75-.37c.52,0,1.15,0,1.62,0v0c-.39-.26-.91-.57-1.38-.9l-3.85-2.65.39-1.4,4.62,3.46c2.22,1.65,3.31,2.66,3.84,3.78a3.62,3.62,0,0,1,.39,1.87h-1.2a3.63,3.63,0,0,0-.32-1.34,4.19,4.19,0,0,0-1.15-1.53.87.87,0,0,0-.29-.19,1.32,1.32,0,0,0-.37,0l-7.46.78Z"/><path class="cls-2" d="M16.22,132.29l2.06.7.63-1.86,1,.33-.63,1.86,3.86,1.31c.88.3,1.47.22,1.72-.51a3.14,3.14,0,0,0,.16-.78l1,.27a3.28,3.28,0,0,1-.21,1.21,1.92,1.92,0,0,1-1,1.22,2.81,2.81,0,0,1-2-.12l-3.9-1.32-.38,1.1-1-.33.38-1.11-1.72-.58Z"/><path class="cls-2" d="M16,128.67l.49-1.28,4.41,1.67v0a2.49,2.49,0,0,1-.55-1.26,2.79,2.79,0,0,1,.13-1.45c.36-.95,1.52-2.25,4-1.32l4.21,1.6-.49,1.28-4.06-1.54c-1.14-.43-2.26-.38-2.72.84a2,2,0,0,0,.62,2.21,1.87,1.87,0,0,0,.58.32l4.27,1.62-.49,1.28Z"/><path class="cls-2" d="M31,121.23,30,121l0,0a2.8,2.8,0,0,1,.12,2.57,2.16,2.16,0,0,1-2.91,1.26c-1.68-.72-1.95-2.61-.78-5.29l-.14-.06a1.56,1.56,0,0,0-2.29.88,3.82,3.82,0,0,0-.27,2l-.95-.07a4.65,4.65,0,0,1,.37-2.55c.91-2.12,2.59-2,4-1.41l2.59,1.12a11.25,11.25,0,0,0,1.72.61Zm-3.62-1.34c-.63,1.36-1.06,3,.29,3.62a1.22,1.22,0,0,0,1.72-.67,1.88,1.88,0,0,0-.44-2.18,1.51,1.51,0,0,0-.37-.25Z"/><path class="cls-2" d="M24,113.11l2,.93.84-1.78.94.45-.84,1.78,3.69,1.74c.85.4,1.44.38,1.77-.31a3,3,0,0,0,.25-.76l1,.39a3.23,3.23,0,0,1-.35,1.18,1.88,1.88,0,0,1-1.15,1.09,2.8,2.8,0,0,1-2-.36l-3.73-1.76-.5,1.06-.95-.44.5-1.06-1.64-.78Z"/><path class="cls-2" d="M34,111.63a3.62,3.62,0,0,0,1.33-1.34c.47-.89.24-1.54-.31-1.83s-1.08-.13-1.89.6c-1.06,1-2,1.19-2.82.76a2.32,2.32,0,0,1-.74-3.34,3.76,3.76,0,0,1,1.28-1.42l.72.77A3,3,0,0,0,30.44,107a1.11,1.11,0,0,0,.32,1.6c.56.29,1,0,1.81-.67,1-.93,2-1.21,2.94-.69,1.17.62,1.52,2,.68,3.56a4.28,4.28,0,0,1-1.45,1.64Z"/><path class="cls-2" d="M30.32,100.94,32.2,102l1-1.72.91.52-1,1.71,3.55,2c.81.46,1.41.5,1.78-.17a2.79,2.79,0,0,0,.31-.74l.93.46a3.12,3.12,0,0,1-.44,1.15,1.89,1.89,0,0,1-1.23,1,2.78,2.78,0,0,1-2-.51l-3.59-2-.58,1L31,104.2l.58-1L30,102.29Z"/><path class="cls-2" d="M42.42,99.62l-.87-.4,0,0a2.81,2.81,0,0,1-.24,2.56,2.16,2.16,0,0,1-3.06.83c-1.56-1-1.56-2.86,0-5.34l-.13-.08a1.56,1.56,0,0,0-2.39.55,3.8,3.8,0,0,0-.55,2l-.93-.2a4.65,4.65,0,0,1,.72-2.47c1.21-2,2.85-1.63,4.14-.84l2.41,1.48a9.92,9.92,0,0,0,1.61.83ZM39,97.78c-.81,1.26-1.47,2.85-.22,3.62a1.22,1.22,0,0,0,1.8-.42,1.89,1.89,0,0,0-.13-2.22,1.3,1.3,0,0,0-.33-.29Z"/><path class="cls-2" d="M39.58,94.41c-.75-.49-1.4-.9-2-1.25l.66-1,1.27.77,0-.05a2.26,2.26,0,0,1-.23-2.66,2,2,0,0,1,.25-.3l1.09.72a1.59,1.59,0,0,0-.3.36,1.93,1.93,0,0,0,.46,2.51,3.66,3.66,0,0,0,.5.41l3.37,2.21-.75,1.14Z"/><path class="cls-2" d="M39.63,86.24l1.78,1.25,1.13-1.61.85.6-1.13,1.61,3.34,2.34c.77.53,1.36.62,1.79,0a2.77,2.77,0,0,0,.38-.7l.88.54a3.31,3.31,0,0,1-.54,1.1,1.92,1.92,0,0,1-1.33.89,2.85,2.85,0,0,1-1.91-.7l-3.38-2.36-.67,1-.85-.6.67-1-1.49-1Z"/><path class="cls-2" d="M48.06,88.74a3.62,3.62,0,0,0,1.52-1.13c.6-.8.48-1.48,0-1.85s-1.05-.3-2,.3c-1.2.8-2.18.86-2.91.32A2.33,2.33,0,0,1,44.47,83,3.86,3.86,0,0,1,46,81.75l.6.87a3,3,0,0,0-1.28,1,1.1,1.1,0,0,0,.07,1.63c.5.38,1,.18,1.89-.38,1.18-.76,2.11-.9,3-.23,1.07.79,1.2,2.18.13,3.62a4.37,4.37,0,0,1-1.68,1.4Z"/><path class="cls-2" d="M49,77.43l3.58,1.72c.78.38,1.51.73,2.19,1.13l0,0c-.47-.63-.92-1.35-1.38-2.06l-2.14-3.44.75-.88,3.64,1.55c.87.38,1.62.73,2.31,1.09l0,0a22.59,22.59,0,0,1-1.49-2l-2.2-3.28.88-1,4.18,6.75-.8,1L55,76.38a22.38,22.38,0,0,1-2.33-1.1l0,0a22.58,22.58,0,0,1,1.46,2.14l2,3.25-.81,1L48,78.5Z"/><path class="cls-2" d="M55.41,66.83a.81.81,0,0,1,0,1.21.82.82,0,0,1-1.19,0,.85.85,0,0,1,0-1.21A.82.82,0,0,1,55.41,66.83Zm6.08,7.68-5.56-5.12.93-1,5.56,5.12Z"/><path class="cls-2" d="M57.75,64.29l1.56,1.51,1.36-1.42.76.73-1.37,1.42L63,69.35c.67.65,1.24.83,1.77.28a2.74,2.74,0,0,0,.48-.64l.79.67a3.36,3.36,0,0,1-.71,1,1.92,1.92,0,0,1-1.45.67,2.8,2.8,0,0,1-1.78-1l-3-2.86-.81.85-.76-.73.82-.84-1.31-1.26Z"/><path class="cls-2" d="M59.1,60.94l1-.95,3.28,3.39,0,0a2.6,2.6,0,0,1,0-1.38,2.86,2.86,0,0,1,.74-1.26c.73-.7,2.33-1.38,4.14.49l3.12,3.24-1,1-3-3.12c-.84-.88-1.89-1.3-2.82-.4a2,2,0,0,0-.37,2.27,1.6,1.6,0,0,0,.39.53L67.79,68l-1,1Z"/><path class="cls-2" d="M69.62,53,71,54.67l1.49-1.29.69.8-1.49,1.29,2.67,3.07c.62.71,1.16.94,1.74.44a3.2,3.2,0,0,0,.54-.6l.73.74a3.4,3.4,0,0,1-.8.94,1.91,1.91,0,0,1-1.5.54,2.8,2.8,0,0,1-1.69-1.14l-2.71-3.11-.88.76-.69-.79.89-.76-1.19-1.37Z"/><path class="cls-2" d="M71.24,49.83,72.31,49l3,3.67,0,0a2.5,2.5,0,0,1,.15-1.37,2.82,2.82,0,0,1,.85-1.19c.79-.64,2.45-1.17,4.09.86l2.82,3.5-1.07.86L79.42,51.9c-.77-.94-1.77-1.46-2.78-.65a2,2,0,0,0-.57,2.23,1.75,1.75,0,0,0,.34.57l2.86,3.55-1.07.86Z"/><path class="cls-2" d="M83,50.15a2.43,2.43,0,0,0,3.65.57,5,5,0,0,0,1.45-1.55l.77.65a6.12,6.12,0,0,1-1.75,1.87,3.51,3.51,0,0,1-5.25-.87c-1.35-1.83-1.33-4.07.44-5.38,2-1.46,3.8-.1,4.63,1,.16.23.27.43.34.55ZM85.68,47a1.94,1.94,0,0,0-2.85-.67,2.28,2.28,0,0,0-.38,3.05Z"/><path class="cls-2" d="M89.86,43.33c-.53-.81-1-1.45-1.39-2l1-.67.76,1.06,0,0A3,3,0,0,1,91.74,39c1.54-1,3.53-.44,4.78,1.48,1.47,2.28.81,4.31-.68,5.28a2.67,2.67,0,0,1-2.6.27h0l2.23,3.45-1.14.74Zm2.24,1a3.22,3.22,0,0,0,.35.44,2.13,2.13,0,0,0,2.61.23c1.22-.79,1.28-2.24.34-3.7C94.58,40,93.2,39.33,92,40.11a2.22,2.22,0,0,0-.82,2.56,2.74,2.74,0,0,0,.23.53Z"/><path class="cls-2" d="M94,33.64l1.18-.71,5.71,9.5-1.18.71Z"/><path class="cls-2" d="M106,39.49l-.56-.78,0,0a2.83,2.83,0,0,1-1.46,2.11,2.15,2.15,0,0,1-3.08-.76c-.9-1.59,0-3.26,2.58-4.67l-.07-.14a1.56,1.56,0,0,0-2.36-.68A3.78,3.78,0,0,0,99.54,36l-.71-.64a4.66,4.66,0,0,1,1.83-1.8c2-1.13,3.28,0,4,1.29l1.38,2.47a11.63,11.63,0,0,0,1,1.51Zm-2.06-3.27c-1.33.71-2.68,1.77-2,3.05a1.21,1.21,0,0,0,1.77.51,1.86,1.86,0,0,0,1-2,1.17,1.17,0,0,0-.14-.41Z"/><path class="cls-2" d="M105.29,31.26l3.51,3.23c.38.36.82.81,1.13,1.15h0c-.08-.47-.21-1.06-.29-1.63L109,29.37l1.29-.66.62,5.74c.3,2.75.31,4.24-.15,5.39a3.73,3.73,0,0,1-1.1,1.56l-.83-.87a3.76,3.76,0,0,0,.76-1.15,4,4,0,0,0,.33-1.89.76.76,0,0,0,0-.34,1.17,1.17,0,0,0-.24-.28L104,32Z"/><path class="cls-2" d="M116.77,34c-.18-.49-.46-1.2-.73-1.81l-3.67-8.37,1.25-.54,1.9,4.34h0a2.83,2.83,0,0,1,1.8-2.31c1.72-.75,3.56.15,4.47,2.25,1.08,2.48.06,4.39-1.48,5.07a2.7,2.7,0,0,1-2.89-.29l0,0,.45,1.17Zm.08-3.35a3.18,3.18,0,0,0,.26.44,2.13,2.13,0,0,0,2.53.64c1.32-.58,1.64-2,.94-3.58-.61-1.39-1.84-2.26-3.19-1.67a2.19,2.19,0,0,0-1.24,2.38,3,3,0,0,0,.16.55Z"/><path class="cls-2" d="M129.63,26.49c.28.73.54,1.36.79,1.9l-1.13.44-.52-1.13h0a2.84,2.84,0,0,1-1.83,2.21c-1.11.43-2.67.32-3.62-2.16l-1.58-4.13,1.28-.49,1.5,3.91c.51,1.34,1.27,2.09,2.44,1.64A1.94,1.94,0,0,0,128,26.18l-1.66-4.33,1.28-.5Z"/><path class="cls-2" d="M130.37,18.13l.7,2.05,1.87-.63.34,1-1.87.63L132.73,25c.3.89.73,1.31,1.45,1.06a3.33,3.33,0,0,0,.73-.35l.39,1a3.34,3.34,0,0,1-1.1.57,1.89,1.89,0,0,1-1.59-.07,2.83,2.83,0,0,1-1.14-1.69l-1.33-3.9L129,22l-.34-1,1.11-.38-.58-1.72Z"/><path class="cls-2" d="M135,16.62l.64,2.08,1.88-.59.31,1-1.88.58,1.22,3.9c.28.89.69,1.32,1.42,1.09a3,3,0,0,0,.73-.33l.37,1a3.45,3.45,0,0,1-1.11.54,1.91,1.91,0,0,1-1.59-.11A2.83,2.83,0,0,1,135.91,24l-1.23-3.94-1.12.35-.31-1,1.12-.35-.54-1.73Z"/><path class="cls-2" d="M146.2,19.56a3.69,3.69,0,0,1-2.58,4.86,3.58,3.58,0,0,1-4.51-2.79,3.69,3.69,0,0,1,2.56-4.86A3.58,3.58,0,0,1,146.2,19.56Zm-5.76,1.66c.43,1.59,1.68,2.55,3,2.19s1.89-1.79,1.45-3.43c-.34-1.24-1.38-2.63-3-2.21S140.06,19.83,140.44,21.22Z"/><path class="cls-2" d="M147.13,17.62c-.17-.76-.32-1.38-.51-2l1.19-.27.35,1.2h0a2.78,2.78,0,0,1,2.13-1.93c1-.23,2.74,0,3.31,2.56l1,4.4-1.34.3-1-4.25c-.26-1.19-.93-2.08-2.19-1.8a1.94,1.94,0,0,0-1.49,1.77,1.85,1.85,0,0,0,0,.65l1,4.43-1.34.3Z"/><path class="cls-2" d="M288.5,162.63l-.05,0-10.62-8.34-.05,0-10-7.84-.16-.12,0,0-7.38-5.73-5-3.87-12.62-9.81-10-7.79-1.73-1.35L210,101.41l-2.55-2v4.69l2.28,1.78V106l3.65,2.84,9.34,7.28,5.35,4.15.11.09,2.12,1.64,10,7.8,12.62,9.8,5,3.88,7.37,5.73h0l0,0h0l.13.1,10,7.84.06,0,0,0L286,165.48h0l.18.13a13.26,13.26,0,0,1,.24,20.58A17.05,17.05,0,0,0,280.33,169l-.05-.05-10.62-8.34-.05,0-10-7.84-.16-.12,0,0-7.38-5.73-5-3.87-12.62-9.81-10-7.79-1.73-1.35-15.28-11.88v4.75l12.44,9.76.11.09,2.12,1.64,10,7.8,12.62,9.8,5,3.88,7.37,5.73h0l0,0h0l.13.1,10,7.84.06,0,.05,0,10.43,8.19h0l.18.14a13.25,13.25,0,0,1,3.36,16.81,13.57,13.57,0,0,1-2.7.43,17,17,0,0,0-6.47-13.83l-.05,0L261.49,167l-.05,0-10-7.84-.16-.13,0,0-7.38-5.74-5-3.87-12.62-9.81-10-7.79-1.73-1.34-7.11-5.53v4.81l4.28,3.35.11.08,2.11,1.64,10,7.8,12.62,9.81,5,3.87,7.38,5.73v0l0,0h0l.13.1,10,7.84.06,0,.05,0,10.43,8.19h0l.18.14a13.2,13.2,0,0,1,5,10.47v0a13.15,13.15,0,0,1-4.94-2.34l-.12-.09-7.19-5.59-5-3.87-5.42-4.22L245,167.21l-10-7.79-7.57-5.88-15.06-11.72L207.43,138v6.8H189.85v17.6H172.24v-17.6h-17.6v17.6H137.05V180h-17.6V288.81a15.19,15.19,0,0,0,24.46,12L157,290.75,202.13,304l-18.61-33.7,3-2.31,3.33-2.56,17.6-13.56,1.92-1.48L225,238.35l7.16-5.52,7.88-6.07,2.55-2h0l12.4-9.55,5.19-4,10.14-7.82h0a14.2,14.2,0,0,0,1.6-1.1,16.47,16.47,0,0,0,1.48-1.27h0l4.37-3.37.06,0,0,0,1.06-.82q.63-.4,1.23-.87c.41-.31.8-.65,1.18-1h0l7-5.39A17.07,17.07,0,0,0,288.5,162.63Z"/><rect class="cls-2" x="119.45" y="109.65" width="17.59" height="17.6"/><polygon class="cls-2" points="137.05 74.45 137 74.45 119.45 74.45 119.45 92.05 137.05 92.05 137.05 74.48 137.05 74.45"/><rect class="cls-2" x="137.05" y="92.05" width="17.6" height="17.6"/><polygon class="cls-2" points="137.05 127.24 137.05 144.84 119.45 144.84 119.45 162.44 137.05 162.44 137.05 144.84 154.64 144.84 154.64 127.24 137.05 127.24"/><polygon class="cls-2" points="189.85 111.24 189.85 109.65 187.79 109.65 172.24 109.65 172.24 127.24 189.85 127.24 189.85 111.24"/></svg>