<?xml version="1.0" encoding="UTF-8"?>
<svg id="Layer_1" data-name="Layer 1" xmlns="http://www.w3.org/2000/svg" xmlns:xlink="http://www.w3.org/1999/xlink" viewBox="0 0 1435.3 1435.3">
  <defs>
    <style>
      .cls-1 {
        fill: #fba6ce;
      }

      .cls-2 {
        filter: url(#drop-shadow-1);
      }

      .cls-3 {
        fill: #ffc828;
      }

      .cls-4 {
        fill: #5dbf6a;
      }

      .cls-5 {
        fill: #00afab;
      }

      .cls-6 {
        fill: #50419b;
      }

      .cls-7 {
        fill: #bf479a;
      }

      .cls-8 {
        fill: #ff9230;
      }

      .cls-9 {
        fill: #df2717;
      }

      .cls-10 {
        fill: #fff402;
      }

      .cls-11 {
        fill: #fe572d;
      }

      .cls-12 {
        fill: #00aa5b;
      }

      .cls-13 {
        fill: #fff;
      }

      .cls-14 {
        fill: #01b2f1;
      }

      .cls-15 {
        fill: #0080c8;
      }

      .cls-16 {
        fill: #fe71ad;
      }

      .cls-17 {
        fill: #98d147;
      }

      .cls-18 {
        fill: #ffff1c;
      }

      .cls-19 {
        fill: #3656a5;
      }

      .cls-20 {
        fill: #ff4e9b;
      }
    </style>
    <filter id="drop-shadow-1" x="144.46" y="143.3" width="1156" height="1156" filterUnits="userSpaceOnUse">
      <feOffset dx="5" dy="4"/>
      <feGaussianBlur result="blur" stdDeviation="2"/>
      <feFlood flood-color="#000" flood-opacity=".3"/>
      <feComposite in2="blur" operator="in"/>
      <feComposite in="SourceGraphic"/>
    </filter>
  </defs>
  <g class="cls-2">
    <g>
      <g>
        <path class="cls-6" d="M705.03,779.51l-287.47-369.02c-49.74-63.39-42.12-132.79,7.13-173.46,49.72-41.06,118.12-33.12,162.14,36.63,6.07,9.62,11.38,20.21,15.44,30.19l175.84,433.47c8.85,22.03-1.18,46.72-22.24,55.73-18,7.71-38.84,1.74-50.83-13.54Z"/>
        <path d="M739.43,803.46c-15.13,0-30.02-6.95-39.94-19.6v-.02s-287.48-369.02-287.48-369.02c-24.95-31.8-37.07-66.39-35.03-100,.98-16.12,5.21-31.49,12.58-45.68,7.37-14.2,17.68-26.82,30.65-37.53,25.53-21.08,56.01-30.06,85.83-25.29,16.4,2.63,32.08,9.25,46.61,19.7,15.11,10.86,28.62,25.63,40.14,43.89,6.03,9.55,11.56,20.37,16.01,31.3l175.84,433.48c4.96,12.35,4.99,25.84.1,38.02-4.89,12.2-14.16,21.73-26.1,26.83-6.19,2.65-12.72,3.93-19.2,3.93ZM710.58,775.18c10.24,13.04,27.72,17.73,42.51,11.4,17.51-7.49,25.8-28.41,18.48-46.63l-175.83-433.45c-4.13-10.16-9.28-20.22-14.87-29.08-20.6-32.65-47.25-52.43-77.06-57.2-25.77-4.13-52.27,3.77-74.64,22.24-48.82,40.32-51.26,106.1-6.07,163.68l287.48,369.04h0Z"/>
      </g>
      <g>
        <path class="cls-15" d="M737.65,777.53l-433.46-175.85c-74.77-30.02-102.87-93.94-80.56-153.79,22.53-60.42,85.73-87.74,158.73-49.35,10.07,5.3,19.96,11.82,28.47,18.43l369.01,287.48c18.68,14.66,22.33,41.05,8.6,59.39-11.74,15.67-32.77,20.93-50.79,13.69Z"/>
        <path d="M754.19,787.79c-6.41,0-12.92-1.21-19.17-3.72h-.02s-433.46-175.85-433.46-175.85c-37.51-15.06-65.3-38.96-80.34-69.09-7.21-14.45-11.23-29.88-11.95-45.85-.71-15.98,1.9-32.07,7.78-47.83,11.57-31.02,33.47-54.04,61.69-64.81,15.51-5.92,32.4-8.02,50.21-6.25,18.52,1.85,37.6,7.89,56.71,17.94,9.99,5.26,20.2,11.86,29.51,19.1l369.02,287.48c10.47,8.21,17.24,19.88,19.1,32.87,1.86,13.01-1.4,25.9-9.19,36.29-9.52,12.71-24.43,19.72-39.89,19.72ZM740.28,771c15.4,6.18,32.88,1.5,42.53-11.38,11.41-15.24,8.13-37.5-7.31-49.63l-368.99-287.46c-8.66-6.73-18.14-12.87-27.42-17.75-34.17-17.97-67.13-21.78-95.34-11-24.38,9.31-43.38,29.4-53.52,56.58-22.12,59.33,8.65,117.51,76.58,144.79l433.47,175.85Z"/>
      </g>
      <g>
        <path class="cls-14" d="M764.91,759.51l-463.31,64.45c-79.77,11.38-136.06-29.92-146.66-92.9-10.7-63.59,30.38-118.85,112.79-122.1,11.37-.45,23.2.25,33.87,1.72l463.31,64.46c23.5,3.35,39.87,24.39,37.14,47.13-2.33,19.44-17.91,34.51-37.14,37.25Z"/>
        <path d="M275.66,832.9c-29.24,0-55.58-7.32-77.21-21.63-13.47-8.91-24.67-20.26-33.27-33.74-8.61-13.48-14.39-28.73-17.18-45.31-5.49-32.65,1.97-63.54,21.02-86.97,10.47-12.89,24.05-23.15,40.36-30.51,16.96-7.65,36.5-11.97,58.08-12.82,11.28-.45,23.42.17,35.11,1.79l463.32,64.46c13.17,1.88,24.87,8.6,32.98,18.92,8.11,10.34,11.73,23.13,10.19,36.02-2.67,22.3-20.41,40.14-43.14,43.38h-.02s-463.31,64.45-463.31,64.45c-9.2,1.31-18.18,1.96-26.91,1.96ZM274.71,615.86c-2.26,0-4.5.04-6.7.13-38.57,1.52-69.03,14.71-88.07,38.14-16.46,20.25-22.87,47.16-18.06,75.76,10.51,62.44,66.25,97.44,138.72,87.1l463.34-64.45c16.41-2.35,29.21-15.14,31.12-31.11,2.26-18.91-11.71-36.55-31.15-39.32l-463.29-64.45c-8.58-1.19-17.43-1.79-25.92-1.79Z"/>
      </g>
      <g>
        <path class="cls-5" d="M779.51,730.27l-369.02,287.47c-63.39,49.74-132.79,42.12-173.46-7.13-41.06-49.72-33.12-118.12,36.63-162.14,9.62-6.07,20.21-11.38,30.19-15.44l433.47-175.84c22.03-8.85,46.72,1.18,55.73,22.24,7.71,18,1.74,38.84-13.54,50.83Z"/>
        <path d="M322.13,1058.55c-2.44,0-4.88-.07-7.31-.22-16.12-.98-31.49-5.21-45.68-12.58-14.2-7.37-26.82-17.68-37.53-30.65-21.08-25.53-30.06-56.01-25.29-85.83,2.63-16.4,9.25-32.08,19.7-46.61,10.86-15.11,25.63-28.62,43.89-40.14,9.55-6.03,20.37-11.56,31.3-16.01l433.48-175.84c12.35-4.96,25.84-4.99,38.02-.1,12.2,4.89,21.73,14.16,26.84,26.1,8.84,20.65,2.39,44.97-15.67,59.14h-.02s-369.02,287.48-369.02,287.48c-29.5,23.15-61.4,35.25-92.7,35.25ZM753.69,661.07c-4.58,0-9.25.85-13.75,2.66l-433.45,175.83c-10.16,4.13-20.22,9.28-29.08,14.87-32.65,20.6-52.43,47.25-57.2,77.07-4.13,25.77,3.77,52.27,22.24,74.64,40.32,48.82,106.1,51.26,163.68,6.07l369.04-287.48c13.04-10.24,17.73-27.72,11.4-42.51-5.64-13.18-18.9-21.14-32.89-21.14Z"/>
      </g>
      <g>
        <path class="cls-12" d="M777.54,697.65l-175.85,433.46c-30.02,74.77-93.94,102.87-153.79,80.56-60.42-22.53-87.74-85.73-49.35-158.73,5.3-10.07,11.82-19.96,18.43-28.47l287.48-369.01c14.66-18.68,41.05-22.33,59.39-8.6,15.67,11.74,20.93,32.77,13.69,50.79Z"/>
        <path d="M488.13,1226.16c-14.28,0-28.61-2.65-42.68-7.89-31.02-11.57-54.04-33.47-64.81-61.69-5.92-15.51-8.03-32.41-6.25-50.21,1.85-18.52,7.89-37.6,17.94-56.71,5.26-9.99,11.86-20.2,19.1-29.51l287.48-369.02c8.21-10.47,19.88-17.24,32.87-19.1,13.01-1.86,25.9,1.4,36.29,9.19,17.98,13.46,24.56,37.75,16,59.05v.02s-175.85,433.46-175.85,433.46c-15.06,37.51-38.96,65.3-69.09,80.34-14.45,7.21-29.88,11.23-45.85,11.95-1.71.08-3.43.12-5.15.12ZM738.94,645.68c-10.83,0-21.69,4.89-28.94,14.12l-287.46,368.99c-6.73,8.66-12.87,18.15-17.75,27.42-17.97,34.17-21.78,67.13-11,95.34,9.31,24.38,29.4,43.38,56.58,53.52,59.33,22.12,117.51-8.65,144.79-76.58l175.85-433.46c6.18-15.4,1.51-32.89-11.37-42.53-6.13-4.59-13.4-6.81-20.69-6.81Z"/>
      </g>
      <g>
        <path class="cls-17" d="M759.51,670.38l64.45,463.31c11.38,79.77-29.92,136.06-92.9,146.66-63.59,10.7-118.85-30.38-122.1-112.79-.45-11.37.25-23.2,1.72-33.87l64.46-463.31c3.35-23.5,24.39-39.87,47.13-37.14,19.44,2.33,34.51,17.91,37.25,37.14Z"/>
        <path d="M711.52,1289.06c-24.85,0-47.86-7.81-66.27-22.78-12.89-10.47-23.15-24.05-30.51-40.36-7.65-16.96-11.97-36.5-12.82-58.08-.44-11.28.17-23.42,1.79-35.11l64.46-463.32c1.88-13.17,8.6-24.87,18.92-32.98,10.34-8.11,23.13-11.74,36.02-10.19,22.3,2.67,40.14,20.41,43.38,43.14v.02s64.45,463.31,64.45,463.31c5.71,40.02-1.09,76.03-19.66,104.12-8.91,13.47-20.26,24.67-33.74,33.27-13.48,8.61-28.73,14.39-45.31,17.18-7,1.18-13.92,1.76-20.7,1.76ZM717.4,639.99c-17.32,0-32.72,13.34-35.29,31.39l-64.45,463.29c-1.5,10.87-2.08,22.15-1.66,32.62,1.52,38.57,14.71,69.03,38.14,88.07,20.25,16.46,47.16,22.87,75.76,18.06,62.44-10.51,97.44-66.25,87.1-138.72l-64.45-463.34c-2.35-16.41-15.14-29.21-31.11-31.12-1.35-.16-2.69-.24-4.03-.24Z"/>
      </g>
      <g>
        <path class="cls-10" d="M730.27,655.78l287.47,369.02c49.74,63.39,42.12,132.79-7.13,173.46-49.72,41.06-118.12,33.12-162.14-36.63-6.07-9.62-11.38-20.21-15.44-30.19l-175.84-433.47c-8.85-22.03,1.18-46.72,22.24-55.73,18-7.71,38.84-1.74,50.83,13.54Z"/>
        <path d="M944.99,1230.23c-5.24,0-10.49-.41-15.72-1.25-16.4-2.63-32.08-9.25-46.61-19.7-15.11-10.86-28.62-25.63-40.14-43.89-6.03-9.55-11.56-20.37-16.01-31.3l-175.84-433.48c-4.96-12.35-4.99-25.84-.1-38.02,4.89-12.2,14.16-21.73,26.1-26.84,20.65-8.84,44.97-2.39,59.14,15.67l.02.02,287.47,369.02c24.95,31.8,37.07,66.39,35.03,100-.98,16.12-5.21,31.49-12.58,45.68-7.37,14.2-17.68,26.82-30.65,37.53-21.05,17.38-45.47,26.54-70.11,26.54ZM695.88,645.92c-4.62,0-9.27.91-13.67,2.79-17.51,7.49-25.8,28.41-18.48,46.63l175.83,433.45c4.13,10.16,9.28,20.22,14.87,29.08,20.6,32.65,47.25,52.43,77.06,57.2,25.77,4.13,52.27-3.77,74.64-22.24,48.82-40.32,51.26-106.1,6.07-163.68l-287.48-369.04c-7.19-9.15-17.95-14.19-28.83-14.19Z"/>
      </g>
      <g>
        <path class="cls-3" d="M697.65,657.76l433.46,175.85c74.77,30.02,102.87,93.94,80.56,153.79-22.53,60.42-85.73,87.74-158.73,49.35-10.07-5.3-19.96-11.82-28.47-18.43l-369.01-287.48c-18.68-14.66-22.33-41.05-8.6-59.39,11.74-15.67,32.77-20.93,50.79-13.69Z"/>
        <path d="M1118.49,1061.53c-3.99,0-8.03-.2-12.12-.61-18.52-1.85-37.6-7.89-56.71-17.94-9.99-5.26-20.2-11.86-29.51-19.1l-369.02-287.48c-10.47-8.21-17.24-19.88-19.1-32.87-1.86-13.01,1.4-25.9,9.19-36.29,13.46-17.98,37.75-24.56,59.05-16h.02s433.46,175.85,433.46,175.85c37.51,15.06,65.3,38.96,80.34,69.09,7.21,14.45,11.23,29.88,11.95,45.85.71,15.98-1.9,32.07-7.78,47.83-11.57,31.02-33.47,54.04-61.69,64.81-11.95,4.56-24.72,6.86-38.09,6.86ZM681.09,661.59c-11.11,0-21.8,5-28.6,14.08-11.41,15.24-8.13,37.5,7.31,49.63l368.99,287.46c8.66,6.73,18.14,12.87,27.42,17.75,34.17,17.97,67.13,21.78,95.34,11,24.38-9.31,43.38-29.4,53.52-56.58,22.12-59.33-8.65-117.51-76.58-144.79l-433.47-175.85c-4.54-1.82-9.27-2.7-13.93-2.7Z"/>
      </g>
      <g>
        <path class="cls-8" d="M670.38,675.79l463.31-64.45c79.77-11.38,136.06,29.92,146.66,92.9,10.7,63.59-30.38,118.85-112.79,122.1-11.37.45-23.2-.25-33.87-1.72l-463.31-64.46c-23.5-3.35-39.87-24.39-37.14-47.13,2.33-19.44,17.91-34.51,37.14-37.25Z"/>
        <path d="M1160.61,833.52c-9.15,0-18.65-.65-27.87-1.93l-463.32-64.46c-13.17-1.88-24.87-8.6-32.98-18.92-8.11-10.34-11.73-23.13-10.19-36.02,2.67-22.3,20.41-40.14,43.14-43.38h.02s463.31-64.45,463.31-64.45c40.02-5.71,76.03,1.09,104.12,19.66,13.47,8.91,24.67,20.26,33.27,33.74,8.61,13.48,14.39,28.73,17.18,45.31,5.49,32.65-1.97,63.54-21.02,86.97-10.47,12.89-24.05,23.15-40.36,30.51-16.96,7.65-36.5,11.97-58.08,12.82-2.38.09-4.79.14-7.23.14ZM671.37,682.76c-16.42,2.35-29.22,15.14-31.13,31.11-2.26,18.91,11.71,36.55,31.15,39.32l463.29,64.45c10.87,1.5,22.15,2.08,32.62,1.66,38.57-1.52,69.03-14.71,88.07-38.14,16.46-20.25,22.87-47.16,18.06-75.76-10.5-62.44-66.25-97.44-138.72-87.1l-463.34,64.45h.01Z"/>
      </g>
      <g>
        <path class="cls-11" d="M655.79,705.03l369.02-287.47c63.39-49.74,132.79-42.12,173.46,7.13,41.06,49.72,33.12,118.12-36.63,162.14-9.62,6.07-20.21,11.38-30.19,15.44l-433.47,175.84c-22.03,8.85-46.72-1.18-55.73-22.24-7.71-18-1.74-38.84,13.54-50.83Z"/>
        <path d="M681.42,788.37c-6.39,0-12.77-1.21-18.81-3.64-12.2-4.89-21.73-14.16-26.83-26.1-8.84-20.65-2.4-44.97,15.67-59.14h.02s369.02-287.48,369.02-287.48c31.8-24.95,66.38-37.07,100-35.03,16.12.98,31.49,5.21,45.68,12.58,14.2,7.37,26.82,17.68,37.53,30.65,21.08,25.53,30.06,56.01,25.29,85.83-2.63,16.4-9.25,32.08-19.7,46.61-10.86,15.11-25.63,28.62-43.89,40.14-9.55,6.03-20.37,11.56-31.3,16.01l-433.48,175.84c-6.22,2.5-12.72,3.74-19.2,3.74ZM660.12,710.58c-13.04,10.24-17.73,27.72-11.4,42.51,7.49,17.51,28.41,25.8,46.63,18.48l433.45-175.83c10.16-4.13,20.22-9.28,29.08-14.87,32.65-20.6,52.43-47.25,57.2-77.06,4.13-25.77-3.77-52.27-22.24-74.64-40.32-48.82-106.1-51.26-163.68-6.07l-369.04,287.48h0Z"/>
      </g>
      <g>
        <path class="cls-20" d="M657.76,737.65l175.85-433.46c30.02-74.77,93.94-102.87,153.79-80.56,60.42,22.53,87.74,85.73,49.35,158.73-5.3,10.07-11.82,19.96-18.43,28.47l-287.48,369.01c-14.66,18.68-41.05,22.33-59.39,8.6-15.67-11.74-20.93-32.77-13.69-50.79Z"/>
        <path d="M696.39,803.77c-10.52,0-20.67-3.34-29.16-9.7-17.98-13.46-24.56-37.75-16-59.05v-.02s175.85-433.46,175.85-433.46c15.06-37.51,38.96-65.3,69.09-80.34,14.45-7.21,29.88-11.23,45.85-11.95,15.98-.71,32.07,1.9,47.83,7.78,31.02,11.57,54.04,33.47,64.81,61.69,5.92,15.51,8.03,32.41,6.25,50.21-1.85,18.52-7.89,37.6-17.94,56.71-5.26,9.99-11.86,20.2-19.1,29.51l-287.48,369.02c-8.21,10.47-19.88,17.24-32.87,19.1-2.39.34-4.77.51-7.13.51ZM664.3,740.27c-6.18,15.4-1.51,32.89,11.37,42.53,15.24,11.41,37.5,8.13,49.63-7.31l287.46-368.99c6.73-8.66,12.87-18.14,17.75-27.42,17.97-34.17,21.78-67.13,11-95.34-9.31-24.38-29.4-43.38-56.58-53.52-59.33-22.12-117.51,8.65-144.79,76.58l-175.85,433.46Z"/>
      </g>
      <g>
        <path class="cls-7" d="M675.79,764.91l-64.45-463.31c-11.38-79.77,29.92-136.06,92.9-146.66,63.59-10.7,118.85,30.38,122.1,112.79.45,11.37-.25,23.2-1.72,33.87l-64.46,463.31c-3.35,23.5-24.39,39.87-47.13,37.14-19.44-2.33-34.51-17.91-37.25-37.14Z"/>
        <path d="M718.02,809.4c-1.93,0-3.88-.12-5.82-.35-22.3-2.67-40.14-20.41-43.38-43.14v-.02s-64.45-463.31-64.45-463.31c-5.71-40.02,1.09-76.03,19.66-104.12,8.91-13.47,20.26-24.67,33.74-33.27,13.48-8.61,28.73-14.39,45.31-17.18,32.65-5.49,63.54,1.97,86.97,21.02,12.89,10.47,23.15,24.05,30.51,40.36,7.65,16.96,11.97,36.5,12.82,58.08.44,11.28-.17,23.42-1.79,35.11l-64.46,463.32c-1.88,13.17-8.6,24.87-18.92,32.98-8.78,6.89-19.32,10.54-30.2,10.54ZM682.76,763.93c2.35,16.42,15.14,29.22,31.11,31.13,18.91,2.26,36.55-11.71,39.32-31.15l64.45-463.29c1.5-10.87,2.08-22.15,1.66-32.62-1.52-38.57-14.71-69.03-38.14-88.07-20.25-16.46-47.15-22.87-75.76-18.06-62.44,10.51-97.44,66.25-87.1,138.72l64.45,463.34h0Z"/>
      </g>
      <g>
        <path class="cls-13" d="M717.65,572.88c61.6,0,73.08-55.62,73.08-75.41,0-56.47,36.33-103.9,113.41-103.9,126.13,0,140.97,179.49,143.44,324.08,0,304.19-329.94,292.98-329.94,292.98,0,0-329.94,11.21-329.94-292.98,2.47-144.59,17.31-324.08,143.44-324.08,77.08,0,113.41,47.43,113.41,103.9,0,19.79,11.48,75.41,73.08,75.41"/>
        <path d="M722.41,1017.73c-2.51,0-4.13-.04-4.76-.06-3.66.11-41.36.9-90.93-9.31-30.03-6.18-58.16-15.16-83.6-26.67-31.94-14.45-59.71-32.97-82.55-55.04-53.02-51.25-79.91-121.58-79.91-209.01,0-.04,0-.08,0-.12.48-28.28,1.61-70.68,5.75-112.22,4.2-42.07,10.72-76.75,19.92-106.04,10.93-34.78,25.93-61.83,44.57-80.39,21.56-21.47,48.56-32.36,80.25-32.36,38.01,0,69.34,11.36,90.62,32.86,9.87,9.97,17.44,21.94,22.51,35.56,4.86,13.06,7.32,27.36,7.32,42.51,0,10.25,3.23,27.22,12.32,41.31,11.59,17.96,29.66,27.06,53.72,27.06s42.14-9.1,53.72-27.06c9.09-14.09,12.32-31.05,12.32-41.31,0-15.15,2.46-29.46,7.32-42.51,5.07-13.63,12.65-25.59,22.51-35.56,21.27-21.5,52.61-32.86,90.62-32.86,31.69,0,58.69,10.89,80.25,32.36,18.64,18.56,33.63,45.61,44.57,80.39,20.57,65.43,24.52,151.01,25.67,218.25,0,.04,0,.08,0,.12,0,87.44-26.89,157.76-79.91,209.01-22.83,22.07-50.6,40.59-82.55,55.04-25.44,11.51-53.56,20.48-83.6,26.67-41.09,8.46-74.02,9.36-86.17,9.36ZM717.65,1003.59c.08,0,.16,0,.24,0,.38.01,38.72,1.15,88.25-9.1,45.39-9.39,109.79-30.55,158.86-78.02,50.12-48.48,75.54-115.35,75.55-198.76-1.14-66.29-5.01-150.53-25.03-214.21-21.76-69.23-58.19-102.89-111.38-102.89-78.43,0-106.37,50.03-106.37,96.85,0,12.75-3.83,32.3-14.57,48.94-9.87,15.29-29.25,33.51-65.56,33.51s-55.69-18.22-65.56-33.51c-10.74-16.64-14.57-36.19-14.57-48.94,0-46.82-27.94-96.85-106.37-96.85-53.18,0-89.62,33.65-111.38,102.89-20.02,63.68-23.89,147.92-25.03,214.21.01,83.41,25.43,150.28,75.55,198.76,49.08,47.47,113.48,68.63,158.86,78.02,49.53,10.25,87.87,9.11,88.25,9.1.08,0,.16,0,.24,0Z"/>
      </g>
      <g>
        <path class="cls-16" d="M717.65,717.65c-148.16,0-159.29,22.79-159.29,22.79,0,0,10.88,68.92,67.89,117.75,52.54,45.01,130.27,45.01,182.81,0,57.01-48.84,67.89-117.75,67.89-117.75,0,0-11.13-22.79-159.29-22.79Z"/>
        <path class="cls-19" d="M717.65,898.98c-35.21,0-69.3-12.59-95.99-35.45-30.49-26.12-47.95-57.81-57.23-79.8-10.06-23.85-12.92-41.46-13.03-42.2l-.35-2.19.97-2c3.06-6.27,24.06-26.74,165.62-26.74s162.56,20.46,165.62,26.74l.97,2-.35,2.19c-.12.74-2.97,18.35-13.03,42.2-9.28,21.99-26.74,53.68-57.23,79.8-26.68,22.86-60.77,35.45-95.99,35.45ZM566.02,742.94c1.32,6.11,4.66,19.45,11.56,35.73,8.69,20.47,24.97,49.96,53.24,74.18,49.5,42.4,124.15,42.4,173.65,0,28.27-24.22,44.56-53.71,53.24-74.18,6.91-16.28,10.25-29.61,11.56-35.73-2.9-1.88-9.86-5.36-25.02-8.75-28.19-6.3-70.79-9.5-126.61-9.5s-98.42,3.2-126.61,9.5c-15.16,3.39-22.12,6.87-25.02,8.75ZM871.12,744.36h0ZM564.18,744.36h0,0Z"/>
      </g>
      <g>
        <ellipse class="cls-4" cx="810.87" cy="643.89" rx="24.55" ry="37.41" transform="translate(-123.15 197) rotate(-12.88)"/>
        <ellipse class="cls-1" cx="805.7" cy="627.86" rx="9.34" ry="14.23" transform="translate(-119.7 195.44) rotate(-12.88)"/>
        <ellipse class="cls-18" cx="824.64" cy="663.95" rx="8.74" ry="5.74" transform="translate(70.41 1406.92) rotate(-83.41)"/>
        <ellipse class="cls-9" cx="624.43" cy="643.89" rx="37.41" ry="24.55" transform="translate(-142.48 1109.04) rotate(-77.12)"/>
        <ellipse class="cls-1" cx="629.6" cy="627.86" rx="14.23" ry="9.34" transform="translate(-122.84 1101.63) rotate(-77.12)"/>
        <ellipse class="cls-18" cx="610.66" cy="663.95" rx="5.74" ry="8.74" transform="translate(-72.18 74.49) rotate(-6.59)"/>
      </g>
    </g>
  </g>
</svg>