<svg id="Layer_1" data-name="Layer 1" xmlns="http://www.w3.org/2000/svg" viewBox="0 0 740.9 134.54"><title>Artboard 33</title><path d="M29.14,21.47H65.06a37.5,37.5,0,0,1,17.65,3.89A26.76,26.76,0,0,1,94,36.24a32.8,32.8,0,0,1,3.86,16.1,32.33,32.33,0,0,1-4,16.16A27.05,27.05,0,0,1,82.43,79.35a38.65,38.65,0,0,1-17.87,3.86H48.11v29.85h-19ZM61.52,67.9q8.22,0,12.46-4.21t4.24-11.35q0-7.08-4.24-11.2T61.52,37H48.11V67.9Z"/><path d="M185.62,21.47V80.93a32.38,32.38,0,0,1-4.74,17.52,31.41,31.41,0,0,1-13.35,11.74,45.25,45.25,0,0,1-19.86,4.14,45.11,45.11,0,0,1-19.83-4.14,31.27,31.27,0,0,1-13.28-11.74,32.54,32.54,0,0,1-4.71-17.52V21.47h19V79.41a18.81,18.81,0,0,0,2.34,9.4,16.57,16.57,0,0,0,6.64,6.48,22.11,22.11,0,0,0,19.8,0,16.31,16.31,0,0,0,6.61-6.48,19,19,0,0,0,2.31-9.4V21.47Z"/><path d="M201.06,21.47h36.43q9.87,0,16.7,3a22.45,22.45,0,0,1,10.25,8.25A22.19,22.19,0,0,1,267.85,45a18.56,18.56,0,0,1-4.52,12.84,22.19,22.19,0,0,1-11.92,6.77v.89a20.78,20.78,0,0,1,9.9,3,21.06,21.06,0,0,1,7.4,7.75,23,23,0,0,1,2.81,11.48,23.77,23.77,0,0,1-3.64,13.1,24.38,24.38,0,0,1-10.75,9q-7.11,3.25-17.24,3.25H201.06Zm40.8,36.91a11.63,11.63,0,0,0,5-4.08,10.89,10.89,0,0,0,1.8-6.26,10.11,10.11,0,0,0-3.57-8.1q-3.57-3-10-3H220V59.8h14.68A17.22,17.22,0,0,0,241.86,58.38Zm6.07,36A10,10,0,0,0,251.79,86a12.31,12.31,0,0,0-7.15-11.48,18,18,0,0,0-8-1.68H220V97.38H236.1Q244.07,97.38,247.93,94.37Z"/><path d="M283.54,21.47h19V97.38H342v15.68H283.54Z"/><path d="M373.23,113.06h-19V21.47h19Z"/><path d="M433.64,39.18q-4.18-3-11.07-3a21.75,21.75,0,0,0-8.13,1.36,11.47,11.47,0,0,0-5.15,3.76,9,9,0,0,0-1.78,5.5,8.14,8.14,0,0,0,4,7.09A32.12,32.12,0,0,0,422.19,58l8.22,2q12.72,2.84,20.09,9.39t7.36,17.43a25.16,25.16,0,0,1-4.23,14.58A27.16,27.16,0,0,1,441.42,111a48.9,48.9,0,0,1-19,3.35,49.92,49.92,0,0,1-19.32-3.42,27.84,27.84,0,0,1-12.72-10.09q-4.51-6.66-4.77-16.35H404.1a13.17,13.17,0,0,0,5.34,10.35q4.9,3.57,12.75,3.57a23.7,23.7,0,0,0,8.66-1.46,13.21,13.21,0,0,0,5.76-4,9.5,9.5,0,0,0,2-6,8.06,8.06,0,0,0-3.82-7Q431,77.26,423,75.24l-10-2.41Q388,66.69,388,47.91a24.47,24.47,0,0,1,4.46-14.51,28.88,28.88,0,0,1,12.37-9.75,44.32,44.32,0,0,1,17.84-3.44,42.2,42.2,0,0,1,17.64,3.48,27.91,27.91,0,0,1,11.89,9.71,25.48,25.48,0,0,1,4.37,14.26H438.38A11.48,11.48,0,0,0,433.64,39.18Z"/><path d="M470.26,21.47h19v38H529V21.47h19.1v91.59H529V75.11H489.24v38h-19Z"/><path d="M563.5,21.47H625V37.16H582.47V59.42h39.35V75.11H582.47V97.38h42.64v15.68H563.5Z"/><path d="M639.78,21.47h35.93a39.41,39.41,0,0,1,17.68,3.67,25.87,25.87,0,0,1,11.22,10.41,31.12,31.12,0,0,1,3.86,15.78,29.77,29.77,0,0,1-4.17,16.06,25.54,25.54,0,0,1-12,10.06l19.48,35.61h-21L673.24,80.55H658.75v32.51h-19Zm32.39,43.65q16.7,0,16.69-13.79,0-7-4.17-10.66T672.17,37H658.75V65.12Z"/></svg>