<svg width="60" height="60" viewBox="0 0 60 60" fill="none" xmlns="http://www.w3.org/2000/svg">
<g clip-path="url(#clip0_687_2266)">
<rect width="60" height="60" fill="white"/>
<rect width="60" height="60" fill="#FF671A"/>
<path d="M46.9521 31.1605C46.8835 32.0645 46.7407 32.9519 46.5349 33.8113C44.8093 40.9435 38.4436 46.4127 30.7866 46.954C27.0553 47.2163 23.5525 46.3401 20.5982 44.6436C19.3125 43.9013 19.0897 42.1713 20.1468 41.1389L40.9979 20.7691C42.055 19.7366 43.8264 19.9599 44.5864 21.2155C44.9693 21.8517 45.3121 22.5103 45.6093 23.1967C46.6664 25.6132 47.1635 28.3254 46.9521 31.1605Z" fill="white"/>
<path d="M13.0478 28.8393C13.1164 27.9352 13.2592 27.0479 13.4649 26.1884C15.1906 19.0562 21.5562 13.5871 29.2133 13.0457C32.9446 12.7834 36.4474 13.6596 39.4017 15.3562C40.6874 16.0984 40.9102 17.8285 39.8531 18.8609L19.002 39.2307C17.9449 40.2631 16.1735 40.0399 15.4135 38.7842C15.0306 38.148 14.6878 37.4895 14.3906 36.8031C13.3335 34.3866 12.8364 31.6743 13.0478 28.8393Z" fill="white"/>
</g>
<defs>
<clipPath id="clip0_687_2266">
<rect width="60" height="60" fill="white"/>
</clipPath>
</defs>
</svg>
