<?xml version="1.0" encoding="UTF-8"?>
<svg id="Layer_1" data-name="Layer 1" xmlns="http://www.w3.org/2000/svg" xmlns:xlink="http://www.w3.org/1999/xlink" viewBox="0 0 164.8 71.75">
  <defs>
    <style>
      .cls-1 {
        fill: #fff;
        filter: url(#drop-shadow-1);
      }
    </style>
    <filter id="drop-shadow-1" x="5.1" y="9.17" width="156" height="56" filterUnits="userSpaceOnUse">
      <feOffset dx="0" dy="2.27"/>
      <feGaussianBlur result="blur" stdDeviation=".57"/>
      <feFlood flood-color="#000" flood-opacity=".3"/>
      <feComposite in2="blur" operator="in"/>
      <feComposite in="SourceGraphic"/>
    </filter>
  </defs>
  <path class="cls-1" d="M158.06,51.99l-15.25-38.54c-.72-1.82-2.48-3.02-4.44-3.02h-6.74c-1.96,0-3.73,1.2-4.44,3.03l-9.21,23.45V15.16c0-2.64-2.14-4.77-4.78-4.77h-7.01c-2.02,0-3.83,1.28-4.5,3.19l-6.45,18.3-6.48-18.31c-.67-1.91-2.48-3.18-4.5-3.18h-7.01c-2.64,0-4.78,2.14-4.78,4.77v10.87c-.22-.23-.42-.48-.65-.7-3.83-3.62-8.3-5.45-13.28-5.45-5.23,0-9.6,1.72-13.02,5.07-.34-2.69-1.51-5.59-3.58-8.8-2.03-3.16-6.29-6.94-15.04-6.94-5.91,0-10.53,1.72-13.72,5.11-3.04,3.24-4.69,6.75-4.9,10.45-.21,3.87.78,7.13,2.95,9.7.45.53.94,1.04,1.48,1.52h-.9c-1.27,0-2.5.51-3.39,1.42-.9.91-1.39,2.13-1.38,3.41.05,4.46,1.71,8.76,4.94,12.76,3.49,4.32,8.6,6.52,15.2,6.52,5.81,0,10.46-1.56,13.84-4.64,1.06-.97,1.96-2,2.74-3.08.35.44.71.88,1.09,1.3,3.62,3.94,8.25,5.93,13.75,5.93s9.54-1.53,12.47-4.54c.51-.52.96-1.05,1.4-1.58v.27c0,2.64,2.14,4.78,4.78,4.78h5.88c2.01,0,3.73-1.24,4.43-3,.74,1.77,2.47,2.94,4.41,2.94h6.63c1.97,0,3.73-1.21,4.45-3.03.7,1.78,2.42,3.03,4.45,3.03h5.71c.56,0,1.09-.11,1.59-.29.54.21,1.1.35,1.69.35h5.98c1.96,0,3.72-1.2,4.44-3.02l2.47-6.25h11.31l2.52,6.27c.73,1.81,2.48,3,4.43,3h5.98c1.58,0,3.06-.78,3.95-2.09.89-1.31,1.07-2.97.49-4.44Z"/>
  <g>
    <path d="M40.68,37.79c1.2,1.91,1.66,4.01,1.37,6.31-.36,2.95-1.78,5.55-4.26,7.81s-6.02,3.39-10.62,3.39c-5.1,0-8.93-1.58-11.48-4.74s-3.84-6.43-3.88-9.81h5.93c.07,2.77,1.01,4.98,2.8,6.63,1.8,1.65,4.01,2.48,6.63,2.48s4.65-.57,5.98-1.73c1.33-1.15,2.17-2.55,2.53-4.2.32-1.33.13-2.45-.59-3.37s-1.76-1.7-3.13-2.34c-1.65-.83-3.44-1.31-5.36-1.46-1.92-.14-3.85-.61-5.79-1.4-2.59-1.04-4.56-2.37-5.93-3.99-1.37-1.62-1.98-3.74-1.83-6.36.14-2.55,1.35-5.03,3.61-7.44,2.26-2.41,5.68-3.61,10.24-3.61,5.32,0,8.99,1.58,11.02,4.74,2.03,3.16,3.01,5.86,2.94,8.08h-5.88c-.04-2.01-.7-3.75-1.99-5.23-1.29-1.47-3.32-2.21-6.09-2.21-2.55,0-4.42.62-5.61,1.86-1.19,1.24-1.8,2.54-1.83,3.91-.04,1.55.44,2.7,1.43,3.48.99.77,2.06,1.36,3.21,1.75,1.4.47,3.17.86,5.31,1.19,2.14.32,4.23.97,6.28,1.94,2.12.97,3.78,2.41,4.99,4.31Z"/>
    <path d="M50.62,41.73c.22,2.16,1.06,4.01,2.53,5.55,1.47,1.54,3.25,2.32,5.34,2.32s3.57-.46,4.69-1.38c1.11-.92,1.8-1.77,2.05-2.56h6.36c-.61,1.98-1.92,4-3.94,6.06-2.01,2.07-5.03,3.1-9.05,3.1s-7.55-1.46-10.24-4.39c-2.7-2.93-4.04-6.5-4.04-10.7s1.3-7.86,3.91-10.75c2.6-2.89,6.05-4.34,10.32-4.34,3.74,0,7.07,1.38,10,4.15,2.93,2.77,4.27,7.08,4.02,12.94h-21.94ZM66.25,36.88c-.25-2.08-1.06-3.78-2.43-5.09-1.37-1.31-3.14-1.97-5.34-1.97s-3.82.63-5.2,1.89c-1.38,1.26-2.27,2.98-2.67,5.17h15.63Z"/>
    <path d="M107.49,53.69v-25.71l-8.89,25.71h-6.63l-8.84-25.71v25.76h-5.88V15.16h7.01l11,31.05,10.94-31.05h7.01v38.54h-5.71Z"/>
    <path d="M147.64,53.75l-3.72-9.27h-17.79l-3.66,9.27h-5.98l15.15-38.54h6.74l15.25,38.54h-5.98ZM135.03,21.84l-6.68,17.14h13.42l-6.74-17.14Z"/>
  </g>
</svg>