<svg id="Layer_1" data-name="Layer 1" xmlns="http://www.w3.org/2000/svg" viewBox="0 0 156.1 138.61"><defs><style>.cls-1{fill:#b5851c;}.cls-2{fill:#1d1d1b;}</style></defs><title>Artboard 20</title><path class="cls-1" d="M52.3,25.64,32.53,7.28,28,3a11.33,11.33,0,0,0-19.06,8.3V27.77a11.22,11.22,0,0,0-3.66,1.51A11.34,11.34,0,0,0,0,38.84v66.71a11.34,11.34,0,0,0,5.25,9.56,11.22,11.22,0,0,0,3.66,1.51v10.65a11.34,11.34,0,0,0,11.34,11.34H24.8a11.34,11.34,0,0,0,11.34-11.34V106.49l6.56-3.06,15.1-7V111a11.33,11.33,0,0,0,11.34,11.34H87A11.33,11.33,0,0,0,98.29,111V96.4l15.1,7,6.57,3.06v20.78a11.34,11.34,0,0,0,11.34,11.34h4.55a11.34,11.34,0,0,0,11.34-11.34V116.62a11.22,11.22,0,0,0,3.66-1.51,11.34,11.34,0,0,0,5.25-9.56V38.84a11.34,11.34,0,0,0-5.25-9.56,11.22,11.22,0,0,0-3.66-1.51V11.34A11.34,11.34,0,0,0,128.13,3l-4.55,4.23L103.8,25.64Z"/><polygon class="cls-2" points="144.76 43.34 144.76 38.84 135.85 43 135.85 11.34 131.3 15.58 108.25 36.98 89.34 36.98 89.34 50.88 84.79 50.88 84.79 36.98 80.11 36.98 80.11 50.88 78.05 50.88 75.99 50.88 75.99 36.98 71.31 36.98 71.31 50.88 66.76 50.88 66.76 36.98 47.85 36.98 24.8 15.58 20.25 11.34 20.25 43 11.34 38.84 11.34 43.34 20.25 47.48 20.25 56.6 11.34 54.56 11.34 59.04 20.25 61.1 20.25 69.97 11.34 69.97 11.34 74.44 20.25 74.44 20.25 83.29 11.34 85.35 11.34 89.85 20.25 87.79 20.25 96.92 11.34 101.07 11.34 105.55 20.25 101.39 20.25 127.27 24.8 127.27 24.8 99.27 37.91 93.15 57.77 83.91 66.76 79.71 71.31 77.57 78.05 74.44 84.79 77.57 89.34 79.71 98.33 83.91 118.19 93.15 131.3 99.27 131.3 127.27 135.85 127.27 135.85 101.39 144.76 105.55 144.76 101.07 135.85 96.92 135.85 87.79 144.76 89.85 144.76 85.35 135.85 83.29 135.85 74.44 144.76 74.44 144.76 69.97 135.85 69.97 135.85 61.1 144.76 59.04 144.76 54.56 135.85 56.6 135.85 47.48 144.76 43.34"/><rect class="cls-2" x="69.14" y="93.15" width="17.82" height="17.82"/></svg>