<?xml version="1.0" encoding="UTF-8"?>
<svg id="Layer_1" data-name="Layer 1" xmlns="http://www.w3.org/2000/svg" xmlns:xlink="http://www.w3.org/1999/xlink" viewBox="0 0 1074.98 459.95">
  <defs>
    <style>
      .cls-1 {
        fill: #00b3ad;
      }

      .cls-2 {
        filter: url(#drop-shadow-2);
      }

      .cls-3 {
        fill: #b3529f;
      }

      .cls-4 {
        fill: #0683c3;
      }

      .cls-5 {
        fill: #ec5b9f;
      }

      .cls-6 {
        fill: #ffc53a;
      }

      .cls-7 {
        fill: #f0ea40;
      }

      .cls-8 {
        fill: #f59040;
      }

      .cls-9 {
        fill: #f16140;
      }

      .cls-10 {
        fill: #4f4da0;
      }

      .cls-11 {
        fill: #04afe4;
      }

      .cls-12 {
        fill: #05b368;
      }

      .cls-13 {
        fill: #8fc85b;
      }
    </style>
    <filter id="drop-shadow-2" x="30.86" y="35.38" width="1021.68" height="400.32" filterUnits="userSpaceOnUse">
      <feOffset dx="-1" dy="1"/>
      <feGaussianBlur result="blur" stdDeviation=".4"/>
      <feFlood flood-color="#231f20" flood-opacity=".2"/>
      <feComposite in2="blur" operator="in"/>
      <feComposite in="SourceGraphic"/>
    </filter>
  </defs>
  <g class="cls-2">
    <g>
      <path class="cls-3" d="M287.6,130.98s54.08-20.6,53.71-67.32-105.95-25.75-146.79,33.66c-40.84,59.41-7.73,122.69,48.19,89.21,0,0-62.43,33.36-43.04,67.69,17.66,31.27,114.5-8.13,136.49-64.01,17.66-44.88-6.25-76.89-48.56-59.23Z"/>
      <path d="M224.44,267.78c-13.1,0-22.37-4.22-26.95-12.33-4.24-7.51-5.16-15.55-2.74-23.89,3.94-13.54,16.01-25.55,26.91-34.07-13.81,2.52-26.19-1.03-35.16-10.59-16.24-17.29-19.41-54.1,5.96-91,14.23-20.7,37.07-38.29,64.32-49.53,25.03-10.33,49.89-13.45,66.49-8.37,13.14,4.02,20.43,13.13,20.53,25.64.16,19.89-9.4,38.26-27.64,53.14-3.22,2.62-6.43,4.92-9.46,6.9,10.81-.7,20.18,2.34,26.99,9.01,6.04,5.91,9.7,14.36,10.6,24.41.92,10.25-1.1,22.02-5.82,34.03-7.52,19.11-24.23,37.89-47.07,52.89-20.53,13.49-43.82,22.31-62.3,23.6-1.61.11-3.16.17-4.67.17ZM241.05,190.36c-8.85,5.25-35.66,22.53-41.49,42.6-2.03,7-1.26,13.73,2.29,20.03,5.17,9.15,17.49,10.29,26.92,9.63,17.66-1.23,40.05-9.75,59.9-22.79,21.98-14.44,38.02-32.39,45.16-50.54,8.67-22.03,7.28-42.36-3.63-53.04-9.03-8.84-23.69-10.09-40.38-3.48-.78.33-1.24.51-1.34.54-1.28.48-2.71-.14-3.21-1.41-.51-1.27.1-2.71,1.36-3.23.33-.14.66-.27.99-.4,6.99-2.96,51.51-23.46,51.19-64.59-.08-10.44-5.8-17.47-17-20.9-32.27-9.88-96.39,14-125.23,55.96-23.86,34.72-21.3,68.91-6.43,84.74,11.42,12.16,28.77,13.12,47.98,2.78,1.91-1.13,3.15-1.8,3.41-1.94,1.2-.64,2.69-.21,3.35.97.67,1.18.27,2.68-.89,3.38-.98.59-1.97,1.15-2.95,1.69Z"/>
    </g>
    <g>
      <path class="cls-5" d="M486.41,165.16c-2.33,28.99-17.01,94.23-97.37,92.83-80.35-1.4-77.09-83.63-59.33-135.02,15.54-44.97,46.18-84.79,73.49-55.88.77.81,1.48,1.7,2.13,2.67,6.28-6.7,15.41-12.6,28.09-12.6,47.09.02,55.32,79.02,52.99,108Z"/>
      <path d="M391.59,260.51c-.86,0-1.72,0-2.59-.02-26.48-.46-46.07-9.52-58.25-26.94-20.68-29.56-15.31-76.93-3.39-111.4,10.08-29.17,28.74-62.04,50.88-66.81,9.54-2.06,18.56,1.32,26.78,10.02.19.2.37.4.55.6,7.9-7.51,17.26-11.31,27.85-11.31,11.79,0,22.07,4.67,30.56,13.88,22.73,24.64,26.6,75.87,24.92,96.82-1.05,13.06-5.03,38.11-19.88,59.05-16.98,23.96-43.03,36.1-77.44,36.1ZM383.5,59.78c-1.39,0-2.8.15-4.21.46-16.57,3.57-35.11,28.52-47.21,63.55-6.33,18.31-9.96,38.06-10.22,55.61-.32,21.26,4.05,38.51,12.99,51.29,11.21,16.03,29.46,24.37,54.24,24.8.83.01,1.66.02,2.48.02,76.74,0,90.16-63.17,92.36-90.55h0c.81-10.13.39-27.54-3.25-46.02-2.84-14.46-8.68-34.35-20.37-47.01-7.51-8.14-16.55-12.27-26.89-12.27-10.09,0-18.93,3.97-26.27,11.81-.52.56-1.27.84-2.03.78-.76-.06-1.45-.47-1.87-1.11-.56-.85-1.19-1.63-1.86-2.34-5.67-6.01-11.67-9.03-17.89-9.03Z"/>
    </g>
    <path d="M386.71,196.02c-.52,0-1.04-.16-1.48-.49-1.11-.82-1.35-2.38-.53-3.5.27-.37,26.91-37.05,26.13-83.5-.28-17.77-2.83-30.35-7.57-37.37-.77-1.14-.47-2.7.67-3.47,1.14-.77,2.7-.47,3.47.67,5.37,7.95,8.12,21.07,8.43,40.09.82,48.19-25.96,85.01-27.1,86.56-.49.66-1.25,1.01-2.01,1.01Z"/>
    <g>
      <path class="cls-9" d="M537.02,161.01s75.5-10.37,63.05-77.57c-12.44-67.2-132.33-48.12-138.14,21.57-8.3,97.07,13.69,150.17,61.4,138.55s35.26-56.42,13.69-82.55Z"/>
      <path d="M510.89,247.65c-9.97,0-18.75-3.2-26.2-9.59-22.34-19.14-31.07-65.23-25.25-133.27,3.34-40.1,43.01-63.63,78.64-65.41,15.66-.78,29.87,2.42,41.1,9.26,12.52,7.63,20.6,19.5,23.35,34.34,3.57,19.27.44,35.88-9.31,49.37-15.08,20.87-41.43,28.23-51.67,30.37,11.46,15.25,21.5,38.14,15.15,57.24-4.33,13.03-15.36,21.79-32.78,26.03-4.54,1.11-8.89,1.66-13.03,1.66ZM543.04,44.26c-1.53,0-3.1.04-4.7.12-33.51,1.68-70.8,23.57-73.91,60.84-5.59,65.42,2.76,111.25,23.52,129.05,9.25,7.93,20.95,10.24,34.79,6.87,15.64-3.81,25.47-11.46,29.22-22.75,3.86-11.62,1.77-33.21-16.87-55.79-.58-.7-.73-1.65-.4-2.5s1.09-1.44,1.99-1.57c.35-.05,35.18-5.12,52.51-29.13,8.9-12.34,11.74-27.65,8.43-45.51-3.61-19.49-19.86-39.64-54.58-39.64Z"/>
    </g>
    <path d="M524.11,126.31c-.52,0-1.04-.16-1.49-.5-1.11-.83-1.33-2.39-.51-3.5,5.5-7.36,4.68-16.27,3.03-22.44-1.26-4.71-6.09-7.14-6.14-7.16-1.25-.6-1.77-2.09-1.18-3.33.6-1.25,2.09-1.77,3.33-1.18.28.13,6.94,3.39,8.81,10.38,2.74,10.24,1.38,19.73-3.85,26.73-.49.66-1.24,1-2.01,1Z"/>
    <g>
      <path class="cls-8" d="M586.07,176.02c-13.54-9.03-38.37-29.34-8.04-72.67,28.1-40.16,116.68-58.71,126.3-4.06,6.27,35.59-51,38.32-51,38.32,0,0,37.61-13.95,44.2,21.08,6.58,35.02-48.45,33.18-48.45,33.18,0,0,61.54-9.01,63.23,27.51,1.89,41.01-62.74,46.56-102.24,39.85-43.41-7.38-39.44-40.32-37.64-54.38,1.73-13.54,13.66-28.82,13.66-28.82Z"/>
      <path d="M639.57,264.15c-10.4,0-20.68-.89-29.93-2.46-46.02-7.82-41.43-43.67-39.7-57.16,1.43-11.15,9.19-23.12,12.59-27.9-8.16-5.74-18.11-14.69-20.76-28.72-2.53-13.42,2.25-28.89,14.21-45.98,19.04-27.21,64.25-44.75,96.75-37.55,18.78,4.16,30.88,16.41,34.07,34.49,1.51,8.55-.27,16.06-5.29,22.33-4.92,6.15-12.34,10.31-19.89,13.13,1.44.52,2.87,1.16,4.25,1.94,7.41,4.19,12.16,11.58,14.11,21.96,1.62,8.61-.09,15.92-5.08,21.73-3.71,4.33-8.88,7.36-14.42,9.49,8.86,1.33,17.84,4.11,24.41,9.52,6.18,5.1,9.51,11.93,9.9,20.29.51,11-3.42,20.27-11.66,27.57-14.05,12.43-39.14,17.33-63.56,17.33ZM657.38,67.78c-28.38,0-62.24,15.47-77.31,37-11.16,15.94-15.66,30.14-13.39,42.19,2.53,13.44,13.07,21.83,20.78,26.97.58.39.97.99,1.08,1.68.11.69-.07,1.39-.5,1.94-.12.15-11.52,14.92-13.15,27.6-1.71,13.34-5.71,44.58,35.58,51.6,30.79,5.23,71.37,2.21,89.34-13.68,7.06-6.24,10.41-14.18,9.98-23.59-.32-6.99-2.96-12.44-8.08-16.66-9.41-7.77-25.11-9.43-36.86-9.43-.12,0-.23,0-.35,0-8.32,1.17-14.94.99-15.53.97-1.29-.04-2.34-1.07-2.41-2.36-.07-1.29.85-2.43,2.13-2.61.63-.09,6.98-.99,15.53-1.03,9.36-1.36,20.73-4.49,26.88-11.66,4-4.67,5.29-10.41,3.95-17.55-1.67-8.87-5.59-15.1-11.66-18.54-3.77-2.14-8.01-3.01-12.06-3.2-9.46,2.25-17.24,2.67-17.9,2.7-1.23.07-2.32-.79-2.57-2-.25-1.21.42-2.42,1.58-2.84.51-.19,8.72-3.17,18.29-2.89,9.57-2.34,20.7-6.6,26.86-14.31,4.13-5.17,5.52-11.17,4.26-18.33-3.6-20.45-18.42-27.86-30.22-30.47-4.5-1-9.3-1.47-14.26-1.47Z"/>
    </g>
    <g>
      <path class="cls-6" d="M759.24,182.32s17.45,42.12-11.7,54.33c-3.84,1.61-8.23,1.84-12.09.28-43.16-17.52-73.44-204.12,27.69-192.78,9.64,1.08,19.06,4,27.32,9.09,45.81,28.24,18.14,88.53,6.31,91.98,0,0,37.95,4.59,43.37,39.2,1.84,11.77,1.67,27.57-7.22,33.19-19.26,12.17-46.15,9.6-73.68-35.27Z"/>
      <path d="M741.01,240.47c-2.26,0-4.47-.41-6.51-1.24-29.89-12.13-51-94.76-37.65-147.35,9.18-36.18,32.83-54.02,66.56-50.24,10.57,1.18,20.11,4.36,28.35,9.44,27.1,16.71,27.92,43.13,25.99,57.39-2.06,15.27-8.63,28.99-14.91,35.44,11.26,2.96,35.44,12.46,39.77,40.09,1.3,8.32,3.1,28.45-8.35,35.69-9.64,6.09-20.21,8.03-30.58,5.62-13.07-3.04-25.77-12.72-37.87-28.83.47,2.59.84,5.38,1.01,8.26,1.01,16.93-5.32,28.76-18.31,34.2-2.42,1.01-4.98,1.52-7.49,1.52ZM754.55,46.14c-33.57,0-47.28,25.04-52.85,46.98-6.17,24.29-5.17,56.75,2.68,86.84,7.49,28.73,19.75,49.67,32.01,54.64,3.08,1.25,6.8,1.16,10.19-.27,26.55-11.12,10.52-50.67,10.36-51.06-.5-1.21.01-2.59,1.17-3.18,1.16-.59,2.58-.19,3.27.92,13.93,22.7,28.54,35.97,43.44,39.44,9.17,2.13,18.17.46,26.77-4.97,9.2-5.81,6.98-24.96,6.08-30.69-5.07-32.37-40.84-37.06-41.2-37.1-1.18-.14-2.1-1.09-2.19-2.28-.1-1.18.65-2.27,1.79-2.6,4.29-1.25,14.14-15.85,16.73-34.99,1.77-13.06,1.04-37.24-23.66-52.46-7.61-4.69-16.46-7.63-26.29-8.73-2.9-.32-5.66-.48-8.31-.48Z"/>
    </g>
    <g>
      <path class="cls-1" d="M622.12,326.09c-2.33,28.15-12.03,91.43-97.65,85.09-74.32-5.49-82.01-83.98-64.25-133.89,15.54-43.65,51.39-74.5,78.69-46.42.77.79,1.48,1.66,2.13,2.59,6.26-6.52,15.39-12.23,28.09-12.23,47.09.02,55.32,76.71,52.99,104.86Z"/>
      <path d="M536.09,414.12c-3.82,0-7.75-.15-11.8-.45-26.66-1.97-46.74-13.05-59.7-32.92-19.59-30.06-17.49-74.04-6.72-104.3,11.01-30.92,31.03-53.72,51-58.08,11.54-2.52,22.55,1.2,31.83,10.75.19.2.38.4.56.6,7.88-7.3,17.24-11,27.86-11,12.05,0,22.51,4.75,31.11,14.09,22.25,24.18,26.02,73.42,24.37,93.48-1.27,15.41-4.53,38.05-18.06,56.74-14.95,20.66-38.62,31.09-70.47,31.09ZM515.9,222.6c-1.95,0-3.94.22-5.96.66-18.05,3.94-37.08,25.99-47.36,54.87-10.36,29.09-12.45,71.26,6.2,99.89,12.06,18.5,30.86,28.82,55.88,30.67,36,2.67,62.2-6.95,77.85-28.58,12.79-17.68,15.9-39.41,17.13-54.22h0c1.6-19.34-1.93-66.72-23.06-89.68-7.61-8.27-16.85-12.47-27.44-12.48-10.14,0-18.99,3.86-26.29,11.46-.52.54-1.26.82-2,.76-.75-.06-1.43-.45-1.86-1.06-.58-.84-1.21-1.6-1.87-2.28-6.48-6.66-13.6-10.01-21.23-10.01Z"/>
    </g>
    <path d="M522.42,356.13c-.53,0-1.06-.17-1.51-.51-1.1-.84-1.31-2.4-.48-3.5.27-.35,26.89-35.95,26.11-81-.28-17.25-2.83-29.44-7.55-36.23-.79-1.13-.51-2.69.62-3.48,1.13-.79,2.69-.51,3.48.62,5.38,7.73,8.14,20.49,8.45,39,.82,46.83-25.98,82.61-27.12,84.11-.49.65-1.24.99-1.99.99Z"/>
    <path d="M760.44,116.4c-.69,0-1.38-.29-1.88-.85-.91-1.04-.81-2.62.23-3.53.16-.15,4.34-4.07,4.52-12.83.19-9.11-3.35-14.6-3.39-14.65-.76-1.15-.44-2.7.7-3.46,1.15-.76,2.69-.46,3.46.68.18.27,4.45,6.75,4.23,17.53-.23,11.08-5.97,16.26-6.21,16.48-.47.42-1.06.62-1.65.62Z"/>
    <g>
      <path class="cls-7" d="M141.96,302.6s8.13-78.5-43.14-78.5-59.05,89.42-60.46,101.64c-4.95,51.11-6.01,91.07,26.17,91.77s44.55-53.39,48.79-81.32c0,0,.83,71.17,52.68,70.72,40.31-.35,56.57-54.45,56.57-95.47,0-17.33-6.72-85.57-39.96-85.57-37.83,0-40.66,76.73-40.66,76.73Z"/>
      <path d="M65.16,420.02c-.23,0-.46,0-.69,0-8.68-.19-15.61-3.14-20.6-8.76-13.58-15.29-11.53-49.29-8-85.76.06-.5.12-1.06.19-1.72,7.21-65.89,29.49-102.17,62.76-102.17,12.23,0,22.27,4.26,29.85,12.67,9.03,10.01,13.19,24.33,15,37.3.59-2.63,1.26-5.32,2.03-8.02,7.45-26.29,20.22-40.18,36.92-40.18,15.23,0,27.28,13.16,34.83,38.06,6.03,19.87,7.62,41.4,7.62,50.01,0,23.2-4.89,46.56-13.42,64.08-10.72,22-26.49,33.72-45.63,33.89-22.33.17-39-12.53-48.15-36.81-2.52-6.69-4.14-13.34-5.18-19.09-2.46,11.39-5.99,23.99-11.02,35.11-9.41,20.84-21.7,31.4-36.52,31.4ZM98.82,226.6c-40.98,0-53.8,61.22-57.79,97.72-.07.67-.14,1.25-.19,1.71-3.42,35.28-5.47,68.12,6.77,81.91,4.09,4.6,9.64,6.92,16.97,7.08.18,0,.37,0,.55,0,30.39,0,42.08-55.31,45.71-79.21.2-1.29,1.34-2.2,2.64-2.12,1.3.09,2.31,1.16,2.33,2.46,0,.17.29,17.66,6.78,34.79,8.48,22.38,23.09,33.64,43.39,33.46,39.69-.35,54.1-55.79,54.1-92.97,0-16.48-6.67-83.07-37.46-83.07s-36.36,52.21-37.81,69.12c-.14,3.06-.33,5.01-.37,5.37-.14,1.34-1.32,2.33-2.66,2.24-1.35-.09-2.37-1.24-2.32-2.59,0-.24.08-2.16.34-5.24.19-4.52.27-11.65-.49-19.63-1.17-12.3-4.61-29.22-14.35-40.02-6.59-7.31-15.38-11.01-26.13-11.01Z"/>
    </g>
    <g>
      <path class="cls-13" d="M277.44,369.34s9.09,61.48-42.43,61.48-45.84-75.52-18.5-127.34c38.09-72.19,87.49-66.29,104.48-48.61,30.84,34.83,33.65,75.86,27.93,120.44-4.02,31.33-26.19,48.21-39.15,48.21-36.18,0-32.33-54.18-32.33-54.18Z"/>
      <path d="M235.01,433.32c-14.81,0-26.35-6.16-33.38-17.81-7.47-12.39-9.88-30.59-6.94-52.62,2.69-20.19,9.65-41.7,19.61-60.57,10.14-19.23,21.77-34.26,34.56-44.69,11.06-9.02,22.73-14.45,34.68-16.13,18.22-2.57,32.22,4.33,39.25,11.65.02.02.05.05.07.08,34.05,38.46,33.54,83.46,28.54,122.42-4.16,32.44-27.25,50.39-41.63,50.39-8.97,0-16.42-3.11-22.14-9.25-4.5-4.83-7.44-11.01-9.36-17.32-2.03,8.11-5.4,14.99-9.95,20.26-7.79,9.03-19,13.61-33.32,13.61ZM291.26,245.93c-2.25,0-4.59.16-7.02.5-24.25,3.42-47.52,24.09-65.52,58.21-17.67,33.48-28.16,82.81-12.8,108.28,6.16,10.21,15.95,15.39,29.09,15.39s22.72-3.99,29.52-11.86c7.84-9.07,10.28-21.78,10.86-31.66-.91-8.48-.48-15.05-.44-15.63.09-1.27,1.12-2.27,2.4-2.32,1.27-.06,2.38.87,2.57,2.13.04.3.98,6.78.52,15.59,1.05,9.45,3.83,21.25,10.87,28.8,4.73,5.08,10.95,7.65,18.47,7.65,11.04,0,32.74-15.38,36.67-46.02,4.85-37.83,5.4-81.48-27.29-118.43-5.27-5.46-15.04-10.63-27.89-10.63Z"/>
    </g>
    <path d="M282.13,333.99c-.57,0-1.14-.19-1.6-.58-1.06-.89-1.2-2.46-.31-3.52,10.71-12.77,6.91-26.94,6.74-27.54-.37-1.33.4-2.71,1.73-3.08,1.33-.37,2.7.39,3.08,1.72.2.7,4.74,17.26-7.72,32.12-.49.59-1.2.89-1.92.89Z"/>
    <g>
      <path class="cls-12" d="M377.02,301.67s-69.2,16.23-65-34.13c4.2-50.36,108.78-49.87,155.52-45.36s31.08,65.78-9.21,72.22c-20.98,1.68-24.9-1.96-25.74,2.24-1.58,12.26,12.88,19.03,13.71,65.18.84,47-36.09,58.75-60.43,53.16-26.98-6.2-24.34-71.62-8.85-113.31Z"/>
      <path d="M397.51,418.75c-4.4,0-8.55-.5-12.19-1.34-6.28-1.44-11.36-5.7-15.11-12.65-11.96-22.18-7.81-67.89,2.99-99.79-10.73,1.86-38.29,5-53.54-8.17-7.79-6.72-11.2-16.64-10.13-29.47.85-10.24,5.65-19.07,14.27-26.27,13.82-11.54,37.32-18.89,69.86-21.86,32-2.92,62.5-.63,74.12.49,18.84,1.82,30.4,12.97,30.93,29.84.61,19.68-15.31,43.39-39.98,47.33-.06.01-.13.02-.2.02-9.55.76-15.54.45-19.49.24-1.61-.08-3.27-.17-3.98-.07-.46,3.86,1.02,7.27,3.25,12.41,3.97,9.14,9.97,22.95,10.5,52.31.45,25.21-9.76,38.85-18.4,45.86-10.09,8.19-22.25,11.11-32.9,11.11ZM377.02,299.17c.71,0,1.39.3,1.88.85.61.69.79,1.66.47,2.52-14.76,39.74-13.96,82.78-4.76,99.85,3.03,5.63,7.01,9.04,11.83,10.15,11.29,2.6,27.95,1.65,40.82-8.79,11.15-9.04,16.88-23.53,16.55-41.89-.51-28.36-6.27-41.62-10.08-50.4-2.4-5.51-4.29-9.87-3.61-15.15,0-.06.02-.11.03-.17.89-4.44,4.36-4.26,9.16-4.01,3.81.2,9.57.5,18.74-.23,22.02-3.57,36.22-24.7,35.68-42.23-.21-6.78-3.21-22.78-26.41-25.02-48-4.63-113.54-2.11-140.3,20.23-7.55,6.31-11.76,13.99-12.49,22.85-.93,11.15,1.9,19.66,8.41,25.27,16.91,14.59,53.17,6.3,53.53,6.21.19-.04.38-.07.57-.07ZM435.13,296.83h0Z"/>
    </g>
    <g>
      <path class="cls-11" d="M702.45,348.44s32.75-17.22,32.75-52.97c0-75.4-88.08-74.83-114.52-33.21-52.57,72.4-28.63,168.44,11.26,168.44s36.72-49.45,36.72-49.45c0,0,6.85,52.39,50.43,49.45,37.7-1.96,15.67-79.32-16.65-82.26Z"/>
      <path d="M715.64,433.32c-17.15,0-31.04-8.59-40.28-25.02-2.04-3.62-3.65-7.26-4.91-10.63-1.26,7.92-4.18,17.2-10.64,24.33-6.73,7.43-16.11,11.2-27.87,11.2-12.85,0-24.49-8.93-32.75-25.15-9.04-17.74-12.91-42.27-10.6-67.29,1.85-20.13,8.57-50.32,30.02-79.9,14.82-23.24,48.87-34.91,77.57-26.56,26.38,7.67,41.51,29.97,41.51,61.18,0,28.26-19.25,45.21-28.84,51.9,18.57,6.85,32.99,35.6,32.55,58.43-.32,16.7-8.41,26.68-22.18,27.4-1.21.08-2.41.12-3.59.12ZM668.67,378.74c1.24,0,2.31.92,2.48,2.17.02.13,1.76,12.88,8.64,25.05,8.99,15.9,22.15,23.37,39.14,22.24,14.85-.77,17.32-14.43,17.48-22.5.44-22.73-15.57-53.08-34.19-54.77-1.1-.1-2.01-.91-2.23-2-.22-1.09.31-2.18,1.29-2.7h0c.31-.17,31.41-17,31.41-50.76,0-28.82-13.82-49.37-37.91-56.38-26.71-7.77-58.33,3-72,24.51-.03.04-.06.09-.09.13-20.82,28.68-27.34,57.96-29.14,77.48-2.22,24.11,1.45,47.64,10.08,64.57,7.37,14.46,17.42,22.42,28.3,22.42,10.29,0,18.42-3.22,24.16-9.56,12.25-13.53,10.09-36.91,10.07-37.15-.13-1.36.85-2.57,2.2-2.73.1-.01.19-.02.29-.02Z"/>
    </g>
    <path d="M669.71,314.68c-.57,0-1.14-.19-1.61-.59-1.06-.89-1.19-2.47-.3-3.52,9.77-11.62,4.27-29.3,4.21-29.48-.42-1.31.3-2.72,1.62-3.14,1.31-.42,2.72.3,3.14,1.61.27.83,6.43,20.47-5.14,34.23-.49.59-1.2.89-1.92.89Z"/>
    <g>
      <path class="cls-4" d="M810.36,340.64s-11.02,66.46-45.9,70.5c-34.88,4.04-43.33-76.37-21.66-136.23,21.66-59.85,49.2-64.99,65.18-65.18,61.68,2.1,75.66,102.21,78.23,151.49,1.18,22.6-18.6,41.42-40.91,37.6-17.61-3.01-31.98-19.13-34.94-58.19Z"/>
      <path d="M762.01,413.78c-7.27,0-13.81-3.44-19.05-10.07-18.39-23.24-19.53-82.61-2.51-129.65,21.52-59.45,48.83-66.61,67.5-66.82.04,0,.08,0,.11,0,28,.95,49.38,21.03,63.55,59.69,12.36,33.74,16.02,73.48,17.1,94.17.62,11.92-4.15,23.31-13.08,31.25-8.52,7.57-19.72,10.83-30.75,8.94-22.1-3.78-31.48-24.88-35.23-46.08-5.46,20.28-18.63,55.37-44.89,58.41-.93.11-1.84.16-2.75.16ZM807.95,212.24c-17.18.21-42.36,7.06-62.8,63.53-16.23,44.83-15.42,103.17,1.73,124.84,4.83,6.11,10.65,8.82,17.3,8.05,32.63-3.78,43.61-67.78,43.72-68.42.21-1.25,1.32-2.14,2.58-2.09,1.26.06,2.29,1.05,2.38,2.31,2.52,33.33,13.89,52.66,32.86,55.91,9.52,1.63,19.21-1.2,26.58-7.75,7.79-6.93,11.95-16.86,11.41-27.25-1.06-20.41-4.66-59.59-16.8-92.71-13.39-36.53-33.23-55.51-58.96-56.41Z"/>
    </g>
    <g>
      <path class="cls-10" d="M966.05,337.26s43.56-31.81,72.93,3.43c29.37,35.24-2.94,92.5-85.16,84.67-82.23-7.83-83.69-99.85-70.48-148.3,13.21-48.45,45.69-59.85,58.73-57.75,21.32,3.43,47.48,27.9,23.98,117.95Z"/>
      <path d="M968.52,428.57c-4.87,0-9.86-.24-14.95-.72-26.5-2.52-46.82-13.76-60.39-33.38-22.03-31.87-22.03-82.26-12.27-118.06,13.71-50.27,47.38-61.84,61.54-59.56,7.29,1.17,17.58,5.04,25.27,16.82,12.68,19.44,13.44,52.44,2.27,98.15,4.71-2.7,12.13-6.34,20.9-8.48,20.04-4.89,37.33.56,49.99,15.76,12.71,15.26,14.8,34.79,5.58,52.26-6.49,12.31-17.89,22.26-32.95,28.79-12.88,5.58-28.23,8.44-45.01,8.44ZM938.86,221.57c-13.62,0-41.3,12.85-53.11,56.15-9.46,34.69-9.56,83.36,11.56,113.91,12.69,18.36,31.78,28.87,56.75,31.25,32.29,3.08,72.36-4.2,88.01-33.85,8.24-15.62,6.37-33.09-5-46.73-11.49-13.78-26.56-18.54-44.82-14.13-13.94,3.36-24.6,11.05-24.71,11.13-.85.62-2.01.64-2.88.05-.87-.6-1.28-1.67-1.01-2.7,8.51-32.63,15.4-76.5-.09-100.24-6.69-10.25-15.59-13.6-21.87-14.61-.85-.14-1.79-.21-2.81-.21Z"/>
    </g>
    <path d="M811.62,304.87c-.43,0-.86-.11-1.26-.34-1.19-.7-1.59-2.23-.9-3.42,7.69-13.16-.76-29.6-.84-29.76-.64-1.22-.17-2.73,1.05-3.38,1.22-.64,2.73-.17,3.38,1.05.4.77,9.8,19.09.73,34.61-.46.8-1.3,1.24-2.16,1.24Z"/>
  </g>
</svg>